<?xml version="1.0" standalone="no"?>
<!DOCTYPE svg PUBLIC "-//W3C//DTD SVG 20010904//EN"
 "http://www.w3.org/TR/2001/REC-SVG-20010904/DTD/svg10.dtd">
<svg version="1.0" xmlns="http://www.w3.org/2000/svg"
 width="260.000000pt" height="260.000000pt" viewBox="0 0 260.000000 260.000000"
 preserveAspectRatio="xMidYMid meet">
<metadata>
Created by potrace 1.11, written by Peter Selinger 2001-2013
</metadata>
<g transform="translate(0.000000,260.000000) scale(0.100000,-0.100000)"
fill="#000000" stroke="none">
<path d="M1284 2087 c-37 -34 -39 -38 -42 -109 -4 -68 -2 -77 22 -105 14 -17
26 -37 26 -45 0 -20 -20 -37 -36 -31 -7 2 -37 -2 -66 -11 -42 -12 -58 -23 -78
-53 -14 -21 -74 -87 -134 -146 l-109 -108 -24 23 c-14 13 -31 37 -38 55 -9 22
-29 40 -62 57 -76 40 -86 51 -73 75 6 12 15 21 21 21 6 0 7 5 4 10 -3 6 -1 10
5 10 6 0 9 4 6 9 -4 5 -1 11 6 13 8 3 12 21 11 48 -2 35 -8 48 -35 71 -40 34
-66 36 -104 7 -16 -13 -30 -22 -31 -20 -21 24 -132 34 -117 11 3 -5 -2 -9 -11
-9 -9 0 -14 -4 -11 -9 4 -5 2 -11 -4 -13 -16 -5 7 -73 36 -108 14 -16 29 -28
33 -26 4 3 15 -8 24 -24 11 -18 14 -31 7 -35 -6 -4 -8 -10 -5 -15 3 -5 -3 -11
-12 -15 -36 -12 -56 -55 -59 -128 -3 -44 -10 -80 -21 -96 -9 -14 -17 -46 -18
-71 -1 -25 -3 -52 -6 -60 -3 -11 5 -16 27 -18 25 -2 33 2 44 25 7 15 14 30 15
33 0 3 8 19 17 35 16 29 17 24 19 -140 1 -93 1 -181 1 -195 -3 -96 -11 -199
-17 -221 -5 -21 -1 -31 26 -53 17 -15 38 -25 46 -22 8 4 18 6 22 6 21 0 31 76
29 226 -1 98 3 169 10 184 9 22 11 17 11 -36 1 -67 15 -92 63 -112 43 -18 52
4 55 132 5 160 10 309 12 324 1 10 10 7 31 -8 22 -16 39 -20 70 -16 23 2 47 9
54 15 7 6 33 18 57 26 24 9 68 32 96 51 83 57 87 50 79 -111 -7 -117 -5 -145
14 -227 20 -90 36 -156 46 -189 3 -10 -3 -18 -14 -21 -16 -5 -20 -19 -26 -86
-8 -85 2 -122 30 -122 8 0 20 12 26 26 12 25 13 23 24 -33 7 -32 13 -74 13
-93 1 -56 35 -141 62 -156 13 -7 48 -13 77 -14 59 0 76 18 48 49 -9 10 -14 25
-10 34 3 9 -8 47 -24 84 -17 37 -33 88 -36 113 -3 25 -8 60 -12 78 -6 30 -5
32 23 32 33 0 69 29 85 68 6 15 12 78 14 140 2 63 6 117 8 120 2 4 0 30 -6 57
-5 28 -12 78 -15 113 -4 51 -3 62 10 62 8 0 20 7 27 15 8 9 29 15 56 15 64 0
77 -24 71 -137 -6 -118 11 -270 35 -305 10 -14 18 -37 18 -51 0 -67 30 -75 60
-18 17 35 19 53 14 133 -5 90 -5 92 12 64 11 -21 19 -70 25 -175 12 -195 13
-202 52 -228 51 -35 125 -29 83 6 -11 9 -14 34 -12 99 5 175 -16 378 -45 434
-25 50 14 233 45 210 20 -15 97 -33 116 -27 22 7 54 57 64 99 4 17 25 60 47
97 41 71 46 85 27 73 -8 -5 -9 -2 -4 11 6 16 4 16 -10 4 -15 -12 -16 -11 -10
11 7 24 6 24 -8 6 -16 -20 -16 -20 -17 0 0 18 -1 18 -9 -1 -5 -11 -11 -28 -14
-39 -5 -15 -9 -16 -21 -6 -13 10 -15 8 -15 -14 0 -28 -58 -146 -71 -146 -5 0
-23 13 -41 28 -18 16 -44 36 -56 44 l-24 16 24 13 c30 15 38 28 38 59 0 23 -3
25 -38 22 -36 -4 -38 -3 -40 30 -6 84 -52 123 -114 94 -18 -9 -39 -26 -47 -38
-20 -33 -15 -114 9 -145 25 -32 17 -42 -43 -54 -25 -4 -73 -26 -108 -49 l-64
-41 -6 35 c-4 23 1 57 14 95 11 33 17 67 14 75 -8 20 -64 55 -99 63 -16 3 -28
8 -28 10 0 3 14 25 32 49 28 40 32 51 31 112 -2 110 -19 135 -101 148 -36 6
-44 3 -78 -29z"/>
</g>
</svg>
