<?xml version="1.0" encoding="UTF-8"?>
<svg width="270px" height="43px" viewBox="0 0 270 43" version="1.1" xmlns="http://www.w3.org/2000/svg" xmlns:xlink="http://www.w3.org/1999/xlink">
    <title>Campbell's</title>
    <g id="Page-1" stroke="none" stroke-width="1" fill="none" fill-rule="evenodd">
        <g id="Campbell's">
            <rect id="Rectangle" x="0" y="0" width="270" height="43"></rect>
            <g id="Group-3" transform="translate(0.000000, 4.000000)">
                <rect id="Rectangle" opacity="0" x="1" y="0" width="198" height="30"></rect>
                <g id="Group" transform="translate(0.000000, 4.000000)">
                    <text id="In-partnership-with" font-family="IdealSansSSm-BookItalic, Ideal Sans SSm" font-size="12" font-style="italic" font-weight="300" line-spacing="18" fill="#6E6C6A">
                        <tspan x="9.768" y="17">In partnership with</tspan>
                    </text>
                    <g id="campbells-logo" transform="translate(120.000000, 0.000000)" fill-rule="nonzero">
                        <path d="M70.6490221,2.00124745 C69.6691684,2.02396763 69.0358483,2.92141494 69.0477977,3.68254113 C69.0597472,4.42094714 69.466028,4.56862835 69.4779774,4.88671094 C69.4899269,5.62511695 69.0597472,5.67055732 69,6 C70.672921,5.95455963 72.0351566,4.51182788 71.9993083,3.2735778 C71.9993083,2.63741262 71.5452298,1.96716717 70.6490221,2.00124745 Z" id="Path" fill="#C91424"></path>
                        <path d="M16.9994691,1.41756668 C16.9757294,0.614074784 16.3584956,-0.0455081177 14.839151,0.00246154785 C11.3256665,0.098400879 6.98129043,2.91661873 3.9188614,6.41840432 C3.08796981,6.11859391 2.47073605,5.53096551 2.45886617,4.70348878 C2.41138665,3.20443673 3.78829272,2.66477799 4.66666384,2.64079316 C4.40552648,2.37695999 4.08503972,2.26902825 3.47967584,2.29301308 C2.49447581,2.31699791 1.16504925,3.25240639 1.18878901,4.57157219 C1.21252877,5.61491242 2.20959869,6.4783664 3.49154572,6.91009339 C1.35496733,9.46447808 -0.0575483832,12.3306656 0.00180101661,14.7051641 C0.0611504164,16.6239507 1.52114565,19.0704036 3.93073128,18.9984491 C7.33738683,18.9145022 10.5659942,13.4219755 10.5066448,11.5271737 C10.482905,10.26797 9.5451845,9.77628091 8.9516905,9.78827333 C7.39673623,9.83624299 5.72308316,12.5465291 5.74682292,13.7337783 C5.7586928,14.1535129 5.7586928,14.501293 5.93674099,14.4893006 C6.28096751,14.4773081 6.07917955,13.49393 6.76763259,12.3186732 C7.12372899,11.70706 7.64600371,10.7716515 8.38193627,10.7596591 C8.9516905,10.7476666 9.20095798,11.1194315 9.21282786,11.6710827 C9.28404714,13.8297177 6.62519403,17.8231923 4.6904036,17.8831544 C3.55089512,17.9071392 2.88618185,17.1276322 2.86244209,15.9283905 C2.80309269,13.8177252 4.54796504,10.2799624 6.85072175,7.12595689 C12.1328183,6.6222754 17.0588185,3.95995896 16.9994691,1.41756668 Z" id="Path" fill="#C91424"></path>
                        <path d="M14.9869118,1.00100691 C15.9235703,0.976420875 15.9742005,1.40667653 15.9995156,1.7877601 C16.0501457,3.36126649 12.1263063,6.33617699 7,7 C9.56948194,3.74235006 12.721211,1.06247201 14.9869118,1.00100691 Z" id="Path" fill="#FFFFFF"></path>
                        <path d="M68.6792881,16.6638323 C69.6314635,15.2276343 69.9171162,13.3810939 69.8814096,12.5362716 C69.8338008,10.7742135 69.8576052,9.63973776 70.1432578,8.71043316 L68.1079828,8.71043316 C66.7392305,11.269038 62.7162892,16.8690034 61.6212874,16.917279 C61.2047107,16.9293479 61.1332975,16.6517634 61.1332975,16.4103856 C61.1332975,16.1690077 61.5736786,14.9983253 62.0616686,14.2259163 L68.3579288,2.66391882 L66.1203165,2.66391882 L60.5262856,12.7293738 C59.5979146,14.370743 58.026825,16.6879701 57.0865518,16.7121078 C56.6818772,16.7241767 56.5866596,16.47073 56.5866596,16.2052144 C56.5866596,16.0362499 56.729486,15.5776321 57.2174759,14.6241897 L63.6922691,2.65184993 L61.4665589,2.65184993 L56.8128013,11.2328314 C55.1345921,14.2741919 52.7779578,17.025899 51.1949661,17.0621057 C50.5879542,17.0741746 50.2189862,16.6638323 50.207084,16.2172833 C50.1832796,14.9500498 52.051924,13.6586784 53.718231,13.6104029 C54.0752968,13.598334 54.3609495,13.1035095 54.3609495,12.8500627 C54.3490473,12.4155827 53.1945345,12.7897183 52.7065446,11.9207581 C54.7180153,11.4017958 56.3843224,10.6173179 56.3486158,9.51904886 C56.3367136,8.87939764 55.563071,8.48112424 54.5394824,8.51733091 C53.2778499,8.54146869 50.1237687,9.56732442 50.1832796,11.7517937 C50.1832796,11.824207 50.1951818,11.8966204 50.2308884,11.9690337 C49.8143116,12.0535159 49.3858327,12.1138604 48.9573537,12.1259293 C49.1477888,11.6431737 49.2430064,11.1362802 49.2430064,10.6293868 C49.219202,9.70008222 48.6359945,8.97594876 47.7552322,9.00008655 C47.3862642,9.01215544 46.3745778,9.28973993 46.1246317,9.54318664 L46.267458,9.18111991 C49.4215393,7.34664849 52.6113271,4.9449392 52.5637183,3.11046778 C52.5637183,2.8208144 52.1709459,1.98806093 51.5163253,2 C49.6119744,2.04840538 45.8746856,6.23631053 43.2919097,10.2190445 C42.327832,10.7138691 41.4946785,11.0276602 40.970982,11.0759358 C40.9233732,10.0621489 40.3639701,9.09663767 39.3760881,9.12077546 C38.5310324,9.13284435 37.5669547,9.90525336 37.2574977,10.0621489 L38.3167929,7.81733524 L36.2815178,7.81733524 C34.4842866,11.3052447 31.0921615,17.0741746 30.2113992,17.0862435 C30.0566707,17.0741746 29.9257466,16.9414168 29.9376488,16.7845212 L29.9376488,16.7845212 C29.9257466,16.0845255 33.0203169,11.6552425 32.9965125,10.3276645 C32.9727081,9.4587044 32.2228699,9.10870656 31.73488,9.12077546 C30.7708023,9.14491324 29.580583,10.1949067 29.3306369,10.4845601 C29.2354194,9.84490891 28.8664514,9.13284435 27.9261781,9.14491324 C27.2953619,9.15698213 26.5812303,9.61559998 26.0337294,10.0018045 L25.8075877,9.50697996 L23.9270411,9.50697996 C23.2010074,11.1242113 19.606545,17.0138301 18.4639344,17.0379679 C18.0235533,17.0500368 18.130673,16.3500411 18.44013,15.7707343 L21.2847542,9.50697996 L19.118555,9.56732442 L18.7852936,9.89318447 C18.6424673,9.60353109 18.3092059,9.10870656 17.4403458,9.13284435 C14.988494,9.1931888 10.9179438,13.6466095 11.0012592,16.8690034 C11.0250636,18.2569259 11.9177281,18.908646 12.6318597,18.8724393 C14.250558,18.8241637 15.5121905,17.0138301 15.7740387,16.6759012 C15.6907234,17.2672768 15.7859409,18.8120949 17.1546931,18.7758882 C18.7733914,18.7276126 21.6180156,14.5517764 22.2369297,13.5500584 L19.975513,18.2689948 L22.010788,18.2931325 L24.6530749,12.7414427 C25.0815539,11.7759315 25.640957,11.1724869 26.2479688,11.160418 C26.6050346,11.1483491 26.68835,11.3052447 26.68835,11.5586914 C26.6645456,11.824207 26.6050346,12.0776537 26.4979149,12.3431693 L23.6770951,18.2931325 L25.700468,18.2931325 L28.1404176,13.2362673 C28.5093856,12.4397205 29.3068325,11.1362802 29.8781378,11.1362802 C30.2352036,11.1242113 30.3661277,11.3414514 30.3661277,11.5586914 C30.3661277,11.7759315 30.2233014,12.1500671 30.0328663,12.4759271 L28.2594395,15.7103899 C27.9142759,16.36211 27.6881342,16.917279 27.7000364,17.4121035 C27.7119386,17.9914103 28.1880264,18.6672682 28.9378645,18.6431304 C30.6041716,18.5948548 32.0324348,16.2172833 32.7346642,15.2155654 L29.0449843,23 L31.1159659,23 L33.7106441,17.5448613 C33.8772748,18.3896837 34.5437976,18.8362326 35.1270051,18.8241637 C37.0075516,18.7758882 40.5663074,14.7569475 40.9352754,11.7880003 C41.5779939,11.5707603 42.2088101,11.3052447 42.8277242,11.0155913 C41.4470697,13.2724739 40.5067965,15.3845298 40.5306008,16.5431434 C40.5544052,17.7621013 41.2447324,18.8120949 42.3516364,18.7879571 C44.6130532,18.7276126 47.6362103,15.3603921 48.7788208,12.6448916 C49.3263217,12.5845471 49.9095292,12.5121338 50.516541,12.4155827 C50.885509,12.7655805 51.3377924,13.043165 51.7900757,13.2483361 C50.6593674,13.5500584 47.6957212,14.8776364 47.7790366,17.1224501 C47.802841,18.136237 48.540777,18.8845082 49.6595831,18.8483015 C51.1473573,18.800026 53.1826323,16.8931412 54.1586122,15.9638366 C53.9443727,16.6759012 54.0276881,18.6310615 55.5392666,18.5948548 C56.6818772,18.570717 58.1101404,17.1103812 58.5267172,16.6276256 C58.5505215,17.8345147 59.0861202,18.6310615 60.1930242,18.6069237 C60.9428624,18.5948548 61.8117225,18.0155481 62.7281914,17.1465879 C62.9186265,17.3879657 64.0969436,18.6189926 65.5133046,18.570717 C66.2274362,18.5586481 66.9177634,18.3414081 67.5247753,17.9431347 C68.3103201,18.0879614 69.3696153,18.5224415 70.1313556,18.5103726 C71.3096728,18.4862348 71.8095649,17.4241724 72,16.9534857 C71.2382596,17.1103812 69.7504855,16.8327967 68.6792881,16.6638323 Z" id="Path" fill="#C91424"></path>
                        <path d="M34.5370248,17.9996392 C34.2082652,18.0125532 34.0110094,17.6767894 34.0000508,17.3151977 C33.9890921,16.889036 35.7534352,11.0389981 37.3314812,11.0002561 C37.8355793,10.9873421 37.9890004,11.4651598 37.9999591,11.8913215 C38.0109177,13.0923227 35.8191872,17.9738112 34.5370248,17.9996392 Z" id="Path" fill="#FFFFFF"></path>
                        <path d="M50.6071339,3.00211212 C50.9605221,2.99062272 50.9997874,3.01360152 50.9997874,3.39275163 C51.0259643,4.51871258 48.6307782,6.41446316 46,8 C46.6151571,6.80510267 49.5207927,3.02509092 50.6071339,3.00211212 Z" id="Path" fill="#FFFFFF"></path>
                        <path d="M43.5731741,17 C43.3821808,17 43.022664,16.9365969 43.0001942,16.2772047 C42.9777244,15.072546 44.9101271,10.0383403 46.2807848,10.0002985 C46.7301808,9.98761785 46.9998184,10.380717 46.9998184,10.8498999 C47.0222882,12.1813649 44.9550667,16.9619581 43.5731741,17 Z" id="Path" fill="#FFFFFF"></path>
                        <path d="M53.0000907,10.6425588 C52.9901906,10.1957572 53.792102,9.01173318 54.6138137,9.00056314 C54.9108179,8.9893931 54.9999192,9.14577364 54.9999192,9.34683433 C55.0098193,9.99469655 54.1089065,10.5755385 53.0396913,11 C53.0099909,10.8994697 53.0000907,10.7765992 53.0000907,10.6425588 Z" id="Path" fill="#FFFFFF"></path>
                        <path d="M66.8056483,17 C65.795083,16.8987342 64.6249548,16.7088608 64,16.4810127 C65.8083799,14.6075949 67.4040093,12.443038 67.9358857,12 C67.5768691,12.443038 68.8400757,15.3417722 66.8056483,17 Z" id="Path" fill="#FFFFFF"></path>
                        <path d="M17.9998303,10.6672132 C17.9998303,10.4609837 17.8595474,10 17.4259456,10 C15.8828334,10.0485246 12.9496448,14.7675419 13.0006568,16.2839357 C13.0134098,16.6842636 13.3704936,17.0118047 13.6255535,16.9996735 C15.1686657,16.9511489 18.0253363,12.2442627 17.9998303,10.6672132 Z" id="Path" fill="#FFFFFF"></path>
                    </g>
                </g>
            </g>
        </g>
    </g>
</svg>