<?xml version="1.0" encoding="UTF-8"?>
<svg width="270px" height="43px" viewBox="0 0 270 43" version="1.1" xmlns="http://www.w3.org/2000/svg" xmlns:xlink="http://www.w3.org/1999/xlink">
    <title>KP</title>
    <defs>
        <polygon id="path-1" points="0.25 0.125 0.375 0.125 0.375 0.25 0.25 0.25"></polygon>
        <polygon id="path-3" points="0.121305941 0.0455149502 3.69785009 0.0455149502 3.69785009 3.73258853 0.121305941 3.73258853"></polygon>
        <polygon id="path-5" points="0.227574751 15.4295681 136.781756 15.4295681 136.781756 0.227574751 0.227574751 0.227574751"></polygon>
    </defs>
    <g id="Page-1" stroke="none" stroke-width="1" fill="none" fill-rule="evenodd">
        <g id="KP">
            <rect id="Rectangle-Copy-119" x="0" y="0" width="270" height="43"></rect>
            <g id="Kaiser-ribbon-2-Copy-2" transform="translate(0.000000, 12.000000)">
                <text id="In-partnership-with" font-family="IdealSansSSm-BookItalic, Ideal Sans SSm" font-size="12" font-style="italic" font-weight="300" line-spacing="18" fill="#6E6C6A">
                    <tspan x="9.768" y="13">In partnership with</tspan>
                </text>
                <g id="Group-54" transform="translate(123.000000, 0.000000)">
                    <path d="M10.4095194,4.8245392 C10.2502171,4.68799435 10.0226424,4.50593455 9.79506761,4.4604196 L9.43094801,11.6062668 L11.2287885,6.64513721 C11.3880909,5.89414053 10.9784563,5.25693123 10.4095194,4.8245392" id="Fill-1" fill="#006BA6"></path>
                    <path d="M7.45104767,4.3693897 L8.49789153,11.4924794 L9.52197791,4.3693897 C8.93028355,4.14181495 8.13377193,4.11905748 7.45104767,4.3693897" id="Fill-3" fill="#006BA6"></path>
                    <path d="M6.58630914,4.8245392 C6.01737226,5.30244618 5.60773771,5.91689801 5.76704003,6.64513721 L7.56488056,11.6062668 L7.20076096,4.4604196 C6.97318621,4.50593455 6.74561146,4.6424794 6.58630914,4.8245392" id="Fill-5" fill="#006BA6"></path>
                    <path d="M2.99065083,5.48459701 C4.17403953,7.55552724 5.40294319,9.78553223 6.58633189,11.7884176 C6.15393987,10.036092 5.74430532,7.14589269 5.12985349,6.32662359 C4.42437176,5.34805216 2.99065083,5.48459701 2.99065083,5.48459701" id="Fill-7" fill="#006BA6"></path>
                    <path d="M0.874160133,6.53134983 L5.76701728,12.1524462 L2.71751561,5.50726346 C1.94376146,5.55277841 1.26103721,5.93965548 0.874160133,6.53134983" id="Fill-9" fill="#006BA6"></path>
                    <path d="M11.0922437,8.05614618 L10.2729746,11.9021595 C11.3198184,10.1043189 12.3439048,8.32923588 13.3679912,6.53139535 C12.4121772,6.59966777 11.4336058,6.96378738 11.0922437,8.05614618" id="Fill-11" fill="#006BA6"></path>
                    <path d="M13.6411264,6.53134983 L11.0467743,12.2437037 L15.5755118,7.32786146 C15.0748473,6.78168206 14.4148806,6.53134983 13.6411264,6.53134983" id="Fill-13" fill="#006BA6"></path>
                    <path d="M0.236996346,9.05756611 C1.8300196,10.2637123 3.42304286,11.5379033 5.01606611,12.7440495 L0.714903322,6.6907887 C0.305268771,7.39627043 0.191481395,8.19255449 0.236996346,9.05756611" id="Fill-15" fill="#006BA6"></path>
                    <path d="M16.1444487,8.03336595 C16.0534188,7.82854867 15.9396314,7.66924635 15.7803291,7.5327015 L11.8660434,12.8579507 C13.4135517,11.6973194 14.915545,10.5139307 16.3947809,9.37605698 C16.4402958,8.87539252 16.3720234,8.42024302 16.1444487,8.03336595" id="Fill-17" fill="#006BA6"></path>
                    <path d="M0.236996346,11.5379944 L4.40161429,13.4496223 C3.01340831,12.0614163 1.62520233,10.7414827 0.236996346,9.39901927 L0.236996346,11.5379944" id="Fill-19" fill="#006BA6"></path>
                    <path d="M16.4402503,11.6746757 L16.4402503,9.74029037 L12.5032071,13.5405611 C13.8458982,12.9033518 15.0748018,12.311885 16.4402503,11.6746757" id="Fill-21" fill="#006BA6"></path>
                    <path d="M0.236996346,13.4268193 C1.51141495,13.699909 2.85410598,14.0412711 3.96922226,14.2918309 L0.236996346,11.8110385 L0.236996346,13.4268193" id="Fill-23" fill="#006BA6"></path>
                    <path d="M16.4402503,13.5406066 L16.4402503,12.0386133 C15.2568616,12.7670801 14.0507154,13.5635917 12.9583566,14.3143608 L16.4402503,13.5406066" id="Fill-25" fill="#006BA6"></path>
                    <polygon id="Fill-27" fill="#006BA6" points="0.236996346 15.2929777 3.90094983 15.2929777 0.236996346 13.7454694"></polygon>
                    <path d="M16.4402503,15.2929777 L16.4402503,13.8820143 C15.2341042,14.3826787 14.1872603,14.8150708 13.072144,15.2929777 L16.4402503,15.2929777" id="Fill-29" fill="#006BA6"></path>
                    <path d="M15.1659,4.61974468 C15.1886575,2.43502708 11.9798535,2.43502708 12.0481259,4.59698721 C12.0253684,6.62240249 15.2569299,6.73618987 15.1659,4.61974468" id="Fill-31" fill="#006BA6"></path>
                    <g id="Group-35" transform="translate(0.000000, 15.201993)">
                        <mask id="mask-2" fill="white">
                            <use xlink:href="#path-1"></use>
                        </mask>
                        <g id="Clip-34"></g>
                        <path d="" id="Fill-33" fill="#006BA6" mask="url(#mask-2)"></path>
                    </g>
                    <path d="M4.69746146,3.50465116 C4.81124884,1.31993355 1.3748701,1.38820598 1.51141495,3.50465116 C1.42038505,5.68936877 4.90227874,5.71212625 4.69746146,3.50465116" id="Fill-36" fill="#006BA6"></path>
                    <g id="Group-40" transform="translate(6.599668, 0.182060)">
                        <mask id="mask-4" fill="white">
                            <use xlink:href="#path-3"></use>
                        </mask>
                        <g id="Clip-39"></g>
                        <path d="M1.89824651,3.7321804 C3.17266512,3.75493787 3.67332957,2.8218814 3.69608704,1.95709734 C3.74160199,0.614406312 2.89957542,0.0454694352 1.89824651,0.0454694352 C0.874160133,0.0454694352 0.077648505,0.637163787 0.123163455,1.95709734 C0.14592093,2.7308515 0.464525581,3.70942292 1.89824651,3.7321804" id="Fill-38" fill="#006BA6" mask="url(#mask-4)"></path>
                    </g>
                    <mask id="mask-6" fill="white">
                        <use xlink:href="#path-5"></use>
                    </mask>
                    <g id="Clip-42"></g>
                    <polygon id="Fill-41" fill="#006BA6" mask="url(#mask-6)" points="35.4427193 15.2022209 36.9447126 15.2022209 36.9447126 6.64518272 35.4427193 6.64518272"></polygon>
                    <path d="M29.821714,11.5379944 L30.9823452,7.98782824 L31.0051027,7.98782824 L32.1884914,11.5379944 L29.821714,11.5379944 Z M30.1858336,6.64513721 L27.6597538,13.9047718 L25.179189,10.8097551 L28.4790229,6.64513721 L26.7722123,6.64513721 L23.7227106,10.6959678 L23.7227106,6.64513721 L22.2207173,6.64513721 L22.2207173,15.2021754 L23.7227106,15.2021754 L23.7227106,10.9920425 L26.8632422,15.2021754 L27.2046043,15.2021754 L28.6610827,15.2021754 L29.4575944,12.7213831 L32.5981259,12.7213831 L33.417395,15.2021754 L34.9649033,15.2021754 L31.9836741,6.64513721 L30.1858336,6.64513721 Z" id="Fill-43" fill="#006BA6" mask="url(#mask-6)"></path>
                    <path d="M85.2816125,12.8352159 L83.7796191,6.64518272 L81.1625095,6.64518272 L81.1625095,15.2019934 L82.6189879,15.2019934 L82.6189879,7.91960133 L84.5080859,15.2019934 L86.0098517,15.2019934 C86.0326091,15.2019934 87.8987221,7.91960133 87.8987221,7.91960133 L87.8987221,15.2019934 L89.3552005,15.2019934 L89.3552005,6.64518272 L86.8063633,6.64518272 L85.2816125,12.8352159" id="Fill-44" fill="#006BA6" mask="url(#mask-6)"></path>
                    <path d="M92.76889,11.5379944 L93.9295213,7.98782824 L93.9522787,7.98782824 L95.1584249,11.5379944 L92.76889,11.5379944 Z M93.1102522,6.64513721 L90.1287953,15.2247053 L91.5855013,15.2247053 L92.382013,12.7441405 L95.5680595,12.7441405 L96.410086,15.2247053 L97.9575944,15.2247053 L94.9763651,6.64513721 L93.1102522,6.64513721 Z" id="Fill-45" fill="#006BA6" mask="url(#mask-6)"></path>
                    <polyline id="Fill-46" fill="#006BA6" mask="url(#mask-6)" points="103.988302 13.267699 100.551924 6.64504618 98.5720234 6.64504618 98.5720234 15.2020844 99.9829869 15.2020844 99.9829869 8.76149136 103.351093 15.2020844 105.376508 15.2020844 105.376508 6.64504618 103.942788 6.64504618 103.942788 13.267699"></polyline>
                    <polygon id="Fill-47" fill="#006BA6" mask="url(#mask-6)" points="132.207549 13.9730897 128.657383 13.9730897 128.657383 11.5607973 131.274492 11.5607973 131.274492 10.3318937 128.657383 10.3318937 128.657383 7.91960133 131.888944 7.91960133 131.888944 6.69069767 127.155389 6.69069767 127.155389 15.2247508 132.162034 15.2247508"></polygon>
                    <polyline id="Fill-48" fill="#006BA6" mask="url(#mask-6)" points="118.621291 6.62247076 118.621291 6.62247076 118.348201 6.62247076 118.348201 13.3129409 114.911822 6.64522824 112.931922 6.64522824 112.931922 13.9503777 108.403412 13.9503777 108.403412 11.5380854 111.020522 11.5380854 111.020522 10.3091817 108.403412 10.3091817 108.403412 7.89688937 111.634746 7.89688937 111.634746 6.66798571 106.946706 6.66798571 106.946706 15.2247963 114.229098 15.2247963 114.342885 15.2247963 114.342885 8.67064352 117.710992 15.2020389 119.736407 15.2020389 119.736407 7.94240432 122.353517 7.94240432 122.353517 15.2247963 123.85551 15.2247963 123.85551 7.94240432 126.404347 7.94240432 126.404347 6.64522824 118.621291 6.64522824"></polyline>
                    <path d="M75.5414586,10.3092272 L75.5414586,7.89670731 L76.8158772,7.89670731 C77.9309935,7.89670731 78.386143,8.35185681 78.386143,9.08032359 C78.386143,9.89936512 77.9309935,10.2862422 76.8158772,10.2862422 L75.5414586,10.2862422 L75.5414586,10.3092272 Z M79.0461098,10.9009216 C79.5240168,10.5138169 79.8653789,9.85407774 79.8653789,9.08032359 C79.8653789,8.28381196 79.5240168,7.66913256 79.0461098,7.28248306 C78.5226879,6.82733355 77.7716912,6.66803123 76.5427875,6.66803123 L74.0394653,6.66803123 L74.0394653,10.2862422 L74.0394653,13.9957106 L69.4879703,13.9957106 L69.4879703,11.5836458 L72.1050799,11.5836458 L72.1050799,10.3545146 L69.4879703,10.3545146 L69.4879703,7.94244983 L72.7195317,7.94244983 L72.7195317,6.71354618 L67.9859769,6.71354618 L67.9859769,15.2928867 L75.5187012,15.2928867 L75.5187012,11.6061757 L76.2469404,11.6061757 C76.9296646,12.6757771 78.386143,15.2703568 78.386143,15.2703568 L80.1612261,15.2703568 L77.8627211,11.4923884 C78.3633855,11.3560711 78.7275051,11.1510262 79.0461098,10.9009216 L79.0461098,10.9009216 Z" id="Fill-49" fill="#006BA6" mask="url(#mask-6)"></path>
                    <path d="M52.0330096,10.3092272 L52.0330096,7.89670731 L53.3074282,7.89670731 C54.4225445,7.89670731 54.877694,8.35185681 54.877694,9.08032359 C54.877694,9.89936512 54.4225445,10.2862422 53.3074282,10.2862422 L52.0330096,10.2862422 L52.0330096,10.3092272 Z M55.5149033,10.9009216 C55.9928103,10.5138169 56.3341724,9.85407774 56.3341724,9.08032359 C56.3341724,8.28381196 55.9928103,7.66913256 55.5149033,7.28248306 C55.0142389,6.82733355 54.2404847,6.66803123 53.0115811,6.66803123 L50.5082588,6.66803123 L50.5082588,10.2862422 L50.5082588,13.9957106 L45.9567638,13.9957106 L45.9567638,11.5836458 L48.5738734,11.5836458 L48.5738734,10.3545146 L45.9567638,10.3545146 L45.9567638,7.94244983 L49.1883252,7.94244983 L49.1883252,6.71354618 L44.4547704,6.71354618 L44.4547704,15.2928867 L51.9874947,15.2928867 L51.9874947,11.6061757 L52.7157339,11.6061757 C53.3984581,12.6757771 54.8549365,15.2703568 54.8549365,15.2703568 L56.6300196,15.2703568 L54.3315146,11.4923884 C54.877694,11.3560711 55.2418136,11.1510262 55.5149033,10.9009216 L55.5149033,10.9009216 Z" id="Fill-50" fill="#006BA6" mask="url(#mask-6)"></path>
                    <path d="M64.0489337,10.4230146 L62.7745151,10.4230146 L62.7745151,7.89670731 L64.0489337,7.89670731 C65.16405,7.89670731 65.6191995,8.39759934 65.6191995,9.12583854 C65.6191995,9.89936512 65.118535,10.4230146 64.0489337,10.4230146 M66.2791663,7.30524053 C65.7557444,6.85009103 65.0047477,6.66803123 63.775844,6.66803123 L61.2725218,6.66803123 L61.2725218,15.2248419 L62.7745151,15.2248419 L62.7745151,11.6746757 L63.7986015,11.6746757 C65.0275051,11.6746757 65.7785018,11.447101 66.2791663,10.9919515 C66.7570733,10.6050744 67.0984354,9.92235017 67.0984354,9.12583854 C67.0984354,8.32932691 66.7343158,7.69211761 66.2791663,7.30524053" id="Fill-51" fill="#006BA6" mask="url(#mask-6)"></path>
                    <path d="M41.3142389,10.2181063 C40.1308502,9.78571429 39.6074282,9.46710963 39.6074282,8.78438538 C39.6074282,8.28372093 40.1308502,7.69202658 41.1549365,7.69202658 C41.9059332,7.69202658 42.6569299,7.9423588 43.0210495,8.14717608 L43.0210495,6.91827243 C42.6341724,6.71345515 41.9286907,6.53139535 41.2004515,6.53139535 C39.3343385,6.53139535 38.0826774,7.5782392 38.0826774,8.94368771 C38.0826774,10.1725914 39.0384914,10.9463455 40.4722123,11.4242525 C41.5873286,11.8111296 42.0652355,12.2207641 42.0652355,12.8807309 C42.0652355,13.6089701 41.4507837,14.1096346 40.4039399,14.1096346 C39.5846708,14.1096346 38.5833419,13.8365449 38.0371625,13.4951827 L38.0371625,14.8151163 C38.5378269,15.088206 39.4481259,15.3157807 40.2901525,15.3157807 C42.520385,15.3157807 43.5899864,14.132392 43.5899864,12.744186 C43.5899864,11.4925249 42.7934748,10.7642857 41.3142389,10.2181063" id="Fill-52" fill="#006BA6" mask="url(#mask-6)"></path>
                    <path d="M134.61975,13.5635007 L134.61975,12.9490488 L135.052142,12.9490488 C135.279717,12.9490488 135.507292,12.9945638 135.507292,13.2221385 C135.507292,13.5405156 135.279717,13.5635007 135.029612,13.5635007 L134.61975,13.5635007 Z M134.61975,13.8138329 L134.961112,13.8138329 L135.484762,14.6783894 L135.826124,14.6783894 L135.257187,13.8138329 C135.575564,13.7910754 135.780609,13.6090156 135.780609,13.244896 C135.780609,12.8577914 135.553034,12.6759591 135.0749,12.6759591 L134.323903,12.6759591 L134.323903,14.6783894 L134.642735,14.6783894 L134.642735,13.8138329 L134.61975,13.8138329 Z M135.006627,15.4296136 C135.962441,15.4296136 136.78171,14.7013744 136.78171,13.677288 C136.78171,12.6987166 135.962441,11.9249625 135.006627,11.9249625 C134.050813,11.9249625 133.231544,12.6532017 133.231544,13.677288 C133.231544,14.7013744 134.050813,15.4296136 135.006627,15.4296136 L135.006627,15.4296136 Z M133.550376,13.677288 C133.550376,12.8577914 134.164601,12.2435671 134.984097,12.2435671 C135.780609,12.2435671 136.395061,12.8577914 136.395061,13.677288 C136.395061,14.5193146 135.780609,15.111009 134.984097,15.111009 C134.210116,15.1335389 133.550376,14.5193146 133.550376,13.677288 L133.550376,13.677288 Z" id="Fill-53" fill="#006BA6" mask="url(#mask-6)"></path>
                </g>
            </g>
        </g>
    </g>
</svg>
