<svg xmlns="http://www.w3.org/2000/svg" xmlns:xlink="http://www.w3.org/1999/xlink" width="270px" height="95px" viewBox="0 0 270 95" version="1.1">
    <title>Washington Office of the Superintendent of Public Instruction Logo</title>
    <g id="Page-1" stroke="none" stroke-width="1" fill="none" fill-rule="evenodd">
        <g id="sts-update">
            <rect id="Rectangle-Copy-119" x="0" y="0" width="270" height="95"/>
            <g id="sts" transform="translate(11.000000, 5.000000)" fill-rule="nonzero">
                <g id="ribbon" transform="translate(0.128868, 0.000000)" fill="#6E6C6A">
                    <path d="M1.12775694,9.38795984 L0,9.38795984 C0.127670597,8.81438125 0.351094142,7.26923075 0.44684709,6.48494982 L0.787302016,3.8160535 C0.883054964,3.04347826 1.06392164,1.48662207 1.08520008,0.913043476 C1.50012951,0.913043476 1.87250209,0.90133779 2.22359623,0.854515048 C2.1384825,1.20568561 2.00017269,2.16555183 1.94697661,2.63377926 L1.30862362,7.65551837 C1.24478832,8.11204011 1.13839616,9.04849496 1.12775694,9.38795984 Z M6.75590243,8.05351169 L7.09635736,5.6070234 C7.21338874,4.76421403 7.22402795,4.2257525 6.6707887,4.2257525 C5.73453766,4.2257525 4.79828661,5.74749162 4.52166699,6.6605351 L4.31952187,8.05351169 C4.24504736,8.52173911 4.18121206,9.03678928 4.15993363,9.38795984 L3.12792964,9.38795984 C3.2343218,8.82608693 3.36199239,7.94816051 3.45774534,7.17558527 L3.67052967,5.64214045 C3.77692183,4.88127089 3.8194787,4.0618729 3.78756105,3.42976588 C4.15993363,3.4180602 4.41527482,3.38294314 4.73445131,3.3244147 C4.77700818,3.54682274 4.84084348,4.36622073 4.70253366,5.20903009 C5.40472195,3.95652173 6.22394162,3.2541806 7.07507892,3.2541806 C8.08580449,3.2541806 8.27731039,4.09698996 8.0964437,5.39632106 L7.74534956,7.94816051 C7.68151427,8.45150499 7.71343191,8.60367891 8.01132997,8.60367891 C8.18155743,8.60367891 8.31986725,8.55685617 8.52201236,8.45150499 L8.40498098,9.23578593 C8.13900057,9.39966553 7.80918486,9.52842807 7.50064758,9.52842807 C6.83037695,9.52842807 6.59631419,9.18896319 6.75590243,8.05351169 Z M12.9798441,8.29933109 C13.2032676,8.54515048 13.5118048,8.67391302 13.9160951,8.67391302 C14.9587383,8.67391302 15.9588247,6.97658861 15.9588247,5.47826086 C15.9588247,4.64715718 15.6502873,4.21404681 15.1502442,4.21404681 C14.4906128,4.21404681 13.3628558,5.48996654 13.1181539,7.29264212 L12.9798441,8.29933109 Z M11.4158793,12.173913 C11.5435499,11.6588628 11.6605812,10.6989966 11.7776126,9.89130429 L12.3840479,5.64214045 C12.4904401,4.88127089 12.532997,4.0618729 12.5010793,3.42976588 C12.8734519,3.4180602 13.1287931,3.38294314 13.4479695,3.3244147 C13.4905264,3.53511705 13.5543617,4.16722407 13.4479695,4.96321069 C14.0437657,3.85117056 14.9055422,3.2424749 15.533256,3.2424749 C16.469507,3.2424749 16.9482718,4.17892975 16.9482718,5.34949831 C16.9482718,7.30434781 15.4906991,9.59866218 13.8309814,9.59866218 C13.4905264,9.59866218 13.1394323,9.48160532 12.8415342,9.32943142 L12.6713067,10.7809364 C12.6074715,11.2491638 12.5542754,11.8812709 12.5436362,12.0685618 L11.4158793,12.173913 Z M21.6720839,5.51337791 C21.6720839,5.48996654 21.7891153,4.54180601 21.7891153,4.54180601 C21.5869701,4.31939798 21.2784329,4.17892975 20.8847818,4.17892975 C19.8421386,4.17892975 18.8952484,5.75919731 18.8952484,7.25752507 C18.8952484,8.27591971 19.1080327,8.65050165 19.6293543,8.65050165 C20.2889858,8.65050165 21.4273819,7.36287624 21.6720839,5.51337791 Z M20.9698956,3.2541806 C21.480578,3.2541806 21.9380643,3.4882943 22.1082917,3.64046822 L22.8317585,3.18394648 L22.9275114,3.27759196 L22.2997976,7.94816051 C22.2359623,8.45150499 22.26788,8.60367891 22.5657781,8.60367891 C22.7466447,8.60367891 22.8743153,8.55685617 23.0764604,8.45150499 L22.959429,9.23578593 C22.6934487,9.39966553 22.3636329,9.52842807 22.0550957,9.52842807 C21.4699387,9.52842807 21.2571544,9.15384613 21.4061034,8.08862875 C21.4273819,7.94816051 21.4699387,7.64381269 21.5018564,7.46822741 C20.9273387,8.76755851 19.9272524,9.61036786 19.2569817,9.61036786 C18.3207307,9.61036786 17.9058012,8.70903008 17.9058012,7.53846152 C17.9058012,5.57190634 19.2995386,3.2541806 20.9698956,3.2541806 Z M27.6938804,3.2541806 L27.576849,4.48327758 C27.5236529,4.47157189 27.4704568,4.47157189 27.4172607,4.47157189 C26.5661234,4.47157189 25.8213783,5.64214045 25.4915626,6.68394648 L25.3000566,8.05351169 C25.2255821,8.52173911 25.1617468,9.03678928 25.1404684,9.38795984 L24.1084645,9.38795984 C24.2148566,8.82608693 24.3425272,7.94816051 24.4382801,7.17558527 L24.6510645,5.64214045 C24.7574567,4.88127089 24.7787351,4.15551839 24.7680959,3.42976588 C25.1404684,3.4180602 25.3958097,3.38294314 25.7149861,3.3244147 C25.7894606,3.76923076 25.7894606,4.44816053 25.6830685,5.22073577 C26.3320607,3.94481604 26.7895469,3.35953176 27.6938804,3.2541806 Z M31.0345943,8.18227423 L30.8856453,9.03678928 C30.5983865,9.24749162 30.034508,9.52842807 29.4599903,9.52842807 C28.6939667,9.52842807 28.4918216,9.00167222 28.6407706,7.90133777 L29.1195354,4.31939798 L28.1620059,4.31939798 L28.5982138,3.39464882 L29.2684844,3.39464882 L29.5344648,2.24749163 L30.4068805,1.96655518 L30.2047354,3.39464882 L31.5665552,3.39464882 C31.5559159,3.39464882 31.4069669,4.3076923 31.4069669,4.31939798 L30.0877041,4.31939798 L29.6302177,7.73745817 C29.545104,8.35785951 29.5983001,8.58026754 30.0025904,8.58026754 C30.3111276,8.58026754 30.7686139,8.36956519 31.0345943,8.18227423 Z M35.886077,8.05351169 L36.2265319,5.6070234 C36.3435633,4.76421403 36.3542025,4.2257525 35.8009633,4.2257525 C34.8647122,4.2257525 33.9284612,5.74749162 33.6518416,6.6605351 L33.4496965,8.05351169 C33.3752219,8.52173911 33.3113866,9.03678928 33.2901082,9.38795984 L32.2581042,9.38795984 C32.3644964,8.82608693 32.492167,7.94816051 32.5879199,7.17558527 L32.8007043,5.64214045 C32.9070964,4.88127089 32.9496533,4.0618729 32.9177357,3.42976588 C33.2901082,3.4180602 33.5454494,3.38294314 33.8646259,3.3244147 C33.9071828,3.54682274 33.971018,4.36622073 33.8327082,5.20903009 C34.5348965,3.95652173 35.3541162,3.2541806 36.2052535,3.2541806 C37.2159791,3.2541806 37.407485,4.09698996 37.2266183,5.39632106 L36.8755241,7.94816051 C36.8116888,8.45150499 36.8436065,8.60367891 37.1415046,8.60367891 C37.311732,8.60367891 37.4500418,8.55685617 37.6521869,8.45150499 L37.5351556,9.23578593 C37.2691752,9.39966553 36.9393594,9.52842807 36.6308222,9.52842807 C35.9605515,9.52842807 35.7264888,9.18896319 35.886077,8.05351169 Z M40.6630852,9.61036786 C39.3438224,9.61036786 38.6629126,8.55685617 38.6629126,7.10535115 C38.6629126,5.1973244 39.9396185,3.2541806 41.5886971,3.2541806 C42.5143089,3.2541806 42.9930736,3.93311036 42.9930736,4.60033443 C42.9930736,5.79431437 42.0461833,6.68394648 39.6629989,7.11705684 C39.6842773,8.03010031 40.1417636,8.65050165 40.8333127,8.65050165 C41.3227166,8.65050165 41.6950892,8.49832774 42.7377324,7.73745817 L42.5249481,8.77926419 C41.9717088,9.29431436 41.2056852,9.61036786 40.6630852,9.61036786 Z M41.4291087,4.15551839 C40.5886107,4.15551839 39.8864224,5.13879597 39.7055557,6.4147157 C41.5886971,6.00501671 42.0993794,5.40802674 42.0993794,4.74080267 C42.0993794,4.41304347 41.8865951,4.15551839 41.4291087,4.15551839 Z M47.4083484,3.2541806 L47.291317,4.48327758 C47.2381209,4.47157189 47.1849249,4.47157189 47.1317288,4.47157189 C46.2805915,4.47157189 45.5358463,5.64214045 45.2060306,6.68394648 L45.0145247,8.05351169 C44.9400502,8.52173911 44.8762149,9.03678928 44.8549365,9.38795984 L43.8229325,9.38795984 C43.9293247,8.82608693 44.0569952,7.94816051 44.1527482,7.17558527 L44.3655325,5.64214045 C44.4719247,4.88127089 44.4932032,4.15551839 44.4825639,3.42976588 C44.8549365,3.4180602 45.1102776,3.38294314 45.4294542,3.3244147 C45.5039287,3.76923076 45.5039287,4.44816053 45.3975365,5.22073577 C46.0465288,3.94481604 46.504015,3.35953176 47.4083484,3.2541806 Z M49.2914897,9.61036786 C48.6744152,9.61036786 48.0147837,9.3411371 47.5466583,8.95484948 L47.7381641,7.86622071 C48.1318151,8.24080265 48.7808073,8.67391302 49.4085211,8.67391302 C49.9617604,8.67391302 50.2596584,8.22909697 50.2596584,7.80769229 C50.2596584,6.8244147 48.174372,6.50836118 48.174372,5.12709029 C48.174372,4.08528427 48.9723133,3.2541806 50.0149564,3.2541806 C50.6107526,3.2541806 51.0895173,3.46488294 51.4406114,3.72240802 L51.0682389,4.65886287 C50.7490624,4.40133778 50.3660506,4.20234113 49.9723996,4.20234113 C49.4510779,4.20234113 49.1425407,4.54180601 49.1425407,4.98662207 C49.1425407,5.8528428 51.2065487,6.18060199 51.2065487,7.60869563 C51.2065487,8.65050165 50.5256389,9.61036786 49.2914897,9.61036786 Z M57.2602627,5.39632106 L56.9091688,7.94816051 C56.8453334,8.45150499 56.8772509,8.60367891 57.1751492,8.60367891 C57.3453768,8.60367891 57.4836864,8.55685617 57.6858314,8.45150499 L57.5687998,9.23578593 C57.3028195,9.39966553 56.9730042,9.52842807 56.6644665,9.52842807 C55.9941961,9.52842807 55.7601331,9.18896319 55.9197213,8.05351169 L56.2601765,5.6070234 C56.377208,4.76421403 56.3878473,4.2257525 55.8346078,4.2257525 C54.898357,4.2257525 53.9621057,5.74749162 53.6854861,6.6605351 L53.483341,8.05351169 C53.4088665,8.52173911 53.3450312,9.03678928 53.3237528,9.38795984 L52.2917487,9.38795984 C52.3981409,8.82608693 52.5258115,7.94816051 52.6215645,7.17558527 L53.2705567,2.36454849 C53.4514234,0.994983271 53.4939802,0.678929764 53.5471763,0.140468227 C53.9408273,0.117056856 54.270643,0.0702341136 54.5898193,0 C54.5259844,0.304347826 54.4727881,0.714046821 54.2919215,2.02508361 C54.2919215,2.02508361 53.9408273,4.77591972 53.876992,5.1973244 C54.5685412,3.95652173 55.3877605,3.2541806 56.2388979,3.2541806 C57.2496234,3.2541806 57.4304903,4.09698996 57.2602627,5.39632106 Z M61.0052671,1.11204013 C61.0052671,1.56856187 60.6541727,1.97826087 60.2179652,1.97826087 C59.8455926,1.97826087 59.6647257,1.69732441 59.6647257,1.3812709 C59.6647257,0.924749162 60.0158197,0.503344481 60.4520276,0.503344481 C60.8031222,0.503344481 61.0052671,0.784280935 61.0052671,1.11204013 Z M58.8880632,8.05351169 L59.2072396,5.66555183 C59.388106,4.35451504 59.4306628,4.00334447 59.4838588,3.46488294 C59.8881494,3.44147156 60.2073259,3.39464882 60.5265024,3.3244147 C60.462667,3.66387959 60.4094709,4.05016721 60.228604,5.33779263 L59.87751,7.94816051 C59.8136746,8.45150499 59.8455926,8.60367891 60.1328512,8.60367891 C60.3137181,8.60367891 60.4520276,8.55685617 60.6541727,8.45150499 L60.5371417,9.23578593 C60.2711613,9.39966553 59.9413455,9.52842807 59.6328083,9.52842807 C58.9625373,9.52842807 58.7284749,9.18896319 58.8880632,8.05351169 Z M62.8245732,8.29933109 C63.0479964,8.54515048 63.3565341,8.67391302 63.7608241,8.67391302 C64.803467,8.67391302 65.8035538,6.97658861 65.8035538,5.47826086 C65.8035538,4.64715718 65.4950161,4.21404681 64.9949733,4.21404681 C64.3353417,4.21404681 63.2075846,5.48996654 62.9628829,7.29264212 L62.8245732,8.29933109 Z M61.2606082,12.173913 C61.388279,11.6588628 61.50531,10.6989966 61.6223415,9.89130429 L62.2287771,5.64214045 C62.3351692,4.88127089 62.377726,4.0618729 62.3458085,3.42976588 C62.7181811,3.4180602 62.9735222,3.38294314 63.2926987,3.3244147 C63.3352554,3.53511705 63.3990908,4.16722407 63.2926987,4.96321069 C63.8884949,3.85117056 64.750271,3.2424749 65.3779852,3.2424749 C66.314236,3.2424749 66.7930008,4.17892975 66.7930008,5.34949831 C66.7930008,7.30434781 65.3354279,9.59866218 63.6757106,9.59866218 C63.3352554,9.59866218 62.9841615,9.48160532 62.6862631,9.32943142 L62.5160355,10.7809364 C62.4522007,11.2491638 62.3990046,11.8812709 62.3883653,12.0685618 L61.2606082,12.173913 Z M74.5064326,3.27759196 L75.3150132,7.71404681 L76.049119,5.80602005 C76.2512641,5.26755851 76.7406681,4.02675584 76.9747311,3.34782608 C77.3683817,3.34782608 77.676919,3.3361204 78.0067347,3.30100334 L75.3682093,9.45819396 L74.6766603,9.52842807 C74.5915462,8.91973242 74.3894012,7.67892975 74.2510916,6.87123744 C74.2404523,6.81270902 73.9319151,5.11538461 73.9212758,5.09197323 L72.112609,9.45819396 L71.4104206,9.52842807 C71.3572245,8.97826085 71.1869969,8.10033443 71.0486874,7.40969898 L70.6869541,5.6070234 C70.5486439,4.91638795 70.3571383,3.95652173 70.2188286,3.44147156 L71.240193,3.27759196 L71.9849382,7.71404681 L72.7616013,5.79431437 C72.9850249,5.25585283 73.5063464,4.02675584 73.7616875,3.34782608 L74.5064326,3.27759196 Z M80.772931,1.11204013 C80.772931,1.56856187 80.4218371,1.97826087 79.9856292,1.97826087 C79.6132565,1.97826087 79.4323896,1.69732441 79.4323896,1.3812709 C79.4323896,0.924749162 79.7834841,0.503344481 80.2196921,0.503344481 C80.5707861,0.503344481 80.772931,0.784280935 80.772931,1.11204013 Z M78.6557271,8.05351169 L78.9749035,5.66555183 C79.1557705,4.35451504 79.1983273,4.00334447 79.2515233,3.46488294 C79.6558133,3.44147156 79.9749898,3.39464882 80.2941663,3.3244147 C80.2303309,3.66387959 80.1771348,4.05016721 79.9962685,5.33779263 L79.645174,7.94816051 C79.5813391,8.45150499 79.6132565,8.60367891 79.9005157,8.60367891 C80.081382,8.60367891 80.2196921,8.55685617 80.4218371,8.45150499 L80.3048056,9.23578593 C80.0388252,9.39966553 79.7090094,9.52842807 79.4004722,9.52842807 C78.7302018,9.52842807 78.4961389,9.18896319 78.6557271,8.05351169 Z M84.4328214,8.18227423 L84.2838725,9.03678928 C83.9966139,9.24749162 83.4327352,9.52842807 82.8582176,9.52842807 C82.0921938,9.52842807 81.8900488,9.00167222 82.0389977,7.90133777 L82.5177624,4.31939798 L81.5602329,4.31939798 L81.996441,3.39464882 L82.6667119,3.39464882 L82.9326923,2.24749163 L83.8051077,1.96655518 L83.6029627,3.39464882 L84.9647822,3.39464882 C84.9541434,3.39464882 84.805194,4.3076923 84.805194,4.31939798 L83.4859313,4.31939798 L83.0284452,7.73745817 C82.9433311,8.35785951 82.9965272,8.58026754 83.4008177,8.58026754 C83.7093549,8.58026754 84.166841,8.36956519 84.4328214,8.18227423 Z M90.6248455,5.39632106 L90.2737517,7.94816051 C90.2099163,8.45150499 90.2418337,8.60367891 90.539732,8.60367891 C90.7099591,8.60367891 90.8482693,8.55685617 91.0504142,8.45150499 L90.9333828,9.23578593 C90.6674023,9.39966553 90.3375865,9.52842807 90.0290494,9.52842807 C89.358779,9.52842807 89.1247159,9.18896319 89.2843042,8.05351169 L89.6247593,5.6070234 C89.7417908,4.76421403 89.7524296,4.2257525 89.1991906,4.2257525 C88.2629393,4.2257525 87.3266885,5.74749162 87.0500688,6.6605351 L86.8479237,8.05351169 C86.773449,8.52173911 86.7096142,9.03678928 86.6883355,9.38795984 L85.6563313,9.38795984 C85.7627235,8.82608693 85.8903943,7.94816051 85.9861471,7.17558527 L86.6351394,2.36454849 C86.8160063,0.994983271 86.858563,0.678929764 86.9117591,0.140468227 C87.3054098,0.117056856 87.6352256,0.0702341136 87.9544022,0 C87.8905668,0.304347826 87.8373707,0.714046821 87.6565043,2.02508361 C87.6565043,2.02508361 87.3054098,4.77591972 87.241575,5.1973244 C87.9331241,3.95652173 88.7523434,3.2541806 89.6034807,3.2541806 C90.6142062,3.2541806 90.7950731,4.09698996 90.6248455,5.39632106 Z" id="Inpartnershipwith"/>
                </g>
                <g id="OSPI_MainLogo_FullColor-Copy" transform="translate(0.000000, 24.347826)">
                    <polyline id="Fill-1" fill="#393A36" points="58.3028891 15.9423426 56.8993822 12.0509348 56.8371322 12.0509348 55.4134517 15.9423426 52.2041182 7.23464033 53.1326808 7.23464033 55.3927016 13.397789 55.4342016 13.397789 56.3938891 10.7729212 55.1350556 7.23464033 56.0837918 7.23464033 57.1783544 10.3280068 58.292514 13.408625 58.3340141 13.408625 60.531785 7.23464033 61.5122224 7.23464033 58.3028891 15.9423426"/>
                    <path d="M63.8396808,10.4076834 C62.7151461,10.4076834 61.952007,11.4460296 61.952007,12.6902602 C61.952007,13.9338535 62.7151461,14.9384168 63.8396808,14.9384168 C64.9647919,14.9384168 65.7285072,13.9338535 65.7285072,12.6902602 C65.7285072,11.4460296 64.9031182,10.4076834 63.8396808,10.4076834 Z M65.7798057,15.7938254 L65.7083335,14.801373 C65.3878613,15.4515344 64.5728473,15.9538161 63.8195071,15.9538161 C62.188903,15.9538161 61.0124932,14.584015 61.0124932,12.6902602 C61.0124932,10.829651 62.188903,9.41459362 63.8195071,9.41459362 C64.5728473,9.41459362 65.3982362,9.92834869 65.7083335,10.5670368 L65.7798057,9.57458434 L66.6063475,9.57458434 L66.6063475,15.7938254 L65.7798057,15.7938254 L65.7798057,15.7938254 Z" id="Fill-2" fill="#393A36"/>
                    <path d="M68.5320628,11.0693184 C68.5320628,11.5148703 68.8104585,11.7201173 69.4612016,11.9368378 C70.6889099,12.3364959 71.7926947,12.7922463 71.7926947,14.0938442 C71.7926947,15.109881 70.9874793,15.9538161 69.832396,15.9538161 C68.9136322,15.9538161 67.9844932,15.4062782 67.4893752,14.5502321 L68.1706668,13.9797472 C68.4392641,14.3902414 69.0686807,14.9721997 69.8421947,14.9721997 C70.3690141,14.9721997 70.8848821,14.6528556 70.8848821,14.0938442 C70.8848821,13.5004125 70.1932154,13.203378 69.3989516,12.9522371 C67.9643197,12.4958493 67.6340489,11.8571612 67.6236738,11.0584824 C67.6132988,10.0991754 68.4490627,9.41459362 69.5741738,9.41459362 C70.1834168,9.41459362 70.9563543,9.5631109 71.5863474,10.4191569 L70.8946807,10.9896418 C70.4923613,10.510307 69.9661182,10.3503163 69.5741738,10.3503163 C69.0790558,10.3503163 68.5320628,10.5670368 68.5320628,11.0693184" id="Fill-3" fill="#393A36"/>
                    <path d="M72.7500766,15.7938254 L72.7500766,7.23464033 L73.6371392,7.23464033 L73.6371392,10.6588243 C74.0290836,10.0194988 74.6798267,9.41459362 75.5674655,9.41459362 C76.6205281,9.41459362 77.7859864,10.0080253 77.7859864,12.3473319 L77.7859864,15.7938254 L76.8574239,15.7938254 L76.8574239,12.780773 C76.8574239,11.4230828 76.6510766,10.4076834 75.4642919,10.4076834 C74.4838545,10.4076834 73.8544378,11.3434061 73.6371392,12.0165145 L73.6371392,15.7938254 L72.7500766,15.7938254" id="Fill-4" fill="#393A36"/>
                    <path d="M79.1162894,15.7944628 L80.3339544,15.7944628 L80.3339544,9.57458434 L79.1162894,9.57458434 L79.1162894,15.7944628 Z M79.7323835,7.46347167 C80.170376,7.46347167 80.5258149,7.75986883 80.5258149,8.12510663 C80.5258149,8.4903444 80.170376,8.78674157 79.7323835,8.78674157 C79.294391,8.78674157 78.9381876,8.4903444 78.9381876,8.12510663 C78.9381876,7.75986883 79.294391,7.46347167 79.7323835,7.46347167 L79.7323835,7.46347167 Z" id="Fill-5" fill="#393A36"/>
                    <path d="M84.2720905,9.41459362 C85.325153,9.41459362 86.4808128,9.89456578 86.4808128,12.3473319 L86.4808128,15.7938254 L85.5626253,15.7938254 L85.5626253,12.780773 C85.5626253,11.5378171 85.3557016,10.4191569 84.1689169,10.4191569 C83.1890557,10.4191569 82.5596392,11.3434061 82.3429169,12.0165145 L82.3429169,15.7938254 L81.424153,15.7938254 L81.424153,9.57458434 L82.2599168,9.57458434 L82.3429169,10.6588243 C82.7659863,9.99655191 83.3337294,9.41459362 84.2720905,9.41459362" id="Fill-6" fill="#393A36"/>
                    <path d="M90.2129308,10.4076834 C89.0883961,10.4076834 88.3246808,11.4460296 88.3246808,12.6902602 C88.3246808,13.9338535 89.0883961,14.9384168 90.2129308,14.9384168 C91.3374656,14.9384168 92.1017573,13.9338535 92.1017573,12.6902602 C92.1017573,11.4460296 91.275792,10.4076834 90.2129308,10.4076834 Z M92.0913822,14.801373 C91.7714865,15.4515344 90.9564725,15.9538161 90.2031322,15.9538161 C88.5719516,15.9538161 87.3955419,14.584015 87.3955419,12.6902602 C87.3955419,10.829651 88.5719516,9.41459362 90.2031322,9.41459362 C90.9564725,9.41459362 91.7812851,9.92834869 92.0913822,10.5670368 L92.1634309,9.57458434 L92.9888197,9.57458434 L92.9888197,15.543322 C92.9888197,17.3574 91.7092364,18.8068778 90.0682572,18.8068778 C89.0883961,18.8068778 88.3246808,18.29376 87.8606878,17.494444 L88.5310281,16.923959 C88.9229725,17.494444 89.4290419,17.7914784 90.0682572,17.7914784 C91.1628197,17.7914784 92.0913822,16.7531323 92.0913822,15.543322 L92.0913822,14.801373 L92.0913822,14.801373 Z" id="Fill-7" fill="#393A36"/>
                    <path d="M95.2667086,8.14741609 L95.2667086,9.57458434 L96.8967364,9.57458434 L96.8967364,10.5555633 L95.2667086,10.5555633 L95.2667086,14.1391006 C95.2667086,14.7210588 95.575653,14.9721997 95.8650002,14.9721997 C96.1952712,14.9721997 96.3082433,14.801373 96.5145906,14.5279227 L97.2581322,15.1436638 C96.8661878,15.7141487 96.4949933,15.9652896 95.8851739,15.9652896 C95.059785,15.9652896 94.3784934,15.4062782 94.3784934,14.2531976 L94.3784934,10.5555633 L93.6972018,10.5555633 L93.6972018,9.57458434 L94.3784934,9.57458434 L94.3784934,8.14741609 L95.2667086,8.14741609" id="Fill-8" fill="#393A36"/>
                    <path d="M100.372361,14.9384168 C101.496896,14.9384168 102.39491,13.9338535 102.39491,12.6902602 C102.39491,11.4460296 101.496896,10.4076834 100.372361,10.4076834 C99.2478267,10.4076834 98.3601875,11.4460296 98.3601875,12.6902602 C98.3601875,13.9338535 99.2478267,14.9384168 100.372361,14.9384168 Z M100.372361,9.41459362 C102.002966,9.41459362 103.313674,10.8870182 103.313674,12.6902602 C103.313674,14.4935024 102.002966,15.9538161 100.372361,15.9538161 C98.7423334,15.9538161 97.4414241,14.4935024 97.4414241,12.6902602 C97.4414241,10.8870182 98.7423334,9.41459362 100.372361,9.41459362 L100.372361,9.41459362 Z" id="Fill-9" fill="#393A36"/>
                    <path d="M107.148965,9.41459362 C108.202028,9.41459362 109.357111,9.89456578 109.357111,12.3473319 L109.357111,15.7938254 L108.438923,15.7938254 L108.438923,12.780773 C108.438923,11.5378171 108.232577,10.4191569 107.045792,10.4191569 C106.065931,10.4191569 105.435938,11.3434061 105.219792,12.0165145 L105.219792,15.7938254 L104.301028,15.7938254 L104.301028,9.57458434 L105.136792,9.57458434 L105.219792,10.6588243 C105.642862,9.99655191 106.210604,9.41459362 107.148965,9.41459362" id="Fill-10" fill="#393A36"/>
                    <path d="M117.835216,14.9154699 C119.558619,14.9154699 120.890077,13.3404218 120.890077,11.5263437 C120.890077,9.61984068 119.558619,8.10215974 117.835216,8.10215974 C116.122188,8.10215974 114.801104,9.61984068 114.801104,11.5263437 C114.801104,13.3404218 116.122188,14.9154699 117.835216,14.9154699 Z M117.835216,7.06381357 C120.074486,7.06381357 121.829014,9.04935583 121.829014,11.5263437 C121.829014,13.9905833 120.074486,15.9652896 117.835216,15.9652896 C115.60632,15.9652896 113.862167,13.9905833 113.862167,11.5263437 C113.862167,9.04935583 115.60632,7.06381357 117.835216,7.06381357 L117.835216,7.06381357 Z" id="Fill-11" fill="#393A36"/>
                    <path d="M123.072285,15.7938254 L123.072285,10.5555633 L122.298771,10.5555633 L122.298771,9.57458434 L123.072285,9.57458434 L123.072285,8.72937438 C123.072285,7.57756864 123.857326,7.06381357 124.682139,7.06381357 C125.291383,7.06381357 125.8695,7.31495439 126.261445,7.88543924 L125.559403,8.46739754 C125.353056,8.19330985 124.99166,8.04542996 124.661389,8.04542996 C124.392792,8.04542996 123.981251,8.22773016 123.981251,8.72937438 L123.981251,9.57458434 L125.497153,9.57458434 L125.497153,10.5555633 L123.981251,10.5555633 L123.981251,15.7938254 L123.072285,15.7938254" id="Fill-12" fill="#393A36"/>
                    <path d="M126.620535,15.7938254 L126.620535,10.5555633 L125.847021,10.5555633 L125.847021,9.57458434 L126.620535,9.57458434 L126.620535,8.72937438 C126.620535,7.57756864 127.405577,7.06381357 128.230966,7.06381357 C128.839633,7.06381357 129.41775,7.31495439 129.809695,7.88543924 L129.107653,8.46739754 C128.901306,8.19330985 128.53991,8.04542996 128.209639,8.04542996 C127.941618,8.04542996 127.528924,8.22773016 127.528924,8.72937438 L127.528924,9.57458434 L129.04598,9.57458434 L129.04598,10.5555633 L127.528924,10.5555633 L127.528924,15.7938254 L126.620535,15.7938254" id="Fill-13" fill="#393A36"/>
                    <path d="M130.212485,15.7944628 L131.431502,15.7944628 L131.431502,9.57458434 L130.212485,9.57458434 L130.212485,15.7944628 Z M130.828877,7.46347167 C131.266315,7.46347167 131.62269,7.75986883 131.62269,8.12510663 C131.62269,8.4903444 131.266315,8.78674157 130.828877,8.78674157 C130.389909,8.78674157 130.035063,8.4903444 130.035063,8.12510663 C130.035063,7.75986883 130.389909,7.46347167 130.828877,7.46347167 L130.828877,7.46347167 Z" id="Fill-14" fill="#393A36"/>
                    <path d="M134.997195,14.9498903 C135.636986,14.9498903 136.14248,14.6528556 136.534424,14.0823707 L137.205917,14.6528556 C136.741347,15.4515344 135.978209,15.9652896 134.997195,15.9652896 C133.356215,15.9652896 132.066257,14.5158118 132.066257,12.7017337 C132.066257,10.8755448 133.346417,9.41459362 134.976445,9.41459362 C135.905584,9.41459362 136.648549,9.88245494 137.112542,10.6129305 L136.431827,11.1834153 C136.018556,10.6588243 135.533813,10.4076834 134.976445,10.4076834 C133.862285,10.4076834 132.975222,11.4689765 132.975222,12.7017337 C132.975222,13.9797472 133.903785,14.9498903 134.997195,14.9498903" id="Fill-15" fill="#393A36"/>
                    <path d="M138.596167,11.9483112 L141.887924,11.9483112 C141.682153,11.0125886 141.072334,10.4076834 140.318994,10.4076834 C139.452104,10.4076834 138.791562,11.0125886 138.596167,11.9483112 Z M142.806112,12.5876367 L142.806112,12.8725605 L138.565042,12.8725605 C138.565042,14.0020567 139.349507,14.9498903 140.318994,14.9498903 C141.11441,14.9498903 141.608952,14.6643291 141.908674,14.1735209 L142.620514,14.7784261 C142.176695,15.4859547 141.37148,15.9652896 140.318994,15.9652896 C138.698764,15.9652896 137.646278,14.4476086 137.646278,12.7017337 C137.646278,10.8755448 138.688966,9.41459362 140.318994,9.41459362 C141.774375,9.41459362 142.806112,10.7729212 142.806112,12.5876367 L142.806112,12.5876367 Z" id="Fill-16" fill="#393A36"/>
                    <path d="M149.798285,14.9384168 C150.922243,14.9384168 151.820257,13.9338535 151.820257,12.6902602 C151.820257,11.4460296 150.922243,10.4076834 149.798285,10.4076834 C148.673174,10.4076834 147.785535,11.4460296 147.785535,12.6902602 C147.785535,13.9338535 148.673174,14.9384168 149.798285,14.9384168 Z M149.798285,9.41459362 C151.428313,9.41459362 152.739021,10.8870182 152.739021,12.6902602 C152.739021,14.4935024 151.428313,15.9538161 149.798285,15.9538161 C148.167681,15.9538161 146.866772,14.4935024 146.866772,12.6902602 C146.866772,10.8870182 148.167681,9.41459362 149.798285,9.41459362 L149.798285,9.41459362 Z" id="Fill-17" fill="#393A36"/>
                    <path d="M153.828972,15.7938254 L153.828972,10.5555633 L153.055459,10.5555633 L153.055459,9.57458434 L153.828972,9.57458434 L153.828972,8.72937438 C153.828972,7.57756864 154.614015,7.06381357 155.439403,7.06381357 C156.04807,7.06381357 156.626188,7.31495439 157.018132,7.88543924 L156.316091,8.46739754 C156.109743,8.19330985 155.748348,8.04542996 155.418653,8.04542996 C155.150056,8.04542996 154.737938,8.22773016 154.737938,8.72937438 L154.737938,9.57458434 L156.254417,9.57458434 L156.254417,10.5555633 L154.737938,10.5555633 L154.737938,15.7938254 L153.828972,15.7938254" id="Fill-18" fill="#393A36"/>
                    <path d="M161.678813,9.20934656 C161.678813,9.77983141 161.781986,10.2362193 163.268493,10.829651 C164.589577,11.3548795 165.651862,11.9712581 165.651862,13.522722 C165.651862,14.7784261 164.702549,15.9652896 163.257542,15.9652896 C162.00966,15.9652896 161.17332,15.2692343 160.543903,14.1849944 L161.25632,13.5686157 C161.596389,14.1391006 162.256931,14.9721997 163.278292,14.9269433 C164.042008,14.892523 164.682376,14.2876179 164.682376,13.5112485 C164.682376,12.6214196 163.959584,12.222399 162.720924,11.7086438 C161.534716,11.2178356 160.739876,10.6129305 160.739876,9.22081998 C160.739876,8.21689413 161.544514,7.06381357 162.938223,7.06381357 C163.763611,7.06381357 164.661049,7.23464033 165.425341,8.28509734 L164.671424,8.90083854 C164.145757,8.26151306 163.639688,8.07921286 162.938223,8.07921286 C162.123209,8.07921286 161.678813,8.65033513 161.678813,9.20934656" id="Fill-19" fill="#393A36"/>
                    <path d="M168.703264,15.9538161 C167.650778,15.9538161 166.484167,15.3603844 166.484167,13.0210778 L166.484167,9.57458434 L167.403508,9.57458434 L167.403508,12.5876367 C167.403508,13.9453269 167.619653,14.9613636 168.807015,14.9613636 C169.786875,14.9613636 170.396119,14.0250036 170.61284,13.3518952 L170.61284,9.57458434 L171.531606,9.57458434 L171.531606,15.7938254 L170.684313,15.7938254 L170.61284,14.7102229 C170.189772,15.3718578 169.539604,15.9538161 168.703264,15.9538161" id="Fill-20" fill="#393A36"/>
                    <path d="M175.789966,14.9613636 C176.914501,14.9613636 177.678792,13.9223801 177.678792,12.6787869 C177.678792,11.4345562 176.914501,10.4306303 175.789966,10.4306303 C174.664855,10.4306303 173.901139,11.4345562 173.901139,12.6787869 C173.901139,13.9223801 174.726529,14.9613636 175.789966,14.9613636 Z M173.84984,9.57458434 L173.922466,10.5670368 C174.241785,9.91687525 175.0568,9.41459362 175.810715,9.41459362 C177.44132,9.41459362 178.61773,10.7843947 178.61773,12.6787869 C178.61773,14.5387586 177.44132,15.9538161 175.810715,15.9538161 C175.0568,15.9538161 174.231411,15.4406985 173.922466,14.801373 L173.922466,18.6468871 L173.024453,18.6468871 L173.024453,9.57458434 L173.84984,9.57458434 L173.84984,9.57458434 Z" id="Fill-21" fill="#393A36"/>
                    <path d="M180.192424,11.9483112 L183.484181,11.9483112 C183.278411,11.0125886 182.669167,10.4076834 181.916403,10.4076834 C181.048939,10.4076834 180.388396,11.0125886 180.192424,11.9483112 Z M184.403521,12.5876367 L184.403521,12.8725605 L180.161298,12.8725605 C180.161298,14.0020567 180.945765,14.9498903 181.916403,14.9498903 C182.710667,14.9498903 183.206363,14.6643291 183.505507,14.1735209 L184.216771,14.7784261 C183.773529,15.4859547 182.968313,15.9652896 181.916403,15.9652896 C180.296174,15.9652896 179.243689,14.4476086 179.243689,12.7017337 C179.243689,10.8755448 180.285223,9.41459362 181.916403,9.41459362 C183.370633,9.41459362 184.403521,10.7729212 184.403521,12.5876367 L184.403521,12.5876367 Z" id="Fill-22" fill="#393A36"/>
                    <path d="M188.228439,9.41459362 L188.228439,10.5447273 C187.135029,10.5447273 186.505612,11.3434061 186.28889,12.0165145 L186.28889,15.7938254 L185.40125,15.7938254 L185.40125,9.57458434 L186.216265,9.57458434 L186.28889,10.6588243 C186.628959,9.99655191 187.279702,9.41459362 188.228439,9.41459362" id="Fill-23" fill="#393A36"/>
                    <path d="M189.044603,15.7944628 L190.263032,15.7944628 L190.263032,9.57458434 L189.044603,9.57458434 L189.044603,15.7944628 Z M189.659931,7.46347167 C190.097925,7.46347167 190.454127,7.75986883 190.454127,8.12510663 C190.454127,8.4903444 190.097925,8.78674157 189.659931,8.78674157 C189.22194,8.78674157 188.8665,8.4903444 188.8665,8.12510663 C188.8665,7.75986883 189.22194,7.46347167 189.659931,7.46347167 L189.659931,7.46347167 Z" id="Fill-24" fill="#393A36"/>
                    <path d="M194.200404,9.41459362 C195.252889,9.41459362 196.409127,9.89456578 196.409127,12.3473319 L196.409127,15.7938254 L195.490361,15.7938254 L195.490361,12.780773 C195.490361,11.5378171 195.284014,10.4191569 194.09723,10.4191569 C193.116793,10.4191569 192.487376,11.3434061 192.270654,12.0165145 L192.270654,15.7938254 L191.352466,15.7938254 L191.352466,9.57458434 L192.18823,9.57458434 L192.270654,10.6588243 C192.693723,9.99655191 193.261466,9.41459362 194.200404,9.41459362" id="Fill-25" fill="#393A36"/>
                    <path d="M198.613813,8.14741609 L198.613813,9.57458434 L200.244418,9.57458434 L200.244418,10.5555633 L198.613813,10.5555633 L198.613813,14.1391006 C198.613813,14.7210588 198.923334,14.9721997 199.21268,14.9721997 C199.542953,14.9721997 199.655924,14.801373 199.862271,14.5279227 L200.605813,15.1436638 C200.213293,15.7141487 199.842097,15.9652896 199.232856,15.9652896 C198.407466,15.9652896 197.726175,15.4062782 197.726175,14.2531976 L197.726175,10.5555633 L197.044882,10.5555633 L197.044882,9.57458434 L197.726175,9.57458434 L197.726175,8.14741609 L198.613813,8.14741609" id="Fill-26" fill="#393A36"/>
                    <path d="M201.831215,11.9483112 L205.123549,11.9483112 C204.917202,11.0125886 204.308536,10.4076834 203.555196,10.4076834 C202.688305,10.4076834 202.027765,11.0125886 201.831215,11.9483112 Z M206.042314,12.5876367 L206.042314,12.8725605 L201.800667,12.8725605 C201.800667,14.0020567 202.584556,14.9498903 203.555196,14.9498903 C204.349458,14.9498903 204.845729,14.6643291 205.144875,14.1735209 L205.856139,14.7784261 C205.412897,15.4859547 204.607682,15.9652896 203.555196,15.9652896 C201.934966,15.9652896 200.88248,14.4476086 200.88248,12.7017337 C200.88248,10.8755448 201.924591,9.41459362 203.555196,9.41459362 C205.010001,9.41459362 206.042314,10.7729212 206.042314,12.5876367 L206.042314,12.5876367 Z" id="Fill-27" fill="#393A36"/>
                    <path d="M209.887979,9.41459362 C210.940466,9.41459362 212.096702,9.89456578 212.096702,12.3473319 L212.096702,15.7938254 L211.177938,15.7938254 L211.177938,12.780773 C211.177938,11.5378171 210.971591,10.4191569 209.784805,10.4191569 C208.804368,10.4191569 208.174951,11.3434061 207.95823,12.0165145 L207.95823,15.7938254 L207.040618,15.7938254 L207.040618,9.57458434 L207.875807,9.57458434 L207.95823,10.6588243 C208.381298,9.99655191 208.949041,9.41459362 209.887979,9.41459362" id="Fill-28" fill="#393A36"/>
                    <path d="M215.839195,10.4076834 C214.714084,10.4076834 213.950945,11.4460296 213.950945,12.6902602 C213.950945,13.9338535 214.714084,14.9384168 215.839195,14.9384168 C216.96373,14.9384168 217.728021,13.9338535 217.728021,12.6902602 C217.728021,11.4460296 216.902056,10.4076834 215.839195,10.4076834 Z M217.778743,15.7938254 L217.706695,14.801373 C217.3868,15.4515344 216.571785,15.9538161 215.818446,15.9538161 C214.187841,15.9538161 213.012008,14.584015 213.012008,12.6902602 C213.012008,10.829651 214.187841,9.41459362 215.818446,9.41459362 C216.571785,9.41459362 217.39775,9.92834869 217.706695,10.5670368 L217.706695,7.23464033 L218.605285,7.23464033 L218.605285,15.7938254 L217.778743,15.7938254 L217.778743,15.7938254 Z" id="Fill-29" fill="#393A36"/>
                    <path d="M220.603625,11.9483112 L223.895958,11.9483112 C223.689612,11.0125886 223.079793,10.4076834 222.327029,10.4076834 C221.459562,10.4076834 220.799599,11.0125886 220.603625,11.9483112 Z M224.814147,12.5876367 L224.814147,12.8725605 L220.572501,12.8725605 C220.572501,14.0020567 221.356966,14.9498903 222.327029,14.9498903 C223.121868,14.9498903 223.616411,14.6643291 223.916132,14.1735209 L224.628549,14.7784261 C224.184154,15.4859547 223.379514,15.9652896 222.327029,15.9652896 C220.706798,15.9652896 219.653737,14.4476086 219.653737,12.7017337 C219.653737,10.8755448 220.696425,9.41459362 222.327029,9.41459362 C223.78241,9.41459362 224.814147,10.7729212 224.814147,12.5876367 L224.814147,12.5876367 Z" id="Fill-30" fill="#393A36"/>
                    <path d="M228.659813,9.41459362 C229.712876,9.41459362 230.867959,9.89456578 230.867959,12.3473319 L230.867959,15.7938254 L229.950348,15.7938254 L229.950348,12.780773 C229.950348,11.5378171 229.743424,10.4191569 228.55664,10.4191569 C227.576779,10.4191569 226.947361,11.3434061 226.730639,12.0165145 L226.730639,15.7938254 L225.811876,15.7938254 L225.811876,9.57458434 L226.647639,9.57458434 L226.730639,10.6588243 C227.153709,9.99655191 227.720876,9.41459362 228.659813,9.41459362" id="Fill-31" fill="#393A36"/>
                    <path d="M233.073223,8.14741609 L233.073223,9.57458434 L234.703828,9.57458434 L234.703828,10.5555633 L233.073223,10.5555633 L233.073223,14.1391006 C233.073223,14.7210588 233.382745,14.9721997 233.672092,14.9721997 C234.001786,14.9721997 234.115911,14.801373 234.322258,14.5279227 L235.064647,15.1436638 C234.672703,15.7141487 234.301507,15.9652896 233.692841,15.9652896 C232.866876,15.9652896 232.18616,15.4062782 232.18616,14.2531976 L232.18616,10.5555633 L231.504868,10.5555633 L231.504868,9.57458434 L232.18616,9.57458434 L232.18616,8.14741609 L233.073223,8.14741609" id="Fill-32" fill="#393A36"/>
                    <path d="M241.779577,14.9384168 C242.904112,14.9384168 243.801548,13.9338535 243.801548,12.6902602 C243.801548,11.4460296 242.904112,10.4076834 241.779577,10.4076834 C240.655042,10.4076834 239.766827,11.4460296 239.766827,12.6902602 C239.766827,13.9338535 240.655042,14.9384168 241.779577,14.9384168 Z M241.779577,9.41459362 C243.409605,9.41459362 244.720891,10.8870182 244.720891,12.6902602 C244.720891,14.4935024 243.409605,15.9538161 241.779577,15.9538161 C240.149549,15.9538161 238.84864,14.4935024 238.84864,12.6902602 C238.84864,10.8870182 240.149549,9.41459362 241.779577,9.41459362 L241.779577,9.41459362 Z" id="Fill-33" fill="#393A36"/>
                    <path d="M245.810841,15.7938254 L245.810841,10.5555633 L245.037326,10.5555633 L245.037326,9.57458434 L245.810841,9.57458434 L245.810841,8.72937438 C245.810841,7.57756864 246.595882,7.06381357 247.420696,7.06381357 C248.029362,7.06381357 248.608057,7.31495439 249,7.88543924 L248.297959,8.46739754 C248.091035,8.19330985 247.730216,8.04542996 247.399945,8.04542996 C247.131349,8.04542996 246.719231,8.22773016 246.719231,8.72937438 L246.719231,9.57458434 L248.235709,9.57458434 L248.235709,10.5555633 L246.719231,10.5555633 L246.719231,15.7938254 L245.810841,15.7938254" id="Fill-34" fill="#393A36"/>
                    <path d="M59.8608682,28.7301271 C59.8608682,27.5292406 59.143264,26.8567696 58.1115279,26.8567696 L55.7177848,26.8567696 L55.7177848,30.807457 L58.1115279,30.807457 C59.1611321,30.807457 59.8608682,29.9112538 59.8608682,28.7301271 Z M62.2915002,28.7301271 C62.2915002,31.5404822 60.4136251,33.3118536 58.2959723,33.3118536 L55.7177848,33.3118536 L55.7177848,38.6062081 L53.3793751,38.6062081 L53.3793751,24.352373 L58.2959723,24.352373 C60.4136251,24.352373 62.2915002,25.9000124 62.2915002,28.7301271 L62.2915002,28.7301271 Z" id="Fill-35" fill="#393A36"/>
                    <path d="M75.2573682,32.4978768 C75.2573682,36.8756311 72.9183821,38.708194 70.0831252,38.708194 C67.2472919,38.708194 64.8719932,36.8756311 64.8719932,32.4978768 L64.8719932,24.352373 L67.4311599,24.352373 L67.4311599,32.2939046 C67.4311599,34.6153636 68.3153405,36.0202225 70.0831252,36.0202225 C71.8509099,36.0202225 72.6976252,34.6153636 72.6976252,32.2939046 L72.6976252,24.352373 L75.2573682,24.352373 L75.2573682,32.4978768" id="Fill-36" fill="#393A36"/>
                    <path d="M85.1124655,34.3094053 C85.1124655,33.3934424 84.615042,32.3754936 82.8835697,32.3754936 L80.7843613,32.3754936 L80.7843613,36.2037975 L82.6997016,36.2037975 C84.4305974,36.2037975 85.1124655,35.3891833 85.1124655,34.3094053 Z M80.7843613,29.9928428 L82.552146,29.9928428 C84.1908197,29.9928428 84.5228197,29.1578314 84.5228197,28.3840116 C84.5228197,27.38646 83.9337502,26.755421 82.552146,26.755421 L80.7843613,26.755421 L80.7843613,29.9928428 Z M87.5788336,34.4929803 C87.5788336,37.1809518 85.6825142,38.6062081 83.2518822,38.6062081 L78.4275073,38.6062081 L78.4275073,24.352373 L82.8651252,24.352373 C84.7625976,24.352373 86.9350072,25.5124651 86.9350072,28.0582935 C86.9350072,29.2394204 86.4560281,30.3185609 85.4617573,30.8890458 L85.4617573,31.0515861 C86.6589169,31.438496 87.5788336,32.64002 87.5788336,34.4929803 L87.5788336,34.4929803 Z" id="Fill-37" fill="#393A36"/>
                    <polyline id="Fill-38" fill="#393A36" points="99.4218962 35.9386335 99.4218962 38.6062081 90.5645281 38.6062081 90.5645281 24.352373 93.1427156 24.352373 93.1427156 35.9386335 99.4218962 35.9386335"/>
                    <polygon id="Fill-39" fill="#393A36" points="102.371278 38.6062081 104.930444 38.6062081 104.930444 24.352373 102.371278 24.352373"/>
                    <path d="M118.742452,34.3304399 C118.005827,37.059206 115.944084,38.708194 113.458119,38.708194 C110.087973,38.708194 107.639472,35.6537098 107.639472,31.4792904 C107.639472,27.3048711 110.069528,24.2503868 113.439674,24.2503868 C115.907195,24.2503868 118.005827,25.9000124 118.742452,28.6287785 L115.961375,28.6287785 C115.482972,27.4884462 114.617813,26.9383584 113.475986,26.9383584 C111.376778,26.9383584 110.180195,28.8321133 110.180195,31.4792904 C110.180195,34.1264676 111.395223,36.0202225 113.512875,36.0202225 C114.654702,36.0202225 115.482972,35.4707722 115.961375,34.3304399 L118.742452,34.3304399" id="Fill-40" fill="#393A36"/>
                    <polygon id="Fill-41" fill="#393A36" points="126.848785 38.6062081 129.408529 38.6062081 129.408529 24.352373 126.848785 24.352373"/>
                    <polyline id="Fill-42" fill="#393A36" points="143.219959 24.352373 143.219959 38.6062081 140.807771 38.6062081 135.707306 29.4019608 135.467528 29.4019608 135.467528 38.6062081 133.055341 38.6062081 133.055341 24.352373 135.486549 24.352373 140.587014 33.3118536 140.807771 33.3118536 140.807771 24.352373 143.219959 24.352373"/>
                    <path d="M151.011584,38.708194 C148.194195,38.708194 146.242542,36.6716588 146.242542,34.0047218 L148.636861,34.0047218 C148.857618,35.7760932 150.182737,36.1834003 150.993716,36.1834003 C151.619674,36.1834003 152.87159,35.9386335 152.87159,34.6153636 C152.87159,33.4138397 151.821986,32.9249437 150.772382,32.4774796 C149.042063,31.7240572 146.592986,30.807457 146.592986,28.0990881 C146.592986,25.6960401 148.489306,24.2299896 150.790827,24.2299896 C153.46066,24.2299896 154.951778,26.2053333 154.951778,28.0174991 L152.5955,28.0174991 C152.46639,27.2232821 151.675007,26.713989 150.753938,26.713989 C149.869757,26.713989 149.133708,27.2028851 149.133708,28.0990881 C149.133708,28.9748938 149.85189,29.3210093 151.103806,29.9520482 C152.448521,30.6238819 155.320667,31.4187362 155.320667,34.6351235 C155.320667,37.3033354 153.35057,38.708194 151.011584,38.708194" id="Fill-43" fill="#393A36"/>
                    <polyline id="Fill-44" fill="#393A36" points="166.315861 26.877167 162.836202 26.877167 162.836202 38.6062081 160.368104 38.6062081 160.368104 26.877167 156.888445 26.877167 156.888445 24.352373 166.315861 24.352373 166.315861 26.877167"/>
                    <path d="M171.161563,30.8482514 L173.186995,30.8482514 C174.236598,30.8482514 174.935758,29.9520482 174.935758,28.7709217 C174.935758,27.5904324 174.218154,26.897564 173.186995,26.897564 L171.161563,26.897564 L171.161563,30.8482514 Z M175.433181,38.6062081 L172.68957,33.3730452 L171.161563,33.3730452 L171.161563,38.6062081 L168.822577,38.6062081 L168.822577,24.352373 L173.371438,24.352373 C175.488515,24.352373 177.366965,25.9204096 177.366965,28.7301271 C177.366965,30.6850736 176.372696,32.1721587 175.046424,32.8841493 L178.158349,38.6062081 L175.433181,38.6062081 L175.433181,38.6062081 Z" id="Fill-45" fill="#393A36"/>
                    <path d="M190.517277,32.4978768 C190.517277,36.8756311 188.178292,38.708194 185.343034,38.708194 C182.506625,38.708194 180.131903,36.8756311 180.131903,32.4978768 L180.131903,24.352373 L182.691071,24.352373 L182.691071,32.2939046 C182.691071,34.6153636 183.57525,36.0202225 185.343034,36.0202225 C187.110243,36.0202225 187.957534,34.6153636 187.957534,32.2939046 L187.957534,24.352373 L190.517277,24.352373 L190.517277,32.4978768" id="Fill-46" fill="#393A36"/>
                    <path d="M203.813995,34.3304399 C203.078522,37.059206 201.015626,38.708194 198.529661,38.708194 C195.160092,38.708194 192.711014,35.6537098 192.711014,31.4792904 C192.711014,27.3048711 195.142223,24.2503868 198.511215,24.2503868 C200.978737,24.2503868 203.078522,25.9000124 203.813995,28.6287785 L201.034646,28.6287785 C200.555091,27.4884462 199.689932,26.9383584 198.54868,26.9383584 C196.449472,26.9383584 195.251736,28.8321133 195.251736,31.4792904 C195.251736,34.1264676 196.467918,36.0202225 198.58557,36.0202225 C199.727397,36.0202225 200.555091,35.4707722 201.034646,34.3304399 L203.813995,34.3304399" id="Fill-47" fill="#393A36"/>
                    <polyline id="Fill-48" fill="#393A36" points="214.73714 26.877167 211.256326 26.877167 211.256326 38.6062081 208.789383 38.6062081 208.789383 26.877167 205.309147 26.877167 205.309147 24.352373 214.73714 24.352373 214.73714 26.877167"/>
                    <polygon id="Fill-49" fill="#393A36" points="217.243855 38.6062081 219.803021 38.6062081 219.803021 24.352373 217.243855 24.352373"/>
                    <path d="M232.38098,31.4792904 C232.38098,28.8321133 230.852973,26.9383584 228.624653,26.9383584 C226.415354,26.9383584 224.887347,28.8321133 224.887347,31.4792904 C224.887347,34.1264676 226.415354,36.0202225 228.643674,36.0202225 C230.870841,36.0202225 232.38098,34.1264676 232.38098,31.4792904 Z M222.327606,31.4792904 C222.327606,27.3048711 225.255084,24.2503868 228.624653,24.2503868 C231.994799,24.2503868 234.922279,27.3048711 234.922279,31.4792904 C234.922279,35.6537098 232.012668,38.708194 228.643674,38.708194 C225.255084,38.708194 222.327606,35.6537098 222.327606,31.4792904 L222.327606,31.4792904 Z" id="Fill-50" fill="#393A36"/>
                    <g id="Group-54">
                        <polyline id="Fill-51" fill="#393A36" points="247.520987 24.352373 247.520987 38.6062081 245.108799 38.6062081 240.007181 29.4019608 239.768556 29.4019608 239.768556 38.6062081 237.356368 38.6062081 237.356368 24.352373 239.786423 24.352373 244.887466 33.3118536 245.108799 33.3118536 245.108799 24.352373 247.520987 24.352373"/>
                        <path d="M30.0408126,40.8180319 C31.8760347,34.3763336 35.1309029,28.6249539 39.4059792,24.0228304 C39.0359376,31.1975538 35.3597292,37.4059587 30.0408126,40.8180319 Z M13.4713612,42.0405904 C11.5150972,33.9040104 7.42561808,26.7235502 1.89920138,21.281316 C1.99776391,19.8057043 2.23523612,18.3721619 2.59893751,16.997899 C9.04700002,22.7282441 14.0022154,30.5371936 16.4772292,39.6502908 L16.6743542,40.3756671 L19.1130557,40.3756671 L19.2946181,39.6171454 C19.6767639,38.0127763 20.1309583,36.4472892 20.6404862,34.9143106 C21.150014,36.4472892 21.6047847,38.0127763 21.9869306,39.6171454 L22.1679168,40.3756671 L24.6071945,40.3756671 L24.8043196,39.6502908 C27.278757,30.5371936 32.2339723,22.7282441 38.6820348,16.997899 C39.0463125,18.3727993 39.2832085,19.8057043 39.3823474,21.2819534 C33.8559306,26.7241875 29.7676043,33.9040104 27.810764,42.0399532 C25.5997361,43.0528027 23.1789028,43.6150012 20.6404862,43.6150012 C18.102646,43.6150012 15.682389,43.0528027 13.4713612,42.0405904 Z M1.87499306,24.0221928 C6.15064585,28.6243167 9.4060903,34.3756962 11.2413125,40.8186693 C5.92181947,37.4065963 2.24503474,31.1975538 1.87499306,24.0221928 Z M20.6404862,2.03653531 C26.5553889,2.03653531 31.8374167,5.07572166 35.2859515,9.81297688 C34.4058056,10.5491892 33.540646,11.3070735 32.7071877,12.108302 C29.7197641,8.18438605 25.3034723,5.87567529 20.6393335,5.87567529 C15.9751945,5.87567529 11.5594792,8.18374865 8.57263196,12.1070272 C7.73975003,11.3064361 6.87516668,10.5485518 5.99502085,9.81297688 C9.44355558,5.07572166 14.7255834,2.03653531 20.6404862,2.03653531 Z M36.367257,11.4555908 C37.0214585,12.5583158 37.5828613,13.7324309 38.040514,14.9671004 C31.3803403,20.7101936 26.1865,28.5478269 23.4232918,37.7253028 C22.9201041,35.8168876 22.3189306,33.9626524 21.6410973,32.1568607 C24.9023056,23.852641 30.0258265,16.774167 36.367257,11.4555908 Z M17.3285556,23.1699713 C17.4023334,21.2143876 18.8531042,19.6450763 20.6393335,19.6450763 C22.4272917,19.6450763 23.8786389,21.2156624 23.9506876,23.1731584 C22.7224028,25.2345528 21.6122779,27.3960212 20.6404862,29.6550138 C19.6686945,27.3953838 18.5574167,25.2320033 17.3285556,23.1699713 Z M19.639875,32.1568607 C18.9620417,33.9626524 18.360868,35.8168876 17.8576807,37.7253028 C15.0944723,28.5478269 9.900632,20.7101936 3.24103474,14.9671004 C3.69811111,13.7324309 4.2600903,12.5583158 4.91429168,11.4555908 C11.2557222,16.7748044 16.3792431,23.852641 19.639875,32.1568607 Z M20.6393335,11.741152 C17.3619862,11.741152 14.3590001,13.3863155 12.3848681,16.1979454 C11.5975209,15.2571234 10.7830834,14.3468973 9.93925005,13.4723663 C12.5791111,9.97360503 16.499132,7.912848 20.6393335,7.912848 C24.7801112,7.912848 28.700132,9.97360503 31.341146,13.4736411 C30.4967363,14.3488096 29.6822986,15.2596731 28.894375,16.200495 C26.9248542,13.4181862 23.8774862,11.741152 20.6393335,11.741152 Z M20.6393335,17.608541 C18.5516528,17.608541 16.7533195,18.9872656 15.9394584,20.9626093 C15.20975,19.8617966 14.4437292,18.7947669 13.6442779,17.7621574 C15.2650834,15.2622227 17.8242501,13.7783247 20.6393335,13.7783247 C23.4215625,13.7783247 26.0245347,15.2902689 27.6361181,17.7627948 C26.8366667,18.7954043 26.0706459,19.863709 25.3403612,20.9645217 C24.5265001,18.9885406 22.7275904,17.608541 20.6393335,17.608541 Z M20.6404862,0 C9.25911114,0 0,10.2394064 0,22.8257682 C0,35.4121302 9.25911114,45.6521739 20.6404862,45.6521739 C32.0218613,45.6521739 41.2815488,35.4121302 41.2815488,22.8257682 C41.2815488,10.2394064 32.0218613,0 20.6404862,0 L20.6404862,0 Z" id="Fill-53" fill="#F8CA4A"/>
                    </g>
                </g>
            </g>
        </g>
    </g>
</svg>