<?xml version="1.0" encoding="UTF-8"?>
<svg width="20px" height="19px" viewBox="0 0 20 19" version="1.1" xmlns="http://www.w3.org/2000/svg" xmlns:xlink="http://www.w3.org/1999/xlink">
    <title>assignment_turned_in_black_24dp</title>
    <g id="Page-1" stroke="none" stroke-width="1" fill="none" fill-rule="evenodd">
        <g id="Integrated-Assessment-Blank-state" transform="translate(-872.000000, -259.000000)">
            <g id="Group-3" transform="translate(843.000000, 202.000000)">
                <g id="assignment_turned_in_black_24dp" transform="translate(29.000000, 57.000000)">
                    <polygon id="Path" points="0 0 20 0 20 19 0 19"></polygon>
                    <path d="M15,7.125 L13.825,6.00083333 L8.33333333,11.2179167 L6.175,9.17541667 L5,10.2916667 L8.33333333,13.4583333 L15,7.125 Z M15.8333333,2.375 L12.35,2.375 C12,1.45666667 11.0833333,0.791666667 10,0.791666667 C8.91666667,0.791666667 8,1.45666667 7.65,2.375 L4.16666667,2.375 C4.05,2.375 3.94166667,2.38291667 3.83333333,2.40666667 C3.50833333,2.47 3.21666667,2.62833333 2.99166667,2.84208333 C2.84166667,2.98458333 2.71666667,3.15875 2.63333333,3.34875 C2.55,3.53083333 2.5,3.73666667 2.5,3.95833333 L2.5,15.0416667 C2.5,15.2554167 2.55,15.4691667 2.63333333,15.6591667 C2.71666667,15.8491667 2.84166667,16.0154167 2.99166667,16.1658333 C3.21666667,16.3795833 3.50833333,16.5379167 3.83333333,16.60125 C3.94166667,16.6170833 4.05,16.625 4.16666667,16.625 L15.8333333,16.625 C16.75,16.625 17.5,15.9125 17.5,15.0416667 L17.5,3.95833333 C17.5,3.0875 16.75,2.375 15.8333333,2.375 Z M10,2.17708333 C10.3416667,2.17708333 10.625,2.44625 10.625,2.77083333 C10.625,3.09541667 10.3416667,3.36458333 10,3.36458333 C9.65833333,3.36458333 9.375,3.09541667 9.375,2.77083333 C9.375,2.44625 9.65833333,2.17708333 10,2.17708333 Z M15.8333333,15.0416667 L4.16666667,15.0416667 L4.16666667,3.95833333 L15.8333333,3.95833333 L15.8333333,15.0416667 Z" id="Shape" fill="#E13F00" fill-rule="nonzero"></path>
                </g>
            </g>
        </g>
    </g>
</svg>