<?xml version="1.0" encoding="UTF-8"?>
<svg width="106px" height="96px" viewBox="0 0 106 96" version="1.1" xmlns="http://www.w3.org/2000/svg" xmlns:xlink="http://www.w3.org/1999/xlink">
    <title>textbook</title>
    <g id="Page-1" stroke="none" stroke-width="1" fill="none" fill-rule="evenodd">
        <g id="textbook" fill-rule="nonzero">
            <path d="M52.8,18.77326 C51.8279788,18.77326 51.04,17.9852812 51.04,17.01326 L51.04,15.84 C51.0367265,12.9252935 48.6747065,10.5632735 45.76,10.56 C44.7879788,10.56 44,9.77202116 44,8.8 C44,7.82797884 44.7879788,7.04 45.76,7.04 C50.6178441,7.04545587 54.5545441,10.9821559 54.56,15.84 L54.56,17.01326 C54.56,17.9852812 53.7720212,18.77326 52.8,18.77326 L52.8,18.77326 Z" id="Path" fill="#84BD3D"></path>
            <path d="M46.64,42.24 C51.0140952,42.24 54.56,45.7859048 54.56,50.16 C54.56,54.5340952 51.0140952,58.08 46.64,58.08 L81.84,58.08 C86.2140952,58.08 89.76,54.5340952 89.76,50.16 C89.76,45.7859048 86.2140952,42.24 81.84,42.24 L46.64,42.24 Z" id="Path" fill="#009EC9"></path>
            <path d="M14.08,44 L46.64,44 C50.0420741,44 52.8,46.7579259 52.8,50.16 C52.8,53.5620741 50.0420741,56.32 46.64,56.32 L14.08,56.32 L14.08,44 Z" id="Path" fill="#D7E6F0"></path>
            <path d="M46.64,58.08 L10.56,58.08 C9.58797884,58.08 8.8,57.2920212 8.8,56.32 C8.8,55.3479788 9.58797884,54.56 10.56,54.56 L46.64,54.56 C49.0700529,54.56 51.04,52.5900529 51.04,50.16 C51.04,47.7299471 49.0700529,45.76 46.64,45.76 L10.56,45.76 C9.58797884,45.76 8.8,44.9720212 8.8,44 C8.8,43.0279788 9.58797884,42.24 10.56,42.24 L46.64,42.24 C51.0140952,42.24 54.56,45.7859048 54.56,50.16 C54.56,54.5340952 51.0140952,58.08 46.64,58.08 Z" id="Path" fill="#02A7D4"></path>
            <path d="M69.81326,42.24 L70.10674,42.24 C74.4808352,42.24 78.02674,45.7859048 78.02674,50.16 C78.02674,52.2605146 77.1923138,54.2749976 75.7070257,55.7602857 C74.2217376,57.2455738 72.2072546,58.08 70.10674,58.08 L77.14674,58.08 C79.2472546,58.08 81.2617376,57.2455738 82.7470257,55.7602857 C84.2323138,54.2749976 85.06674,52.2605146 85.06674,50.16 C85.06674,45.7859048 81.5208352,42.24 77.14674,42.24 L69.81326,42.24 Z" id="Path" fill="#007EA0"></path>
            <path d="M84.48,72.16 L12.32,72.16 C6.48787304,72.16 1.76,76.887873 1.76,82.72 C1.76,88.552127 6.48787304,93.28 12.32,93.28 L84.48,93.28 L84.48,72.16 Z" id="Path" fill="#A5C3DC"></path>
            <path d="M56.32,72.16 L12.32,72.16 C6.48787304,72.16 1.76,76.887873 1.76,82.72 C1.76,88.552127 6.48787304,93.28 12.32,93.28 L56.32,93.28 L56.32,72.16 Z" id="Path" fill="#D7E6F0"></path>
            <path d="M88,95.04 L12.32,95.04 C5.51585188,95.04 0,89.5241481 0,82.72 C0,75.9158519 5.51585188,70.4 12.32,70.4 L88,70.4 C88.9720212,70.4 89.76,71.1879788 89.76,72.16 C89.76,73.1320212 88.9720212,73.92 88,73.92 L12.32,73.92 C7.4598942,73.92 3.52,77.8598942 3.52,82.72 C3.52,87.5801058 7.4598942,91.52 12.32,91.52 L88,91.52 C88.9720212,91.52 89.76,92.3079788 89.76,93.28 C89.76,94.2520212 88.9720212,95.04 88,95.04 Z" id="Path" fill="#016E8B"></path>
            <path d="M59.84,95.04 L12.32,95.04 C5.51585188,95.04 0,89.5241481 0,82.72 C0,75.9158519 5.51585188,70.4 12.32,70.4 L59.84,70.4 C60.8120212,70.4 61.6,71.1879788 61.6,72.16 C61.6,73.1320212 60.8120212,73.92 59.84,73.92 L12.32,73.92 C7.4598942,73.92 3.52,77.8598942 3.52,82.72 C3.52,87.5801058 7.4598942,91.52 12.32,91.52 L59.84,91.52 C60.8120212,91.52 61.6,92.3079788 61.6,93.28 C61.6,94.2520212 60.8120212,95.04 59.84,95.04 Z" id="Path" fill="#007EA0"></path>
            <path d="M33.03102,95.04 C33.2976977,95.04 33.5584051,94.9610377 33.78034,94.81318 L38.72,91.52 L43.65966,94.81318 C43.8815949,94.9610377 44.1423023,95.04 44.40898,95.04 C44.7673107,95.04 45.1109818,94.8977379 45.3643599,94.6443599 C45.6177379,94.3909818 45.76,94.0473107 45.76,93.68898 L45.76,79.2 L31.68,79.2 L31.68,93.68898 C31.68,94.0473107 31.8222621,94.3909818 32.0756401,94.6443599 C32.3290182,94.8977379 32.6726893,95.04 33.03102,95.04 L33.03102,95.04 Z" id="Path" fill="#F16227"></path>
            <rect id="Rectangle" fill="#FFB845" x="17.6" y="58.08" width="88" height="12.32" rx="1.76"></rect>
            <polygon id="Path" fill="#FF6F33" points="24.64 58.08 31.68 58.08 31.68 70.4 24.64 70.4"></polygon>
            <polygon id="Path" fill="#FF6F33" points="91.52 58.08 98.56 58.08 98.56 70.4 91.52 70.4"></polygon>
            <path d="M59.84,14.0799044 C57.2415067,14.0767082 54.733748,15.035299 52.8,16.77104 C49.6967756,13.9936091 45.2508276,13.2997935 41.4488991,14.9996357 C37.6469706,16.6994779 35.19943,20.4753723 35.1999999,24.64 C35.1999999,34.61326 42.24,42.24 47.52,42.24 L58.08,42.24 C63.36,42.24 70.4,34.61326 70.4,24.64 C70.4,18.807873 65.672127,14.0799044 59.84,14.0799044 Z" id="Path" fill="#F16227"></path>
            <circle id="Oval" fill="#FF7942" cx="44" cy="21.12" r="3.52"></circle>
            <path d="M61.6,0 C62.5720212,0 63.36,0.78797884 63.36,1.76 C63.36,6.6201058 59.4201058,10.56 54.56,10.56 L52.8,10.56 L52.8,8.8 C52.8,3.9398942 56.7398942,0 61.6,0 Z" id="Path" fill="#84BD3D"></path>
        </g>
    </g>
</svg>