<?xml version="1.0" encoding="utf-8"?>
<!-- Generator: Adobe Illustrator 22.1.0, SVG Export Plug-In . SVG Version: 6.00 Build 0)  -->
<svg version="1.1" id="Layer_1" xmlns="http://www.w3.org/2000/svg" xmlns:xlink="http://www.w3.org/1999/xlink" x="0px" y="0px"
	 viewBox="0 0 175 195" style="enable-background:new 0 0 175 195;" xml:space="preserve">
<style type="text/css">
	.st0{fill:#2BBBD5;}
	.st1{fill:#EDF1F2;}
	.st2{fill:#7A8585;}
	.st3{fill:#54AC7D;}
</style>
<g>
	<path class="st0" d="M162.4,44.6c0,2.5-2.1,4.6-4.6,4.6H11.3c-2.5,0-4.6-2.1-4.6-4.6V12.6c0-2.5,2.1-4.6,4.6-4.6h146.5
		c2.5,0,4.6,2.1,4.6,4.6V44.6z"/>
	<path class="st1" d="M6.7,30.9h155.7V182H6.7L6.7,30.9L6.7,30.9z"/>
	<g>
		<path class="st2" d="M38,158.2h28.6v-28.6H38V158.2z"/>
		<path class="st1" d="M47.5,139.1h9.5v9.5h-9.5L47.5,139.1L47.5,139.1z"/>
	</g>
	<rect x="80.4" y="62.7" class="st2" width="55" height="9.2"/>
	<rect x="80.4" y="139.9" class="st2" width="55" height="9.2"/>
	<g>
		<path class="st2" d="M38,118.6h28.6V90H38V118.6z"/>
		<path class="st1" d="M47.5,99.5h9.5v9.5h-9.5L47.5,99.5L47.5,99.5z"/>
	</g>
	<rect x="80.4" y="101.3" class="st2" width="55" height="9.2"/>
	<path class="st3" d="M57.4,70.8L51,77.3l-16-16l6.5-6.5l9.6,9.6L57.4,70.8z M71.4,56.8L51,77.3l-6.5-6.5l6.5-6.5l14-14L71.4,56.8z"
		/>
</g>
</svg>
