<?xml version="1.0" encoding="UTF-8"?>
<svg xmlns="http://www.w3.org/2000/svg" xmlns:xlink="http://www.w3.org/1999/xlink" width="48pt" height="48pt" viewBox="0 0 48 48" version="1.1">
<g id="surface111127">
<path style=" stroke:none;fill-rule:nonzero;fill:rgb(30.588235%,20.392157%,18.039216%);fill-opacity:1;" d="M 26.136719 19.863281 C 23.136719 16.867188 19.875 15.015625 17.875 15 C 17.289062 14.996094 16.808594 15.148438 16.480469 15.480469 C 15.023438 16.933594 16.988281 21.257812 20.863281 25.136719 C 24.742188 29.011719 29.0625 30.976562 30.519531 29.519531 C 31.976562 28.066406 30.011719 23.742188 26.136719 19.863281 Z M 26.136719 19.863281 "/>
<path style=" stroke:none;fill-rule:nonzero;fill:rgb(98.431373%,75.294118%,17.647059%);fill-opacity:1;" d="M 35.5 28 L 34 29.5 L 35.5 31 L 37 29.5 Z M 35.5 28 "/>
<path style=" stroke:none;fill-rule:nonzero;fill:rgb(16.470588%,73.333333%,83.529412%);fill-opacity:1;" d="M 16.5 39 L 15 40.5 L 16.5 42 L 18 40.5 Z M 16.5 39 "/>
<path style=" stroke:none;fill-rule:nonzero;fill:rgb(98.431373%,75.294118%,17.647059%);fill-opacity:1;" d="M 13.5 6 L 12 7.5 L 13.5 9 L 15 7.5 Z M 13.5 6 "/>
<path style=" stroke:none;fill-rule:nonzero;fill:rgb(16.470588%,73.333333%,83.529412%);fill-opacity:1;" d="M 24.5 6 L 23 7.5 L 24.5 9 L 26 7.5 Z M 24.5 6 "/>
<path style=" stroke:none;fill-rule:nonzero;fill:rgb(99.607843%,43.921569%,20.392157%);fill-opacity:1;" d="M 26.5 12 L 25 13.5 L 26.5 15 L 28 13.5 Z M 26.5 12 "/>
<path style=" stroke:none;fill-rule:nonzero;fill:rgb(100%,21.568627%,50.196078%);fill-opacity:1;" d="M 40.5 17 L 39 18.5 L 40.5 20 L 42 18.5 Z M 40.5 17 "/>
<path style=" stroke:none;fill-rule:nonzero;fill:rgb(16.470588%,73.333333%,83.529412%);fill-opacity:1;" d="M 7.5 24 L 6 25.5 L 7.5 27 L 9 25.5 Z M 7.5 24 "/>
<path style=" stroke:none;fill-rule:nonzero;fill:rgb(99.607843%,43.921569%,20.392157%);fill-opacity:1;" d="M 40 31 L 38 33 L 40 35 L 42 33 Z M 40 31 "/>
<path style=" stroke:none;fill-rule:nonzero;fill:rgb(100%,21.568627%,50.196078%);fill-opacity:1;" d="M 24 35 L 22 37 L 24 39 L 26 37 Z M 20 20 C 20.085938 19.921875 21 17 21 14 C 21 12.730469 20.65625 11.75 19.976562 11.078125 C 18.867188 9.988281 17.175781 10.007812 17.144531 10 L 17 10 L 17 8 L 17.125 8 C 17.199219 8.003906 19.632812 7.953125 21.359375 9.636719 C 22.449219 10.695312 23 12.164062 23 14 C 23 18 20 20 20 20 Z M 42 42 L 40 42 L 40 41.875 C 39.953125 40.4375 39.457031 39 39.125 39 C 38.394531 39 37.679688 39.878906 37.101562 40.585938 C 36.484375 41.34375 35.949219 42 35.125 42 C 33.746094 42 33.441406 40.363281 33.144531 38.78125 C 33.09375 38.515625 33.03125 38.171875 32.957031 37.847656 C 32.90625 37.949219 32.855469 38.050781 32.808594 38.148438 C 31.875 40.042969 30.90625 42 29.375 42 C 28.191406 42 27 41.070312 27 39 L 29 39 C 29 39.589844 29.152344 40 29.375 40 C 29.757812 39.8125 30.640625 38.023438 31.015625 37.261719 C 31.738281 35.804688 32.132812 35 33 35 C 34.472656 35 34.796875 36.734375 35.109375 38.414062 C 35.171875 38.742188 35.257812 39.199219 35.347656 39.570312 C 35.421875 39.484375 35.488281 39.398438 35.554688 39.320312 C 36.351562 38.339844 37.445312 37 39.125 37 C 41.722656 37 41.976562 41.035156 42 41.84375 Z M 42 42 "/>
<path style=" stroke:none;fill-rule:nonzero;fill:rgb(100%,70.196078%,0%);fill-opacity:1;" d="M 20.863281 25.136719 C 17.378906 21.648438 15.445312 17.804688 16.152344 16.007812 L 16.144531 16 L 6 40 L 30 29.855469 L 29.992188 29.847656 C 28.195312 30.554688 24.355469 28.625 20.863281 25.136719 Z M 20.863281 25.136719 "/>
<path style=" stroke:none;fill-rule:nonzero;fill:rgb(100%,89.803922%,49.803922%);fill-opacity:1;" d="M 17.308594 20.613281 L 6 40 L 19.757812 23.949219 C 18.757812 22.820312 17.929688 21.683594 17.308594 20.613281 Z M 17.308594 20.613281 "/>
<path style=" stroke:none;fill-rule:nonzero;fill:rgb(99.607843%,43.921569%,20.392157%);fill-opacity:1;" d="M 41 6 C 38.984375 6.035156 37.582031 6.46875 36.765625 7.277344 C 36.304688 7.738281 36.042969 8.316406 36.003906 8.960938 C 36.003906 8.972656 36 9.039062 36 9.058594 C 36.019531 10.308594 36.628906 11.390625 36.84375 11.75 C 36.886719 11.816406 36.953125 11.957031 36.96875 12.007812 C 36.433594 11.980469 35.464844 11.78125 34.855469 11.652344 C 33.066406 11.269531 31.523438 10.941406 30.601562 11.683594 C 30.214844 12 30 12.464844 30 13 C 30 14.152344 30.746094 15.167969 31.34375 15.984375 C 31.59375 16.324219 31.96875 16.835938 32 17 C 32 17.519531 31.636719 17.714844 29.71875 18.234375 C 27.5625 18.816406 24 20 22 23 C 25 21 28.101562 20.742188 30.238281 20.164062 C 32.089844 19.664062 34 19.148438 34 17 C 34 16.222656 33.492188 15.53125 32.957031 14.800781 C 32.59375 14.308594 32.15625 13.710938 32.03125 13.234375 C 32.585938 13.21875 33.714844 13.453125 34.4375 13.609375 C 35.417969 13.816406 36.316406 13.996094 37.039062 13.996094 L 37.039062 14 C 37.894531 14 38.496094 13.558594 38.746094 13.179688 L 38.84375 12.996094 C 38.957031 12.710938 39 12.433594 39 12.175781 C 39 11.476562 38.6875 10.929688 38.621094 10.820312 C 38.480469 10.605469 38.050781 9.859375 38.011719 9.121094 C 38.011719 9.105469 38.011719 9.054688 38.011719 9.046875 C 38.023438 8.910156 38.070312 8.800781 38.175781 8.695312 C 38.34375 8.527344 39.074219 7.984375 41.5 8 L 42 8 L 42 6 C 42 6 41.140625 5.996094 41 6 Z M 41 6 "/>
<path style=" stroke:none;fill-rule:nonzero;fill:rgb(16.470588%,73.333333%,83.529412%);fill-opacity:1;" d="M 40 28 L 42 28 C 42 27.828125 41.988281 27.660156 41.972656 27.5 C 41.566406 23.964844 36.84375 23 34 23 C 28 23 25 26 25 26 C 25 26 28 25 34 25 C 34.058594 25 40 25.082031 40 28 Z M 40 28 "/>
<path style=" stroke:none;fill-rule:nonzero;fill:rgb(99.607843%,43.921569%,20.392157%);fill-opacity:1;" d="M 10.625 15 C 8.328125 15 8.023438 14.644531 8.015625 14.632812 C 8.015625 14.632812 8 14.597656 7.976562 14.597656 C 8.09375 14.402344 8.773438 14.078125 9.140625 13.90625 C 9.898438 13.546875 10.742188 13.144531 10.949219 12.375 C 10.984375 12.257812 11 12.132812 11 12 C 11 11.867188 10.988281 11.742188 10.964844 11.625 C 10.78125 10.644531 9.871094 10.171875 9.191406 9.8125 C 8.28125 9.339844 8 9.113281 8 8.625 C 8 8.046875 8.839844 8.003906 9.007812 8 L 9 8 L 9 6 C 7.792969 6 6 6.699219 6 8.625 C 6 10.402344 7.417969 11.140625 8.265625 11.585938 C 8.417969 11.667969 8.621094 11.773438 8.773438 11.859375 C 8.613281 11.941406 8.425781 12.03125 8.277344 12.101562 C 7.316406 12.558594 6 13.183594 6 14.5 C 6 17 9.007812 17 10.625 17 C 10.691406 17 10.753906 17.003906 10.808594 17.007812 C 10.378906 17.472656 9.222656 18.28125 7.039062 19.058594 L 7.710938 20.941406 C 9.300781 20.378906 13 18.839844 13 16.75 C 13 15.90625 12.257812 15 10.625 15 Z M 10.625 15 "/>
</g>
</svg>
