<?xml version="1.0" encoding="UTF-8"?>
<svg xmlns="http://www.w3.org/2000/svg" xmlns:xlink="http://www.w3.org/1999/xlink" width="48pt" height="48pt" viewBox="0 0 48 48" version="1.1">
<g id="surface198558">
<path style=" stroke:none;fill-rule:nonzero;fill:rgb(100%,22.352941%,20%);fill-opacity:1;" d="M 39 28 C 39 36.394531 32.394531 43 24 43 C 15.605469 43 9 36.394531 9 28 C 9 19.605469 22.480469 12.601562 20.960938 5 C 24 5 39 15.839844 39 28 Z M 39 28 "/>
<path style=" stroke:none;fill-rule:nonzero;fill:rgb(100%,43.529412%,20%);fill-opacity:1;" d="M 33 32 C 33 24.402344 24 17 24 17 C 24 23.078125 15 25.921875 15 32 C 15 37.035156 18.964844 41 24 41 C 29.035156 41 33 37.035156 33 32 Z M 33 32 "/>
<path style=" stroke:none;fill-rule:nonzero;fill:rgb(100%,75.686275%,2.745098%);fill-opacity:1;" d="M 19 35.40625 C 19 32 24 30.050781 24 27 C 24 27 29 30.832031 29 35.40625 C 29 37.929688 26.761719 39.980469 24 39.980469 C 21.234375 39.980469 18.996094 37.933594 19 35.40625 Z M 19 35.40625 "/>
</g>
</svg>
