<?xml version="1.0" encoding="UTF-8"?>
<svg width="20px" height="20px" viewBox="0 0 20 20" version="1.1" xmlns="http://www.w3.org/2000/svg" xmlns:xlink="http://www.w3.org/1999/xlink">
    <title>font_download_black_24dp (1)</title>
    <g id="Page-1" stroke="none" stroke-width="1" fill="none" fill-rule="evenodd">
        <g id="font_download_black_24dp-(1)">
            <polygon id="Path" points="0 0 20 0 20 20 0 20"></polygon>
            <path d="M8.04416667,12.7916667 L12.2741667,12.7916667 L13.1291667,15.0416667 L14.6966667,15.0416667 L10.8641667,5.29166667 L9.46916667,5.29166667 L5.63666667,15.0416667 L7.20416667,15.0416667 L8.04416667,12.7916667 Z M10.1666667,7.15166667 L11.7191667,11.2916667 L8.61416667,11.2916667 L10.1666667,7.15166667 Z M16.1666667,2.66666667 L4.16666667,2.66666667 C3.34166667,2.66666667 2.66666667,3.34166667 2.66666667,4.16666667 L2.66666667,16.1666667 C2.66666667,16.9916667 3.34166667,17.6666667 4.16666667,17.6666667 L16.1666667,17.6666667 C16.9916667,17.6666667 17.6666667,16.9916667 17.6666667,16.1666667 L17.6666667,4.16666667 C17.6666667,3.34166667 16.9916667,2.66666667 16.1666667,2.66666667 Z M16.1666667,16.1666667 L4.16666667,16.1666667 L4.16666667,4.16666667 L16.1666667,4.16666667 L16.1666667,16.1666667 Z" id="Shape" fill="#E13F00" fill-rule="nonzero"></path>
        </g>
    </g>
</svg>