<?xml version="1.0" encoding="UTF-8"?>
<svg width="20px" height="20px" viewBox="0 0 20 20" version="1.1" xmlns="http://www.w3.org/2000/svg" xmlns:xlink="http://www.w3.org/1999/xlink">
    <title>Group 20</title>
    <g id="Page-1" stroke="none" stroke-width="1" fill="none" fill-rule="evenodd">
        <g id="Group-20">
            <rect id="Rectangle" x="0" y="0" width="20" height="20"></rect>
            <g id="Group-19" transform="translate(1.000000, 3.750000)" fill="#E13F00">
                <path d="M9,1.25 C10.2083333,0.333333333 11.9583333,2.42561526e-12 13.5833333,2.42561526e-12 C14.5583333,2.42561526e-12 15.575,0.125 16.5,0.416666667 C17.125,0.625 17.6666667,0.875 18.1666667,1.25 L18.1666667,1.25 L18.1666667,13.4166667 C18.1666667,13.625 17.9583333,13.8333333 17.75,13.8333333 C17.6666667,13.8333333 17.625,13.8333333 17.5416667,13.7916667 C16.375,13.1666667 14.9583333,12.9166667 13.5833333,12.9166667 C12.1666667,12.9166667 10.125,13.4583333 9,14.1666667 L9,14.1666667 L9,12.5 C10.125,11.7916667 12.1666667,11.25 13.5833333,11.25 C14.5833333,11.25 15.5833333,11.375 16.5,11.6666667 L16.5,11.6666667 L16.5,2.08333333 C15.5833333,1.79166667 14.5833333,1.66666667 13.5833333,1.66666667 C12.1666667,1.66666667 10.125,2.20833333 9,2.91666667 L9,2.91666667 Z" id="Combined-Shape"></path>
                <path d="M-2.4282798e-12,1.25 C1.20833333,0.333333333 2.95833333,2.42561526e-12 4.58333333,2.42561526e-12 C5.55833333,2.42561526e-12 6.575,0.125 7.5,0.416666667 C8.125,0.625 8.66666667,0.875 9.16666667,1.25 L9.16666667,1.25 L9.16666667,13.4166667 C9.16666667,13.625 8.95833333,13.8333333 8.75,13.8333333 C8.66666667,13.8333333 8.625,13.8333333 8.54166667,13.7916667 C7.375,13.1666667 5.95833333,12.9166667 4.58333333,12.9166667 C3.16666667,12.9166667 1.125,13.4583333 -2.4282798e-12,14.1666667 L-2.4282798e-12,14.1666667 L-2.4282798e-12,12.5 C1.125,11.7916667 3.16666667,11.25 4.58333333,11.25 C5.58333333,11.25 6.58333333,11.375 7.5,11.6666667 L7.5,11.6666667 L7.5,2.08333333 C6.58333333,1.79166667 5.58333333,1.66666667 4.58333333,1.66666667 C3.16666667,1.66666667 1.125,2.20833333 -2.4282798e-12,2.91666667 L-2.4282798e-12,2.91666667 Z" id="Combined-Shape-Copy" transform="translate(4.583333, 7.083333) scale(-1, 1) translate(-4.583333, -7.083333) "></path>
                <g id="Group" transform="translate(9.833333, 3.750000)" fill-rule="nonzero">
                    <path d="M3.75,1.25 C4.48333333,1.25 5.19166667,1.325 5.83333333,1.46666667 L5.83333333,0.2 C5.175,0.075 4.46666667,0 3.75,0 C2.33333333,0 1.05,0.241666667 0,0.691666667 L0,2.075 C0.941666667,1.54166667 2.25,1.25 3.75,1.25 Z" id="Path"></path>
                    <path d="M0,2.90833333 L0,4.29166667 C0.941666667,3.75833333 2.25,3.46666667 3.75,3.46666667 C4.48333333,3.46666667 5.19166667,3.54166667 5.83333333,3.68333333 L5.83333333,2.41666667 C5.175,2.29166667 4.46666667,2.21666667 3.75,2.21666667 C2.33333333,2.21666667 1.05,2.46666667 0,2.90833333 Z" id="Path"></path>
                    <path d="M3.75,4.44166667 C2.33333333,4.44166667 1.05,4.68333333 0,5.13333333 L0,6.51666667 C0.941666667,5.98333333 2.25,5.69166667 3.75,5.69166667 C4.48333333,5.69166667 5.19166667,5.76666667 5.83333333,5.90833333 L5.83333333,4.64166667 C5.175,4.50833333 4.46666667,4.44166667 3.75,4.44166667 Z" id="Path"></path>
                </g>
            </g>
        </g>
    </g>
</svg>