<?xml version="1.0" encoding="UTF-8"?>
<svg width="20px" height="19px" viewBox="0 0 20 19" version="1.1" xmlns="http://www.w3.org/2000/svg" xmlns:xlink="http://www.w3.org/1999/xlink">
    <title>person_add_black_24dp 2</title>
    <g id="Page-1" stroke="none" stroke-width="1" fill="none" fill-rule="evenodd">
        <g id="Integrated-Assessment-Blank-state" transform="translate(-872.000000, -329.000000)">
            <g id="Group-3" transform="translate(843.000000, 202.000000)">
                <g id="person_add_black_24dp" transform="translate(29.000000, 127.000000)">
                    <polygon id="Path" points="0 0 20 0 20 19 0 19"></polygon>
                    <path d="M12.5,9.5 C14.3416667,9.5 15.8333333,8.08291667 15.8333333,6.33333333 C15.8333333,4.58375 14.3416667,3.16666667 12.5,3.16666667 C10.6583333,3.16666667 9.16666667,4.58375 9.16666667,6.33333333 C9.16666667,8.08291667 10.6583333,9.5 12.5,9.5 Z M12.5,4.75 C13.4166667,4.75 14.1666667,5.4625 14.1666667,6.33333333 C14.1666667,7.20416667 13.4166667,7.91666667 12.5,7.91666667 C11.5833333,7.91666667 10.8333333,7.20416667 10.8333333,6.33333333 C10.8333333,5.4625 11.5833333,4.75 12.5,4.75 Z M12.5,11.0833333 C10.275,11.0833333 5.83333333,12.1441667 5.83333333,14.25 L5.83333333,15.8333333 L19.1666667,15.8333333 L19.1666667,14.25 C19.1666667,12.1441667 14.725,11.0833333 12.5,11.0833333 Z M7.5,14.25 C7.68333333,13.68 10.2583333,12.6666667 12.5,12.6666667 C14.75,12.6666667 17.3333333,13.6879167 17.5,14.25 L7.5,14.25 Z M5,11.875 L5,9.5 L7.5,9.5 L7.5,7.91666667 L5,7.91666667 L5,5.54166667 L3.33333333,5.54166667 L3.33333333,7.91666667 L0.833333333,7.91666667 L0.833333333,9.5 L3.33333333,9.5 L3.33333333,11.875 L5,11.875 Z" id="Shape" fill="#E13F00" fill-rule="nonzero"></path>
                </g>
            </g>
        </g>
    </g>
</svg>