<svg width="479" height="199" viewBox="0 0 479 199" version="1.1" xmlns="http://www.w3.org/2000/svg" xmlns:xlink="http://www.w3.org/1999/xlink"><g id="Page-1" stroke="none" stroke-width="1" fill="none" fill-rule="evenodd"><g id="alliance-logo_F05022" transform="translate(-45.000000, -56.000000)"><g id="Group" transform="translate(45.000000, 56.000000)"><g id="Layer_1_xA0_Image_1_" transform="translate(0.000000, 76.000000)"><path d="M341.4,121.4 C340,121.7 338.6,122.1 337.1,122.4 C333,117.8 329,113.2 324.9,108.6 C320.9,104 316.9,99.4 313.1,94.9 C313.1,103.7 313.1,112.7 313.1,121.7 C311.1,121.7 308.9,121.7 306.7,121.7 C306.7,109 306.7,96.3 306.7,83.5 C308.1,83.1 309.6,82.7 311.1,82.2 C319.1,91.4 327.1,100.5 334.9,109.5 C334.9,100.9 334.9,92 334.9,82.8 C337,82.8 339.2,82.8 341.4,82.8 C341.4,83 341.4,83.1 341.4,83.3 C341.3,83.7 341.2,84.1 341.2,84.5 C341.2,96.2 341.2,107.8 341.2,119.5 C341.2,119.9 341.3,120.3 341.4,120.7 C341.4,121.1 341.4,121.3 341.4,121.4 Z" id="Shape" fill="#F05022"/><path d="M0.3,99.6 C0.5,98.7 0.8,97.9 1,97 C3.1,88.9 10.1,83 18.5,82.3 C24.4,81.8 29.8,82.8 34.5,86.5 C34.8,86.7 35.1,87 35.5,87.4 C34.1,89.2 32.6,90.9 31.2,92.7 C29.1,90.9 26.7,89.6 24,89 C15.7,87.2 8.5,92.8 8.2,101.3 C8,106.5 9.5,111 13.7,114.2 C17.9,117.4 24.6,117.8 28.6,115.2 C28.6,112.5 28.6,109.8 28.6,107 C25.8,107 23,107 20.2,107 C20.4,105.2 20.6,103.4 20.8,101.6 C25.8,101.6 30.7,101.6 35.7,101.6 C35.7,107.2 35.7,112.8 35.7,118.5 C32.8,120.6 29.5,121.9 25.9,122.5 C21.3,123.2 16.8,123.1 12.4,121.4 C6,118.9 2.2,114.1 0.7,107.4 C0.6,106.8 0.4,106.2 0.2,105.6 C0.3,103.6 0.3,101.6 0.3,99.6 Z" id="Shape" fill="#F05022"/><path d="M207.5,0.7 C209.6,1.3 211.6,2 213.2,3.8 C216.8,7.8 216.5,16.7 210.3,19.4 C207,20.9 203.6,20.7 200.7,18.4 C197.8,16.2 196.7,13 197.1,9.4 C197.6,4.8 200.1,1.9 204.7,0.9 C204.8,0.9 204.8,0.8 204.9,0.7 C205.7,0.7 206.6,0.7 207.5,0.7 Z M211.1,10.4 C210.7,9.2 210.5,7.9 209.9,6.7 C209.2,5.1 207.6,4.6 206,4.7 C204.2,4.7 202.8,5.6 202.1,7.3 C201.2,9.6 201.2,11.9 202.3,14.1 C203.2,15.9 205.2,16.8 207.3,16.2 C209.7,15.5 210.9,13.6 211.1,10.4 Z" id="Shape" fill="#A4AEB6"/><path d="M133.1,0.7 C135,1.2 136.9,1.9 138.2,3.5 C138.7,4.1 139.1,4.8 139.7,5.5 C138.4,6.1 137.3,6.7 136.1,7.3 C135.8,6.9 135.6,6.7 135.4,6.4 C134.4,4.9 132.9,4.5 131.2,4.7 C129.7,4.9 128.7,5.8 128.2,7.3 C127.5,9.1 127.4,10.9 128,12.7 C128.5,14.5 129.6,15.8 131.6,16.2 C133.4,16.5 134.8,15.7 135.8,14.3 C135.9,14.1 136,14 136.2,13.8 C137.4,14.4 138.5,14.9 139.6,15.4 C139.2,17.5 135.8,20.1 133,20.2 C126.2,20.4 121.8,14.6 123.5,7.7 C124.4,4.2 126.5,1.9 130.1,1 C130.3,1 130.4,0.8 130.6,0.8 C131.3,0.7 132.2,0.7 133.1,0.7 Z" id="Shape" fill="#A5AEB6"/><path d="M341.4,120.9 C341.3,120.5 341.2,120.1 341.2,119.7 C341.2,108 341.2,96.4 341.2,84.7 C341.2,84.3 341.3,83.9 341.4,83.5 C341.4,96 341.4,108.5 341.4,120.9 Z" id="Shape" fill="#FB6E3F"/><path d="M215.2,121.9 C212.6,121.9 210.1,121.9 207.5,121.9 C206.1,118.4 204.7,115 203.3,111.5 C198,111.5 192.8,111.5 187.5,111.5 C186.1,115 184.7,118.4 183.3,121.9 C178.2,121.9 173.1,121.9 167.9,121.9 C164.8,117.1 161.6,112.1 158.4,107.1 C156.6,107.1 154.8,107.1 152.9,107.1 C152.9,112 152.9,116.9 152.9,121.8 C150.5,121.8 148.1,121.8 145.7,121.8 C145.7,109 145.7,96.2 145.7,83.2 C146.9,83.1 148.2,82.9 149.4,82.8 C154,82.5 158.7,82.1 163.2,83.4 C167.4,84.6 170.7,86.9 171.8,91.5 C173,96.8 170.9,101.4 166.2,104 C165.8,104.2 165.4,104.4 164.9,104.7 C168.7,110.3 172.4,115.9 176.3,121.7 C181.9,108.5 187.4,95.4 192.9,82.4 C194.9,82.4 196.8,82.4 198.8,82.4 C204.2,95.6 209.7,108.7 215.2,121.9 Z M152.8,101.8 C155,101.8 157.1,101.8 159.1,101.8 C159.8,101.8 160.5,101.8 161.1,101.5 C163.5,100.3 164.6,98.2 164.8,95.6 C165,93 164.1,90.8 161.7,89.5 C158.9,88 155.9,88.3 152.8,88.4 C152.8,93 152.8,97.4 152.8,101.8 Z M201.3,106.3 C199.3,101.3 197.4,96.3 195.5,91.4 C193.5,96.3 191.5,101.3 189.5,106.3 C193.5,106.3 197.4,106.3 201.3,106.3 Z" id="Shape" fill="#F05022"/><path d="M300.4,100.9 C300.4,113.1 294.1,120.8 284,122.6 C269.8,125.1 258.4,114.1 260.3,99.7 C261.3,91.9 265.5,86.3 272.9,83.5 C280.5,80.7 287.7,81.6 293.8,87.1 C298.4,91.2 300.3,96.5 300.4,100.9 Z M267.7,101.6 C267.9,105.6 269,108.9 271,111.6 C276.6,118.8 287.9,117.8 291.3,109.7 C293.8,103.7 293,97.8 288.8,92.7 C285.9,89.1 281.8,87.9 277.3,88.7 C272.8,89.6 269.9,92.4 268.6,96.8 C268.1,98.3 268,100 267.7,101.6 Z" id="Shape" fill="#F05022"/><path d="M107.6,83.1 C107.6,95.9 107.6,108.6 107.6,121.3 C106.2,121.7 104.9,122.1 103.4,122.5 C95.4,113.3 87.3,104.1 79.4,95.1 C79.4,103.8 79.4,112.8 79.4,121.9 C77.3,121.9 75.2,121.9 73,121.9 C73,109.2 73,96.5 73,83.7 C74.4,83.3 75.8,82.9 77.4,82.4 C85.4,91.6 93.4,100.7 101.2,109.7 C101.2,101.1 101.2,92.1 101.2,83.1 C103.2,83.1 105.4,83.1 107.6,83.1 Z" id="Shape" fill="#F05022"/><path d="M28.6,53.1 C22.7,53.1 16.7,53.1 10.7,53.1 C10.7,58.8 10.7,64.5 10.7,70.2 C8.3,70.2 6,70.2 3.6,70.2 C3.6,57.3 3.6,44.5 3.6,31.5 C5.9,31.5 8.3,31.5 10.7,31.5 C10.7,36.7 10.7,42 10.7,47.3 C16.8,47.3 22.7,47.3 28.7,47.3 C28.8,47.3 28.8,47.4 29,47.4 C28.9,47.2 28.9,47.2 28.9,47.1 C28.9,41.9 28.9,36.7 28.9,31.5 C31.3,31.5 33.6,31.5 36,31.5 C36,44.4 36,57.3 36,70.2 C33.6,70.2 31.3,70.2 28.8,70.2 C28.8,64.6 28.8,58.9 28.8,53.3 C28.8,53.2 28.9,53.1 28.9,53 C28.7,53.1 28.6,53.1 28.6,53.1 Z" id="Shape" fill="#F05022"/><path d="M191.7,53.1 C185.5,53.1 179.5,53.1 173.5,53.1 C173.5,58.8 173.5,64.5 173.5,70.2 C171.1,70.2 168.8,70.2 166.4,70.2 C166.4,57.3 166.4,44.4 166.4,31.5 C168.7,31.5 171.1,31.5 173.5,31.5 C173.5,36.8 173.5,42 173.5,47.3 C179.6,47.3 185.6,47.3 191.7,47.3 C191.7,42 191.7,36.8 191.7,31.5 C194.1,31.5 196.4,31.5 198.8,31.5 C198.8,44.4 198.8,57.3 198.8,70.2 C196.5,70.2 194.2,70.2 191.7,70.2 C191.7,64.5 191.7,58.9 191.7,53.1 Z" id="Shape" fill="#F05022"/><path d="M259.1,55.5 C259.1,60.4 259.1,65.3 259.1,70.2 C256.7,70.2 254.4,70.2 252,70.2 C252,57.4 252,44.6 252,31.6 C253.1,31.5 254.3,31.3 255.5,31.3 C260.2,31 265,30.6 269.7,31.9 C273.8,33.1 277,35.3 278.1,39.6 C279.6,45.1 277.4,49.9 272.3,52.6 C272,52.8 271.7,52.9 271.2,53.2 C275,58.9 278.8,64.5 282.7,70.3 C279.8,70.3 277.1,70.3 274.2,70.3 C271.1,65.5 267.9,60.5 264.7,55.6 C262.9,55.5 261,55.5 259.1,55.5 Z M259.1,50.2 C261.3,50.2 263.5,50.2 265.7,50.2 C266.3,50.2 266.9,50.2 267.4,49.9 C269.8,48.7 271,46.5 271.1,43.9 C271.2,41.3 270.3,39.1 267.8,37.9 C265,36.5 262,36.8 259,36.9 C259.1,41.4 259.1,45.8 259.1,50.2 Z" id="Shape" fill="#F05022"/><path d="M69.9,70.2 C75.5,57 81,43.9 86.5,30.8 C88.5,30.8 90.4,30.8 92.4,30.8 C97.9,43.9 103.3,57 108.8,70.2 C106.2,70.2 103.7,70.2 101.1,70.2 C99.7,66.8 98.3,63.3 96.9,59.8 C91.6,59.8 86.4,59.8 81.1,59.8 C79.7,63.3 78.3,66.8 76.9,70.2 C74.5,70.2 72.3,70.2 69.9,70.2 Z M89.1,39.8 C87.1,44.7 85.1,49.6 83.2,54.6 C87.2,54.6 91,54.6 94.9,54.6 C92.9,49.7 91,44.8 89.1,39.8 Z" id="Shape" fill="#F05022"/><path d="M50.4,116 C56.2,116 62.1,116 68.1,116 C67.8,118 67.5,119.9 67.3,121.8 C59.3,121.8 51.3,121.8 43.2,121.8 C43.2,108.9 43.2,96 43.2,83.1 C50.6,83.1 57.9,83.1 65.4,83.1 C65.4,85 65.4,87 65.4,89 C60.4,89 55.4,89 50.3,89 C50.3,92.3 50.3,95.5 50.3,98.8 C54.8,98.8 59.4,98.8 64,98.8 C64,100.7 64,102.5 64,104.5 C59.5,104.5 54.9,104.5 50.3,104.5 C50.3,108.3 50.3,112.1 50.3,115.8 C50.3,115.9 50.2,115.9 50.2,116.1 C50.2,116.1 50.3,116 50.4,116 Z" id="Shape" fill="#F05022"/><path d="M44.1,70.2 C44.1,57.2 44.1,44.4 44.1,31.5 C51.5,31.5 58.8,31.5 66.3,31.5 C66.3,33.4 66.3,35.4 66.3,37.4 C61.3,37.4 56.3,37.4 51.2,37.4 C51.2,40.7 51.2,43.9 51.2,47.2 C55.7,47.2 60.2,47.2 64.9,47.2 C64.9,49.1 64.9,51 64.9,52.9 C60.3,52.9 55.8,52.9 51.2,52.9 C51.2,56.7 51.2,60.5 51.2,64.4 C57.1,64.4 63,64.4 69.1,64.4 C68.8,66.4 68.5,68.3 68.2,70.3 C60.1,70.2 52.2,70.2 44.1,70.2 Z" id="Shape" fill="#F05022"/><path d="M229.2,53.1 C229.2,56.8 229.2,60.5 229.2,64.1 C229.2,64.2 229.2,64.3 229.2,64.4 C229.3,64.3 229.4,64.3 229.4,64.3 C235.3,64.3 241.1,64.3 247.1,64.3 C246.8,66.3 246.5,68.2 246.2,70.2 C238.2,70.2 230.2,70.2 222.2,70.2 C222.2,57.3 222.2,44.4 222.2,31.5 C229.6,31.5 236.9,31.5 244.4,31.5 C244.4,33.4 244.4,35.4 244.4,37.4 C239.3,37.4 234.3,37.4 229.2,37.4 C229.2,40.7 229.2,43.9 229.2,47.2 C233.7,47.2 238.3,47.2 242.9,47.2 C242.9,49.1 242.9,51 242.9,53 C238.4,53 233.9,53 229.3,53 C229.2,53 229.2,52.9 229,52.9 C229.1,53 229.2,53.1 229.2,53.1 Z" id="Shape" fill="#F05022"/><path d="M115.8,121.9 C115.8,108.9 115.8,96.1 115.8,83.2 C123.2,83.2 130.5,83.2 138,83.2 C138,85.1 138,87 138,89.1 C133,89.1 127.9,89.1 122.9,89.1 C122.9,92.4 122.9,95.7 122.9,99 C127.5,99 132,99 136.7,99 C136.7,100.9 136.7,102.7 136.7,104.7 C132.1,104.7 127.6,104.7 122.9,104.7 C122.9,108.6 122.9,112.4 122.9,116.2 C128.8,116.2 134.7,116.2 140.8,116.2 C140.5,118.2 140.2,120.1 139.9,122 C131.8,121.9 123.9,121.9 115.8,121.9 Z" id="Shape" fill="#F05022"/><path d="M242.2,83.1 C242.2,85.1 242.2,87 242.2,89 C238,89 233.8,89 229.6,89 C229.6,100 229.6,110.9 229.6,121.9 C227.2,121.9 224.9,121.9 222.5,121.9 C222.5,110.9 222.5,100 222.5,89.1 C218.4,89.1 214.2,89.1 210,89.1 C210,87.1 210,85.2 210,83.2 C220.7,83.1 231.4,83.1 242.2,83.1 Z" id="Shape" fill="#F05022"/><path d="M149.3,70.3 C146.8,70.3 144.5,70.3 142.1,70.3 C142.1,59.4 142.1,48.5 142.1,37.5 C137.9,37.5 133.8,37.5 129.6,37.5 C129.6,35.5 129.6,33.6 129.6,31.6 C140.3,31.6 151,31.6 161.7,31.6 C161.7,33.5 161.7,35.4 161.7,37.5 C157.6,37.5 153.5,37.5 149.3,37.5 C149.3,48.4 149.3,59.3 149.3,70.3 Z" id="Shape" fill="#F05022"/><path d="M120.2,64.1 C125.7,64.1 131.2,64.1 136.9,64.1 C136.6,66.2 136.3,68.2 136,70.2 C128.3,70.2 120.6,70.2 112.9,70.2 C112.9,57.3 112.9,44.4 112.9,31.5 C115.3,31.5 117.6,31.5 120,31.5 C120,31.7 120.1,31.9 120.1,32.2 C120.1,42.5 120.1,52.8 120.1,63.1 C120.1,63.4 120.1,63.7 120.1,63.9 C120.1,64 120.1,64.1 120,64.2 C120.1,64.2 120.1,64.2 120.2,64.1 Z" id="Shape" fill="#F05022"/><path d="M206.9,31.5 C209.3,31.5 211.6,31.5 214,31.5 C214,44.4 214,57.3 214,70.2 C211.7,70.2 209.3,70.2 206.9,70.2 C206.9,57.4 206.9,44.5 206.9,31.5 Z" id="Shape" fill="#F05022"/><path d="M253.7,121.9 C251.3,121.9 249,121.9 246.6,121.9 C246.6,109 246.6,96.1 246.6,83.2 C249,83.2 251.3,83.2 253.7,83.2 C253.7,96 253.7,108.9 253.7,121.9 Z" id="Shape" fill="#F05022"/><path d="M234.3,12.4 C235.6,14.8 237,17.1 238.4,19.6 C236.6,19.6 235,19.6 233.3,19.6 C232.1,17.5 230.9,15.3 229.8,13.2 C228.9,13.2 228,13.2 227,13.2 C227,15.4 227,17.4 227,19.6 C225.4,19.6 223.9,19.6 222.3,19.6 C222.3,13.5 222.3,7.5 222.3,1.4 C222.5,1.3 222.6,1.2 222.8,1.2 C226.2,1.2 229.5,1.2 232.9,1.4 C235.8,1.6 237.5,3.2 238,5.7 C238.6,8.6 237.5,10.6 234.9,12 C234.7,12.2 234.5,12.3 234.3,12.4 Z M226.9,9.6 C228.5,9.6 230,9.7 231.4,9.6 C232.6,9.5 233.3,8.6 233.3,7.3 C233.3,6 232.7,4.9 231.5,4.9 C230,4.8 228.4,4.9 226.8,4.9 C226.9,6.4 226.9,7.9 226.9,9.6 Z" id="Shape" fill="#A6AFB7"/><path d="M116.2,19.6 C114.7,19.6 113.3,19.6 111.7,19.6 C109.6,16 107.4,12.3 105.1,8.2 C105.1,12.2 105.1,15.8 105.1,19.5 C103.6,19.5 102.3,19.5 100.9,19.5 C100.9,13.5 100.9,7.4 100.9,1.3 C102.4,1.3 103.9,1.3 105.5,1.3 C107.6,5 109.8,8.8 112.2,13 C112.2,8.9 112.2,5.2 112.2,1.3 C113.6,1.3 114.9,1.3 116.3,1.3 C116.2,7.4 116.2,13.5 116.2,19.6 Z" id="Shape" fill="#A5AFB7"/><path d="M150.6,11.8 C150.6,13.3 150.6,14.6 150.6,16.1 C153.8,16.1 156.9,16.1 160.1,16.1 C160.1,17.4 160.1,18.5 160.1,19.6 C155.4,19.6 150.7,19.6 145.9,19.6 C145.9,13.5 145.9,7.5 145.9,1.3 C150.4,1.3 154.8,1.3 159.3,1.3 C159.3,2.4 159.3,3.5 159.3,4.8 C156.4,4.8 153.6,4.8 150.6,4.8 C150.6,6 150.6,7 150.6,8.1 C153.2,8.1 155.9,8.1 158.6,8.1 C158.6,9.4 158.6,10.4 158.6,11.7 C156,11.8 153.3,11.8 150.6,11.8 Z" id="Shape" fill="#A6AFB7"/><path d="M81.4,19.6 C79.8,19.6 78.3,19.6 76.6,19.6 C78.9,13.4 81.1,7.4 83.3,1.3 C84.9,1.3 86.4,1.3 88.1,1.3 C90.4,7.3 92.7,13.4 95,19.6 C93.3,19.6 91.8,19.6 90.1,19.6 C89.8,18.7 89.5,17.8 89.1,16.8 C86.9,16.8 84.7,16.8 82.4,16.8 C82.1,17.8 81.7,18.7 81.4,19.6 Z M88,13.3 C87.3,10.8 86.5,8.5 85.8,6.1 C85.7,6.1 85.6,6.1 85.5,6.1 C84.8,8.5 84.1,10.8 83.4,13.3 C85.1,13.3 86.5,13.3 88,13.3 Z" id="Shape" fill="#A5AEB6"/><path d="M23.9,19.6 C22.2,19.6 20.6,19.6 19,19.6 C18.7,18.7 18.3,17.8 18,16.8 C15.8,16.8 13.6,16.8 11.3,16.8 C11,17.7 10.6,18.6 10.3,19.6 C8.7,19.6 7.2,19.6 5.4,19.6 C7.7,13.4 9.9,7.4 12.1,1.3 C13.7,1.3 15.3,1.3 16.9,1.3 C19.3,7.4 21.5,13.4 23.9,19.6 Z M14.8,6.2 C14.7,6.2 14.6,6.2 14.5,6.1 C13.8,8.5 13.1,10.9 12.4,13.3 C14,13.3 15.4,13.3 16.9,13.3 C16.2,10.9 15.5,8.5 14.8,6.2 Z" id="Shape" fill="#A5AEB6"/><path d="M265.6,1.3 C267.9,7.4 270.2,13.4 272.5,19.6 C270.8,19.6 269.2,19.6 267.6,19.6 C267.3,18.7 267,17.8 266.6,16.8 C264.4,16.8 262.1,16.8 259.9,16.8 C259.6,17.7 259.3,18.6 259,19.5 C257.4,19.5 255.9,19.5 254.1,19.5 C256.4,13.4 258.6,7.3 260.8,1.2 C262.4,1.3 263.9,1.3 265.6,1.3 Z M265.6,13.3 C264.9,10.8 264.2,8.5 263.4,6.1 C263.3,6.1 263.2,6.1 263.1,6.1 C262.4,8.5 261.7,10.9 261,13.3 C262.6,13.3 264,13.3 265.6,13.3 Z" id="Shape" fill="#A5AEB6"/><path d="M182.2,19.6 C180.6,19.6 179.1,19.6 177.6,19.6 C177.6,13.6 177.6,7.5 177.6,1.3 C182.3,1.3 186.9,1.3 191.5,1.3 C191.5,2.4 191.5,3.5 191.5,4.7 C188.4,4.7 185.4,4.7 182.3,4.7 C182.3,6 182.3,7.2 182.3,8.5 C185.1,8.5 187.9,8.5 190.8,8.5 C190.8,9.8 190.8,10.9 190.8,12.1 C188,12.1 185.2,12.1 182.2,12.1 C182.2,14.8 182.2,17.1 182.2,19.6 Z" id="Shape" fill="#A6B0B8"/><path d="M34.2,1.3 C34.2,6.1 34.2,10.8 34.2,15.7 C36.6,15.7 39,15.7 41.4,15.7 C41.4,17.1 41.4,18.2 41.4,19.5 C37.5,19.5 33.7,19.5 29.8,19.5 C29.8,13.5 29.8,7.4 29.8,1.3 C31.2,1.3 32.6,1.3 34.2,1.3 Z" id="Shape" fill="#A4AEB6"/><path d="M59.6,19.6 C55.7,19.6 51.9,19.6 48,19.6 C48,13.5 48,7.5 48,1.4 C49.5,1.4 50.9,1.4 52.5,1.4 C52.5,6.2 52.5,10.9 52.5,15.8 C54.9,15.8 57.2,15.8 59.6,15.8 C59.6,17.1 59.6,18.3 59.6,19.6 Z" id="Shape" fill="#A4AEB6"/><path d="M70.6,19.6 C69.1,19.6 67.7,19.6 66.2,19.6 C66.2,13.5 66.2,7.5 66.2,1.3 C67.7,1.3 69.1,1.3 70.6,1.3 C70.6,7.4 70.6,13.5 70.6,19.6 Z" id="Shape" fill="#A5AFB7"/><path d="M28.8,47.2 C28.8,47.3 28.8,47.3 28.9,47.5 C28.8,47.4 28.7,47.4 28.6,47.4 C28.7,47.3 28.7,47.2 28.8,47.2 Z" id="Shape" fill="#F05022"/><path d="M28.6,53.1 C28.7,53.1 28.8,53.1 28.9,53 C28.8,53.1 28.8,53.2 28.8,53.3 C28.7,53.3 28.6,53.2 28.6,53.1 Z" id="Shape" fill="#F05022"/><path d="M50.4,116 C50.3,116 50.3,116.1 50.1,116.1 C50.2,116 50.2,115.9 50.2,115.8 C50.3,115.9 50.3,115.9 50.4,116 Z" id="Shape" fill="#F05022"/><path d="M229.2,53.1 C229.2,53 229.2,53 229.1,52.8 C229.2,52.9 229.3,52.9 229.4,52.9 C229.3,53 229.2,53.1 229.2,53.1 Z" id="Shape" fill="#F05022"/><path d="M229.4,64.4 C229.3,64.4 229.3,64.5 229.2,64.5 C229.2,64.4 229.2,64.3 229.2,64.2 C229.2,64.2 229.3,64.3 229.4,64.4 Z" id="Shape" fill="#F05022"/><path d="M120.2,64.1 C120.1,64.1 120.1,64.2 120,64.2 C120,64.1 120.1,64 120.1,63.9 C120.1,64 120.1,64.1 120.2,64.1 Z" id="Shape" fill="#F05022"/></g><g id="Layer_8" transform="translate(296.000000, 0.000000)" fill="#F05022"><path d="M182.3,39.5 C181.3,40.3 180.5,40.9 179.6,41.6 C179.5,41.6 179.5,41.5 179.5,41.5 C180.4,40.2 181.3,38.9 182.2,37.7 C181.9,37.2 181.5,37.3 181.1,37.3 C180.9,37.5 180.8,37.6 180.6,37.8 C180.5,37.9 180.5,38.1 180.3,38.3 C180.2,38.5 180,38.6 179.8,38.8 C179.7,38.9 179.5,39.1 179.4,39.2 C179.3,39.4 179.2,39.6 179,39.8 C178.9,40 178.7,40.1 178.6,40.2 C178.4,40.3 178.4,40.6 178,40.6 C178.4,39.7 178.8,38.8 179.2,37.9 C179.5,37.2 179.9,36.5 179.7,35.6 C179.5,35.6 179.4,35.6 179.2,35.6 C178,36.9 177.5,38.7 176.5,40.4 C176.2,38.6 176.9,37.2 177.1,35.6 C176.9,35.5 176.6,35.4 176.2,35.3 C175.7,36.6 175.2,37.7 175,39 C174.7,40.4 174.5,41.8 173.1,42.6 C172.8,42.2 172.6,41.8 172.3,41.5 C172,41.1 171.6,40.8 171.2,40.3 C170.9,40.6 170.7,40.9 170.4,41.2 C170.6,41.7 170.9,42.3 171.1,42.7 C171,43.6 171,44.1 171,44.7 C171,45.4 170.7,46.1 170.3,46.7 C169.9,47.2 169.7,47.8 169.5,48.4 C169.3,49 169,49.7 168.7,50.2 C168.4,50.7 167.9,51.1 167.6,51.6 C167.1,52.3 166.6,53 166.4,53.8 C165.9,55.3 165.4,56.9 164.8,58.5 C164.6,58.4 164.5,58.3 164.4,58.2 C164.1,57.9 163.9,57.6 163.6,57.4 C163.1,57 162.5,56.8 161.9,56.6 C160.4,56 159.4,54.9 158.3,53.7 C158.2,53.6 158.3,53.4 158.2,53.4 C157.2,52.8 156.4,51.9 155.4,51.4 C154.2,50.7 153.2,49.8 151.7,49.5 C151.9,49.4 152.1,49.3 152.2,49.2 C152.2,49 152.2,48.8 152.2,48.8 C153.7,47.9 154.9,46.7 156.4,46.4 C156.5,46.2 156.5,46.1 156.5,46 C156.8,45.6 157.1,45.2 157.4,44.8 C157.7,44.2 157.9,43.6 158.1,43.1 C158.5,42.3 158.4,41.5 158.1,40.7 C158.3,40.4 158.5,40.2 158.2,39.8 C158,39.5 157.9,39 157.8,38.7 C157.7,38.2 157.4,38.4 157.1,38 C157.1,38.6 157.5,38.7 157.3,39.2 C157.1,39.3 156.8,39.5 156.7,39.6 C156.2,38.9 155.7,39.9 155.2,39.6 C155.1,39.5 155.1,39.3 155,39.2 C154.9,39.3 154.8,39.3 154.7,39.4 C153.8,40 152.9,40.2 151.8,40.1 C151.8,40 151.8,39.9 151.8,39.8 C151.9,39.8 152,39.7 152,39.7 C152.5,39.7 152.9,39.5 153.4,39.4 C153.8,39.3 154.4,39.2 154.8,39.2 C154.4,39 153.8,39 153.8,39.1 C153.2,39.2 153.2,39.2 152.8,39.3 C152.3,39.4 152.1,39.4 151.6,39.6 C151.1,39.8 150.6,39.7 150.1,39.7 C150.6,39.1 150.3,38.5 150.4,38.1 C150.2,37.4 149.6,37.7 149.3,37.6 C149.4,37.3 149.4,37 149.5,36.7 C149.5,36.4 149.4,36 149.6,35.8 C149.9,35.4 149.8,35 149.7,34.7 C149.5,34.1 149.5,33.4 149.5,32.7 C149.5,32.6 149.4,32.5 149.4,32.4 C149.2,31.6 148.8,30.8 148.6,30 C148.4,29.5 148.2,29 147.8,28.6 C147.5,28.3 147.2,27.9 146.8,27.6 C146.1,27.1 145.4,26.4 144.6,26.5 C143.7,26.2 143.1,25.9 142.5,25.9 C142,25.8 141.5,25.6 141,26.1 C140.2,26 139.7,26.6 139.1,26.8 C138,27.1 137,27.6 136.1,28.3 C135.1,29.1 134.4,30 133.7,31.1 C133,32.2 132.9,33.5 132.4,34.8 C132.3,35.1 132.2,35.5 132.2,35.8 C132.1,36.9 132.5,37.9 133.4,38.6 C133.4,38.8 133.4,39 133.4,39.1 C133.1,39.2 132.7,39.3 132.5,39.4 C132.3,40.9 132.9,42.2 133.3,43.5 C133.5,44.1 133.9,44.5 134.5,44.5 C134.8,45.1 135,45.7 135.4,46.3 C135.7,46.8 136.2,47.3 136.5,47.7 C136.3,48.3 136.1,48.8 135.9,49.5 C135.2,49.7 134.5,49.9 133.8,50.1 C132.8,50.3 131.9,50.7 130.9,50.7 C129.7,50.6 128.5,51 127.4,51.3 C126.2,51.6 125.1,52.2 124.1,52.9 C122,54.3 119.9,55.8 117.8,57.2 C116.9,57.8 115.9,58.4 114.8,58.7 C114.3,58.8 113.9,59.2 113.4,59.4 C113.1,59.6 112.8,59.9 112.4,60.1 C112.5,58.6 112.5,57.2 112.6,55.9 C112.7,54.5 112,53.2 112.1,51.7 C112.3,51.4 112.6,51.1 112.9,50.7 C113.2,50.2 113.7,49.6 113.8,49 C114.1,47.6 114.5,46.2 114.8,44.9 C114.9,44.5 115,44.1 115,43.7 C115.1,43.3 115.1,42.8 115.3,42.5 C115.5,42.1 115.4,41.6 115.5,41.3 C116,40.5 115.7,39.8 115.4,39.1 C115,37.9 114.3,36.8 113,36.3 C112.2,36 111.5,35.6 110.7,35.2 C109.1,34.5 107.6,33.7 106.1,33 C105.4,32.7 104.7,32.3 104,32.4 C103.5,32.6 103.1,32.8 102.8,32.9 L102.8,30.7 C104.6,29.6 105.7,27.9 106.6,26 C107,25.8 107.3,25.7 107.5,25.6 C107.8,25.1 108.1,24.7 108.3,24.2 C108.5,23.7 108.6,23.1 108.8,22.6 C109,21.8 109,20.9 109.4,20.2 C109.7,19.7 109.3,19.4 109.3,19 C109.3,18.3 108.7,18.5 108.3,18.3 C109,17.4 108.9,16.4 109.3,15.5 C109.2,15.3 109.1,15.1 109.1,14.9 C109.1,14.7 109.1,14.4 109.1,14.2 C109.1,14 109.3,13.9 109.3,13.7 C109.3,13.5 109.3,13.3 109.3,13.1 C109.3,12.9 109.3,12.6 109.3,12.4 C109.3,12.2 109.5,12.1 109.5,12 C109.3,11.6 109.2,11.2 109.1,10.9 C109.5,9.9 108.9,8.1 107.3,6.2 C107.5,6.1 107.7,6 107.9,5.9 C107.5,5.3 107.2,4.7 106.9,4.2 C106.7,3.9 106.4,3.6 106.1,3.4 C105.5,3 104.8,2.7 104.1,2.4 C103.9,2.3 103.7,2.2 103.5,2.2 C102.7,2.2 102.1,1.8 101.5,1.5 C100.9,1.4 100.2,1.7 99.7,1.3 C99.2,1 98.7,0.9 98.2,1 C97.8,0.7 97.4,0.5 97,0.2 C96.7,0.3 96.5,0.4 96.2,0.5 C95.9,0.5 95.6,0.5 95.2,0.5 C94.5,1.1 93.8,1.8 93,2.4 C92.7,2.7 92.2,2.8 91.8,3 C91.8,3 91.8,3 91.8,2.9 C91,3.6 90.3,4.2 89.6,4.8 C89.7,5 89.8,5.1 89.8,5.2 C89.6,5.9 88.7,5.5 88.6,6.2 C88.5,6.7 88.2,7.1 88,7.5 C88.1,7.6 88.1,7.7 88.2,7.8 C88,8.1 87.8,8.3 87.7,8.6 C87.5,9.2 87.2,9.9 87.1,10.5 C87,11.2 86.4,11.9 86.9,12.7 C87,12.9 87.1,13.4 86.8,13.7 C86.6,14 86.9,14.5 86.5,14.7 C86.9,15.5 86.6,16.4 86.7,17.3 C86.7,17.5 86.8,17.7 86.9,17.9 C86.6,18.3 86.4,18.8 86.5,19.3 C86.6,20.7 86.9,22.1 87.4,23.4 C87.1,24 87.8,24.2 88,24.6 C88.1,24.9 88.7,25.1 89.1,25.4 C89.2,25.8 89.3,26.2 89.5,26.6 C89.7,26.6 89.9,26.7 90.1,26.7 C90.4,27.1 90.6,27.4 90.8,27.7 C91.1,28 91.5,28.2 91.8,28.5 C91.7,29.2 91.8,29.9 91.6,30.6 C90.9,32.3 90.9,32.8 89.2,33.4 C89.2,33.4 89.2,33.4 89.2,33.4 C89.2,33.4 89.2,33.4 89.2,33.4 C87.3,32.7 85.5,32.9 83.6,33.3 C82.5,33.9 81.3,34.4 80,34.4 C78.5,34.4 77.5,35.2 76.3,36 C76.1,36.8 75.3,37.3 74.8,37.9 C74,38.9 73.3,39.9 72.7,40.9 C71.9,42.1 71.2,43.3 70.2,44.3 C69.9,44.6 69.4,44.8 69.3,45.4 C68.5,46.2 67.8,47.1 66.8,47.7 C65.6,48.4 64.6,49.3 63.8,50.6 C63.5,51.2 63.1,51.8 62.6,52.3 C60.7,54.1 59,56.2 56.9,57.8 C55.8,58.7 54.7,59.7 53.6,60.6 C53.3,60.9 52.9,61.1 52.6,61.4 C52.1,61.9 51.6,62.5 51,63 C50.4,63.4 50,64 49.7,64.4 C48.6,64.4 48.1,63.3 47.2,63.1 C47,63.1 46.8,62.7 46.6,62.4 C46.1,61.8 45.8,61 45,60.6 C44.6,60.4 44.3,59.8 44.2,59.4 C43.9,57.8 43.2,56.4 42.5,55.1 C42.1,54.3 41.5,53.6 40.6,53.1 C39.7,52.6 38.8,52.1 37.9,51.6 C37.1,51.1 36.4,50.7 35.5,50.4 C34.7,50.1 34,49.7 33.1,49.4 C32.9,49.3 32.6,49.1 32.5,48.9 C31.8,47.7 30.8,46.9 29.6,46.4 C29.3,46.3 29.1,46.1 28.9,46 C29.1,44.9 30.2,44.2 30.1,43 C30.3,42.8 30.4,42.7 30.6,42.6 C30.2,42.3 30.4,41.9 30.4,41.4 C30.6,41.5 30.8,41.6 31,41.7 C31.1,41.6 31.1,41.4 31.2,41.2 C31.6,41.7 32.1,41.2 32.6,41.6 L32.6,42.2 L33,42.2 L33,41.2 C32.7,41.1 32.4,41 32.1,40.9 C32.1,40.7 32.1,40.5 32,40.3 C31.7,40.2 31.4,40 31.1,39.9 C31.3,39.7 31.6,39.5 31.9,39.2 C32.2,39.5 32.1,40 32.8,39.9 C32.8,39.8 32.7,39.6 32.6,39.5 C32.9,39.3 33.2,39.2 33.4,39 C33.5,39.3 33.7,39.6 33.8,39.9 L34.4,39.9 L34.4,39 C34.2,38.9 34.1,38.9 33.9,38.8 C34,38.6 34.1,38.4 34.2,38.3 C33.9,38.1 33.6,38 33.5,37.9 C33.2,38.1 32.9,38.3 32.6,38.6 C32.5,38.3 32.4,38.1 32.2,37.7 C32.5,37.9 32.6,38 32.7,38.1 C33,37.7 33.3,37.3 33.6,37 C33.6,36.9 33.8,37 34,36.9 L34,37.2 C34.4,37.5 34.6,37.7 34.7,37.9 C34.7,37.7 34.6,37.4 34.5,37.2 C34.4,37 34.2,36.7 34,36.4 C34.4,36.5 34.7,36.6 35,36.6 L35,36 C34.5,35.6 33.9,35.2 33.4,34.8 C33.8,34.5 34.1,34.9 34.5,34.9 C34.6,34.7 34.7,34.6 34.7,34.4 C34.8,34.5 34.9,34.6 34.9,34.6 C35.1,34.5 35.3,34.4 35.6,34.3 L35.6,33.7 C35.9,33.8 36.2,33.9 36.4,34 C36.4,34 36.5,33.9 36.5,33.9 C36.2,33.6 36,33.4 35.7,33.1 C35.7,32.9 35.7,32.7 35.7,32.6 C36,32.7 36.3,33 36.6,32.7 C36,32.4 35.4,32.1 34.8,31.9 C34.7,32 34.6,32.1 34.5,32.2 C34.4,31.8 34.4,31.4 34.3,31.1 C34.5,31 34.8,30.9 35,30.8 C35.1,30.8 35.1,30.7 35.1,30.7 C34.9,30.5 34.8,30.2 34.6,30 C34.7,29.9 34.8,29.8 34.9,29.7 C34.7,29.5 34.4,29.4 34.2,29.2 C34.3,29.1 34.5,29.1 34.5,29.1 C34.5,28.5 34.8,28.1 34.9,27.5 L34,27.5 C33.9,27.6 33.9,27.8 33.8,28 C33.5,27.8 33.2,27.7 33,27.6 C33.1,27.4 33.2,27.2 33.3,27 C33.6,26.9 33.9,26.9 34,26.7 C34.2,26.5 34.1,26.2 34.2,26 C33.5,26.1 32.9,26.1 32.3,26.2 L32.3,25.8 C32.5,25.7 32.6,25.7 32.7,25.6 C32.4,25.5 32.2,25.5 32,25.6 C31.8,25.6 31.5,25.7 31.2,25.8 C31.4,25.3 31.7,25 31.4,24.5 C31.1,24.6 30.8,24.7 30.4,24.8 C30.2,24.5 30,24.2 29.8,23.9 C29.6,23.9 29.3,23.8 29.1,23.8 C29.2,23.5 29.3,23.3 29.5,23 C29.3,22.8 29.1,22.7 28.9,22.6 L28.9,21.6 C28.8,21.5 28.7,21.4 28.6,21.3 C28.5,21.4 28.4,21.5 28.2,21.6 C28.3,21.7 28.4,21.8 28.5,22 L27.3,22 C27.3,22.4 27.2,22.7 27.2,23 C27.2,23 27.1,23 27.1,23 C27,22.7 26.8,22.3 26.7,22 C26.6,22 26.5,22.1 26.4,22.1 L26.4,22.7 L25.8,22.7 C25.6,22.4 25.5,22.2 25.4,22 L24.1,22 C23.3,23 21.9,23.5 21.2,24.9 L20.2,24.9 C20,25.3 19.9,25.7 19.8,26.1 C18.8,25.9 18.3,25.1 17.9,24.5 L17,24.5 C17.2,24.7 17.4,24.9 17.5,25.1 C17.4,25.5 17.3,25.8 17.1,26.3 C16.8,25.9 16.5,25.5 16.3,25.3 C15.5,25.4 15.1,24.9 14.6,24.7 C14,24.5 13.5,24.2 12.9,24.2 C12.5,23.6 11.8,23.6 11.3,23.5 C10.7,23.4 10.2,23.1 9.6,23 C9,22.9 8.4,22.9 7.9,22.8 C7.7,23 7.4,23.1 7.2,23.3 C7.9,23.8 8.5,23.7 9,23.5 C9.4,23.8 9.7,24.2 10.2,24.6 C9.7,24.6 9.3,24.7 9.1,24.6 C8.5,24.2 7.9,24.6 7.4,24.3 C6.8,23.9 6.3,24.2 5.7,24.1 C5.5,24.3 5.4,24.4 5.2,24.6 C5.4,24.8 5.6,25 5.8,25.2 C5.6,25.3 5.5,25.3 5.3,25.4 C5.3,25.5 5.4,25.7 5.4,25.8 C5.7,25.7 6,25.5 6.2,25.6 C6.4,25.6 6.6,25.9 6.9,26 C6.4,26.7 5.6,26.5 5.1,26.8 C4.8,26.4 4.5,26.1 4.4,25.9 L2.8,25.9 C2.8,26 2.8,26.1 2.8,26.2 C3.2,26.1 3.6,26.1 4.1,26 C3.9,26.2 3.9,26.3 3.8,26.4 C4,26.8 4.3,27.1 4.5,27.4 C4.9,27.4 5.3,27.5 5.7,27.5 C4.9,27.9 4.2,28.2 3.5,28.6 C3.3,28.5 3.1,28.4 2.8,28.3 C2.5,28.6 2.2,28.9 1.9,29.2 C2.1,29.4 2.3,29.6 2.5,29.8 L3.3,29.8 C3.1,30 2.9,30.2 2.7,30.4 C2.6,30.4 2.6,30.3 2.4,30.2 L2.4,30.7 L3.3,30.7 C3.4,30.5 3.6,30.2 3.7,30 L4.5,30 C4.2,30.2 4,30.2 3.8,30.3 L3.8,31 C3.6,31.2 3.3,31.4 2.9,31.7 C3.4,31.8 3.7,31.8 4.2,31.9 C3.9,32.2 3.8,32.5 3.6,32.6 C3.7,32.8 3.8,32.9 3.8,33.1 C3.6,33.2 3.4,33.3 3.2,33.4 C3.3,33.5 3.3,33.7 3.4,33.9 C3.7,33.7 3.9,33.5 4.2,33.3 L4.2,34.5 C4,34.6 3.9,34.6 3.7,34.7 C3.7,34.8 3.8,35 3.9,35.2 C4.2,35 4.4,34.8 4.7,34.6 C4.8,34.8 5,34.9 5.1,35 C5,35.2 4.9,35.3 4.8,35.4 C5,35.5 5.1,35.5 5.3,35.6 C5.2,35.7 5.1,35.8 5,35.9 C5.3,36 5.5,36.1 5.7,36.2 C5.8,36.2 5.9,36.3 6.1,36.4 C5.8,36.6 5.6,36.7 5.5,36.8 C5.4,37.9 6.5,38.2 6.6,39 C6.5,39 6.3,39.1 6.2,39.2 C6.9,39.8 7.8,39.5 8.8,39.7 C8.5,39.9 8.3,40.1 8.1,40.2 C8.4,40.6 8.6,41.1 9.1,41.1 C9.3,41 9.4,41 9.5,40.9 C9.5,41.5 8.6,41.7 9.1,42.3 C9.7,42 10.4,41.7 10.9,41.4 C11.2,41.6 11.5,41.8 11.6,42 C11.8,42.3 11.8,42.6 11.9,42.9 C11.7,43 11.5,43 11.4,43.1 C11.5,43.3 11.6,43.4 11.7,43.5 C11.9,43.4 12.1,43.3 12.2,43.2 C12.7,44.7 14.2,45.4 14.9,46.7 C14.8,46.8 14.6,46.9 14.5,47 C14.3,47.2 14.1,47.3 13.9,47.5 C13.5,47.8 13.1,48.2 12.8,48.6 C12.7,48.8 12.7,49.1 12.9,49.2 C13,49.3 13.1,49.4 13.2,49.5 C13.2,49.7 13.3,49.9 13.3,50.2 C12.5,50.4 11.7,50.6 11,51 C10.2,51.3 9.6,51.9 9,52.6 L9,53.1 C7.6,54.2 7,56.1 5.9,57.4 C5.9,57.5 5.9,57.6 5.9,57.6 C5.8,58.7 6,59.9 6.2,61 C6.3,61.7 6.3,62.4 6.4,63.1 C5.9,63.5 6.4,64.2 6.1,64.5 C5.7,65 6,65.6 5.9,66.1 C5.9,66.6 5.9,67.1 5.9,67.7 C5.9,68.6 5.7,69.3 5.4,70.1 C5.2,70.7 5,71.4 4.8,72 C4.7,72.1 4.6,72.2 4.5,72.3 C4.2,72.5 4,72.7 3.7,72.9 C3.4,73.2 3.3,73.6 3.4,74 C2.9,74.4 2.4,75 1.9,75.4 C1.6,75.7 1.7,76 1.8,76.3 C1.8,76.5 1.9,76.6 1.9,76.8 C1.9,76.9 2,77.3 2,77 C2,77.2 2.1,77.3 2.2,77.4 C2.3,77.8 2.4,78.2 2.6,78.6 C2.7,78.7 2.8,78.9 2.9,79.1 C2.9,79.3 2.8,79.5 2.9,79.7 C2.9,79.8 2.6,80.1 2.5,80.3 C2.3,80.6 2.2,81.6 2.5,82 C2.5,82 2.5,82 2.5,82 C2.5,82.2 2.5,82.4 2.4,82.6 C2.2,82.7 2.1,82.8 1.9,83 C1.6,83.3 1.5,83.8 1.6,84.2 C1.6,84.3 1.6,84.4 1.6,84.6 C1.6,84.9 1.6,85.1 1.6,85.4 C0.9,86.2 0.2,86.7 1.3,87.6 C1.6,87.9 1.9,88.5 2.4,88.6 C3.1,88.8 3.8,88.3 4.6,88.4 C4.9,88.5 5.3,88.4 5.6,88.2 C6,87.8 6.7,88.1 7.2,87.7 C7.7,87.3 7.6,86.4 8.1,86.1 C8.6,85.8 8.4,85.1 8.9,84.8 C9.1,84.7 9.2,84.5 9.1,84.4 C9.3,84.3 9.6,84.2 9.9,84 C10.2,83.6 10.1,83.2 10.2,82.7 C10.2,82.6 10.2,82.5 10.2,82.4 C10.2,82 10.1,81.5 10,81 C11.3,79.8 12.2,78.4 12.3,76.6 C12.4,76 12.6,75.5 12.9,74.8 C13,75.6 13.2,76.1 13.2,76.7 C13.2,79.9 13.2,83.1 13.2,86.3 C13.2,86.5 13.2,86.8 13.1,87 C12.9,87.3 13,87.5 13.1,87.8 C13.5,88.7 13.6,89.8 13.3,90.8 C13.1,91.5 13.2,92.1 13.5,92.8 C13.6,93 13.7,93.2 13.7,93.3 C13.3,93.9 13.5,94.6 13.5,95.2 C13.5,95.7 13.6,96.1 13.3,96.6 C13.1,96.9 13.1,97.5 13.3,97.9 C13.6,98.4 13.5,99 13.5,99.5 C13.5,100.7 13.6,101.9 13.3,103.1 C13,104 13.6,104.9 13.5,105.9 C13.4,106.9 13.8,107.9 13.8,108.9 C14.2,109.4 13.9,110.1 14.1,110.6 C14.7,112 14.2,113.4 14,114.8 C13.8,116 13.4,117.1 13.4,118.4 C13.4,118.6 13.3,118.8 13.2,119 C12.8,120 12.5,121.1 12.6,122.2 C12.7,123.5 12.8,124.8 13.1,126.1 C13.3,127.2 13.1,128.4 13.2,129.6 C13.2,129.9 13,130.2 13,130.4 C13,130.8 12.7,131.1 12.7,131.5 C12.8,132.3 12.4,133 12.1,133.8 C11.4,135.4 11.6,136.7 12.8,137.9 C13.2,138.3 13.8,138.7 14.2,139.1 C14.9,139.9 15.8,140.5 16.7,141.1 C17.5,141.6 18.5,141.9 19.4,141.7 C20.1,141.5 20.9,141.7 21.5,141.2 C21.8,141 22.1,140.7 22.4,140.5 L22.4,138.8 C23.8,137.8 23.8,137.8 23.8,136.2 C24.6,135.1 24.9,133.2 25,132.2 C25.1,131.1 24.6,130 24.8,128.9 C24.8,128.8 24.8,128.7 24.7,128.6 C24.4,128.1 24.5,127.5 24.6,127 C24.8,126.2 25,125.5 25,124.7 C25,123.4 25,122.1 25,120.7 C25,120.1 24.9,119.6 24.8,119 C24.8,118.9 24.6,118.8 24.6,118.6 C24.4,117.8 24.2,116.9 23.9,116.1 C23.7,115.7 23.6,115.2 23.7,114.8 C23.8,113.1 23.4,111.4 23.9,109.7 C23.7,109.1 24.1,108.6 24.1,108 C24.1,107.4 24.2,106.8 24.3,106.3 C24.5,105.8 24.3,105.2 24.6,104.7 C24.9,104.2 24.7,103.6 24.8,103.1 C24.9,102.6 25,102.1 25,101.5 C25,100.6 25.3,99.8 25.5,98.9 C25.6,98.4 25.9,98 26.1,97.5 C26.2,97.5 26.3,97.5 26.4,97.6 C26.4,97.7 26.4,97.9 26.4,98 C26.3,99.5 26.5,101 26.2,102.6 C26,103.6 25.9,104.8 26.4,105.9 C26.4,107.4 26.9,108.7 27.1,110.2 C27.2,110.8 27.6,111.2 27.6,111.8 C27.7,112.4 28.3,112.8 28.7,113.3 C29.5,114.2 30.4,114.5 31.6,114.5 C32,114.5 32.4,114.5 32.6,114.5 C33.3,115 33.9,115.3 34.4,115.7 C34.9,115.7 35.3,115.8 35.8,115.5 C36.7,114.9 37.3,114 37.4,112.9 C37.5,112.3 37.6,111.7 37.8,111.1 C38.1,110.1 38.5,109.1 38.4,108 C38.3,107.4 38.4,106.9 38.4,106.3 C38.4,105.7 38.2,105.2 38.2,104.6 C38.2,103.8 37.9,103.1 37.5,102.3 C37.3,99.6 38,96.9 37.7,94.4 C38.2,93.3 38.8,92.4 38.2,91.4 C38.5,90.9 38.5,90.9 38.5,90.2 C38.7,89.7 39,89.3 39.2,88.9 C39.3,87.9 39,87 39.4,86.2 C39.3,85.9 39.2,85.7 39.2,85.5 C39.3,84.2 39.1,82.9 39.4,81.5 C39.6,80.3 39.4,79 39.4,77.7 C39.4,77.7 39.4,77.6 39.4,77.6 C38.9,76.9 39.4,76.1 39.1,75.4 C38.8,74.6 38.9,73.9 38.9,73.2 C38.9,72.8 39.1,72.4 39.1,72 C39.1,71.5 39.1,71 39.1,70.6 C39,69.7 39.2,68.9 39.5,68 C40.1,68.5 40.5,69.1 41,69.5 C41,69.5 41,69.5 41,69.5 C41.1,69.6 41.2,69.7 41.4,69.7 C41.5,69.7 41.6,69.7 41.7,69.7 C41.7,69.8 41.8,70 41.8,70.1 C41.8,70.2 41.8,70.2 41.9,70.3 C41.9,70.4 42,70.5 42.1,70.6 C42.1,70.6 42.1,70.7 42.2,70.7 C42.2,70.7 42.2,70.7 42.3,70.7 C42.4,70.7 42.5,70.7 42.7,70.7 C43.1,70.5 43.4,70.4 43.8,70.2 C43.8,70.5 43.8,70.8 44.1,71.1 C44.1,71.1 44.2,71.2 44.3,71.2 C44.8,71.8 45.6,72.1 46.1,72.4 C47,72.8 47.6,72.5 48.2,72.4 C48.9,72.2 49.3,71.6 49.7,71.3 C50.2,71.4 50.6,71.4 51,71.5 C52.3,71.9 52.5,71.8 53.5,71.1 C54.3,70.6 55,70 55.8,69.6 C56.4,69.3 56.8,68.8 57.4,68.5 C58,68.2 58.6,68.2 59.3,68.1 C60.5,67.8 61.7,67.5 62.8,67 C63.8,66.6 64.6,65.9 65.6,65.8 C65.8,65.8 65.9,65.5 66.1,65.4 C66.8,65 67.4,64.5 68.1,64.1 C69.1,63.5 70.1,62.8 70.9,62 C71.4,61.5 71.9,61 72.3,60.6 C73.8,60.2 75,59.6 76.1,58.8 C76.3,58.9 76.5,59 76.7,59.1 C77.4,59.4 78.2,59.5 78.5,60.3 C78.8,61.1 79.2,61.8 78.8,62.8 C78.5,63.4 78.5,64.2 78.5,64.8 C78.5,66 78.5,67.2 78.5,68.4 C78.5,68.6 78.5,68.9 78.6,69.1 C78.9,69.5 78.9,70 78.7,70.3 C78.4,70.9 78.5,71.5 78.5,72.1 C78.5,72.3 78.6,72.5 78.5,72.6 C78,73.1 78.4,73.7 78.3,74.2 C78.2,74.7 78.1,75.2 78,75.8 C77.5,76.5 77.3,77.5 77.2,78.4 C77.1,79.8 77,81.3 77.6,82.8 C77.8,83.2 77.9,83.6 77.8,84 C77.7,84.9 78.1,85.8 77.6,86.7 C77.5,86.9 77.5,87.2 77.6,87.3 C78,87.7 77.8,88.1 77.8,88.5 C77.8,88.7 77.7,89 77.8,89.2 C78.2,90.2 78.3,91.3 78.9,92.2 C79.1,92.5 79.2,92.9 79.2,93.3 C79.2,94.4 79.5,95.5 79.7,96.6 C79.9,97.7 80.2,98.8 80.5,99.9 C80.9,101.2 81,102.5 81.3,103.7 C81.5,104.4 81.3,105.2 81.6,105.8 C81.9,106.3 81.5,107 82,107.4 C81.9,108.1 82.3,108.6 82.5,109.2 C82.8,110.9 83.4,112.4 83.9,114 C84.2,114.9 84.4,115.8 84.7,116.7 C84.3,117 83.9,117.2 83.6,117.5 C82.7,117 82.1,117.7 81.5,117.8 C81.3,118 81.3,118.2 81.2,118.3 C80.7,118.8 80.6,119.5 80.4,120.1 C80.3,120.7 80.4,121.4 80.4,122 C80.4,122.6 80.5,123.1 80.3,123.8 C80.1,124.4 80.2,125 80.2,125.7 C80.1,126.6 80.2,127.5 79.9,128.3 C79.6,129.2 80,130.1 79.5,130.9 C79.5,132.1 79.3,133.3 79.7,134.4 C80,135.3 80.2,136.3 81,137 C81.2,137.2 81.5,137.5 81.7,137.7 C81.9,137.7 82.1,137.7 82.3,137.8 C83.3,138.1 84.8,137.8 85.2,136.9 C85.6,136.1 86,135.2 86.3,134.4 C86.5,133.6 86.6,132.7 86.7,131.8 C86.8,131.7 86.9,131.5 87.1,131.1 C87.1,132.1 86.9,132.8 87.1,133.5 C87.5,134.7 87.5,136 87.8,137.3 C87.9,137.8 88,138.3 88.1,138.7 C88.7,140.5 89,142.4 89.2,144.2 C89.2,144.4 89.1,144.6 89.2,144.7 C89.5,145.2 89.5,145.8 89.4,146.3 C89.4,146.9 89.6,147.4 89.6,147.9 C89.6,148.6 89.6,149.3 89.6,150.1 C89.7,150.9 89.9,151.7 90,152.6 C90.1,153.7 90.8,154.6 90.8,155.6 C91.3,156.2 91.2,157.1 91.8,157.7 C92.7,158.6 92.6,159.6 92.3,160.6 C92.5,161.2 92.6,161.7 92.8,162.2 C93.8,162.8 94.8,163.2 95.7,163.8 C97.4,165 99.2,165.5 101.2,165.6 C102.2,165.6 103.2,165.7 104.2,165.4 C105.2,165.1 106.3,165.3 107.3,165.1 C108.2,165 109.2,164.9 109.8,164 C109.7,163.1 109.7,162.3 109.6,161.5 C109.5,161.1 109.3,160.8 109,160.5 C108.8,160.3 108.4,160.1 108.2,159.9 C107.9,159.6 107.7,159.2 107.3,159.1 C106.7,158.8 106.3,158.4 106.1,157.8 C106.1,157.7 106.1,157.7 106.1,157.6 L106.9,157.6 C106.9,157.5 106.8,157.5 106.8,157.4 C107.1,157.2 107.4,156.9 107.8,156.7 C107.6,156.2 107.8,155.8 107.6,155.3 C107.2,154.3 106.8,153.2 106.4,152.2 C105.8,150.6 105.2,149 104.4,147.5 C103.8,146.3 103.3,145.1 102.5,144 C102,143.2 101.7,142.3 101.5,141.4 C101.4,140.7 101.5,140 101.5,139.3 C101.5,138.6 101.3,137.9 101.3,137.2 C101.3,136 101,134.9 100.7,133.7 C100.4,132.5 100,131.3 100.1,130 C100.1,129.7 100.2,129.3 100.1,129.2 C99.7,128.8 100,128.3 99.9,127.8 C99.8,127.3 99.7,126.8 99.7,126.3 C99.7,126.2 99.8,126.2 99.8,126.1 C100.1,126.2 100.4,126.4 100.8,126.4 C101.7,126.4 102.6,126.4 103.6,126.2 C105.9,125.7 107.6,124.5 109,122.7 C110.5,120.8 111.1,118.5 111.5,116.2 C111.6,115.6 111.9,115 111.7,114.4 C112.2,113.6 111.9,112.7 112.1,111.8 C112.4,110.8 112.1,109.7 112.3,108.7 C112.5,107.9 112.4,106.9 112.3,106.1 C112.2,105.2 112.6,104.4 112.5,103.6 C112.4,102.3 112.7,101 112.3,99.7 C112.5,98.1 112,96.6 112.1,95 C112.1,94.6 112,94.3 112,93.9 C112.4,93.6 112.9,93.2 113.3,92.9 C113.3,92.4 113.4,91.9 113.3,91.6 C113.1,90.9 113,90.2 112.8,89.5 C112.6,88.7 112.6,88 112.6,87.2 C112.6,86.6 112.6,86 112.6,85.4 C112.6,85.2 112.6,85 112.5,84.8 C112.1,83.6 111.6,82.4 111.2,81.1 C110.9,80.1 110.4,79 110.7,77.9 C111,76.8 110.8,75.8 110.9,74.8 C110.9,74.2 110.9,73.5 110.9,72.9 C110.8,71.9 111.1,70.9 111.2,69.9 L112.9,69.9 C113.2,69.7 113.4,69.6 113.7,69.4 C114.4,68.6 115.2,68 116.1,67.5 C117.4,66.8 118.7,66.7 120,67 C120.5,66.9 121,66.7 121.3,66.6 C122.3,66.7 123,67.1 123.8,67.3 C124.7,68.2 125.7,69.2 126.7,70.2 C127.1,70.6 127.4,71 127.7,71.4 C127.7,72.2 127.7,72.8 127.7,73.4 C127.6,74.7 127.8,76 127.5,77.4 C127.3,78.6 127,79.8 127.2,81 C127.2,81.3 127.3,81.6 127.4,81.9 C127.2,82.3 126.9,82.8 126.7,83.2 C126.7,83.6 126.5,84.2 126.7,84.5 C127.1,85 126.6,85.6 127.1,86 C127.1,86.6 127.1,87.1 127.1,87.7 C127.1,88.4 127.1,89.1 126.9,89.8 C126.7,90.5 126.9,91.3 126.9,92.1 C127.1,92.2 127.4,92.4 127.6,92.5 C127.6,93 127.6,93.6 127.6,94.1 C127.6,94.7 127.8,95.2 127.8,95.8 C127.9,96.9 127.7,98.1 128,99.2 C128.2,99.8 128.1,100.5 128.2,101.1 C128.4,101.7 128.4,102.4 128.4,103 C128.6,104.3 128.5,105.6 128.6,106.9 C128.7,107.9 129,108.7 129.5,109.5 C130.2,110.8 131.5,111.7 131.8,113.2 C131.8,113.4 132,113.5 132.2,113.6 C132.5,113.9 132.8,114.1 133,114.3 C133,115.2 133,115.8 132.8,116.5 C132.6,117.3 132.6,118.3 132.8,119.1 C133,120.4 133.4,121.8 134.9,122.4 C136.1,122.4 136.9,121.9 137.5,120.8 C137.6,120.7 137.6,120.5 137.7,120.4 C138.1,119.9 138.3,119.4 138.3,118.8 C138.3,118.3 138.3,117.8 138.3,117.5 C138.6,117.3 138.8,117.1 139,117 C139.9,116.5 140.2,115.7 140.2,114.8 C140.2,112.9 140.2,111 140.2,109.2 C140.2,108.6 140.2,108.1 139.7,107.7 C139.6,107.2 139.8,106.6 139.5,106.1 C139.3,105.8 139.3,105.5 139.3,105.1 C139.3,103 139.3,100.9 139.3,98.9 C139.3,97.8 139.4,96.8 139.7,95.8 C140.3,96.8 140.7,97.8 141.4,98.7 C142,99.5 142.3,100.4 142.5,101.4 C142.6,101.9 142.5,102.4 142.7,102.9 C142.9,103.4 142.9,103.9 142.9,104.4 C143,105.4 143.6,106.3 143.4,107.3 C143.9,107.7 143.4,108.3 143.6,108.6 C143.9,109.1 143.8,109.6 143.8,110.1 C143.7,111.5 143.9,112.9 143.6,114.3 C143.4,115.2 143.6,116.2 143.6,117.2 C143.5,118.9 143.9,120.5 143.8,122.1 C143.8,122.2 143.8,122.3 143.9,122.4 C144.4,123.1 144.3,123.9 144.3,124.8 C144.3,125.9 144.3,126.9 144.3,128 C144.3,128.5 144.5,128.9 144.1,129.4 C144,129.5 144,129.9 144.1,130.1 C144.5,130.5 144.2,130.9 144.3,131.3 C144.9,132.3 145,132.7 145,133.9 C145.4,134.2 145.7,134.5 146.1,134.9 C146,135.2 145.9,135.5 145.8,135.7 C145.9,136.1 146,136.5 146,136.8 C146.7,137.3 147.4,137.6 148,138.1 C148.6,138.6 149.3,139.1 149.9,139.6 C151.3,140.8 153,141.3 154.8,141.4 C155.7,141.5 156.6,141.4 157.6,141.4 L158.2,140.8 L158.2,139.4 C157.4,138.1 155.9,137.3 155.3,135.8 C155.5,135.7 155.8,135.5 156.1,135.3 C156,134.8 156.2,134.3 155.9,133.9 C156.2,133.5 156.1,132.9 156.1,132.5 C156.2,131.9 156,131.3 156.3,130.7 C156.4,130.5 156.3,130.1 156.2,129.8 C156.2,129.6 156,129.3 156,129.1 C156.1,128.4 155.8,127.8 155.7,127.2 C155.5,126.1 155.4,125.8 155.7,124.7 C155.9,124 155.9,123.3 156.2,122.6 C156.3,122.4 156.3,122 156.1,121.7 C155.9,121.4 155.9,121.1 156.2,120.7 C156.4,120.4 156.5,120 156.5,119.6 C156.5,118.7 156.6,117.7 156.1,116.9 C156,116.7 156,116.5 156,116.3 C155.9,115.1 156,114 155.8,112.8 C155.6,111.7 155.8,110.5 155.8,109.3 C155.8,108.2 155.6,107.1 155.6,105.9 C155.6,104.7 155.2,103.5 155.4,102.3 C155.4,102.2 155.4,102.1 155.4,102.1 C155,101.7 155.3,101.2 155.2,100.7 C155.1,100.2 155,99.8 155,99.4 C154.9,98.4 154.8,97.5 154.8,96.5 C154.4,96.1 154.7,95.5 154.5,95.1 C153.8,93.3 153.3,91.4 152.4,89.5 C152.6,89.3 152.9,89 153.2,88.7 C153.2,88.7 153.2,88.5 153.1,88.4 C152.6,87.7 152.4,86.9 152.3,86.1 C152.2,85.3 151.9,84.9 151.2,84.5 C150.6,84.2 150.1,83.2 150.4,82.7 C150.6,82.3 150.6,81.9 150.6,81.6 C150.6,80.9 150.5,80.2 150.4,79.5 C150.3,78.6 150.3,77.6 150.6,76.6 C150.8,75.9 150.5,75.2 150.8,74.4 C151,73.8 150.9,73 151,72.2 C151.1,71.3 151.5,70.5 152,69.7 C152.4,69 152.8,68.3 153,67.6 C153.3,66.6 153.8,65.7 154.2,64.7 C154.4,64.2 154.8,63.7 155.1,63.2 C155.5,63.5 155.9,63.7 156.2,64.1 C156.7,64.5 157.2,64.9 157.8,65 C158.9,65.1 159.9,65.5 160.9,65.9 C162.1,66.4 163.2,66.8 164.5,66.7 C164.7,66.7 164.9,66.6 165,66.7 C165.8,67.3 166.6,66.7 167.3,66.6 C168.4,66.4 170,65 170.7,64.1 C171.2,63.4 171.6,62.7 172,62 C172.4,61.2 172.8,60.5 173.1,59.7 C173.5,58.7 173.7,57.6 174.1,56.6 C174.4,55.8 174.7,55 174.9,54.1 C175.1,53.2 175.4,52.4 176,51.7 C176.6,50.9 177.1,50.1 177.4,49.2 C177.4,49.1 177.4,49 177.5,48.9 C178,48.2 178.5,47.6 179,46.9 C179.5,46.2 179.4,45.2 180,44.6 C179.9,44.1 180.5,43.8 180.6,43.4 C180.7,43 181.1,42.6 181.4,42.3 C181.9,41.8 182.4,41.3 182.9,40.8 C182.4,40.2 182.3,39.9 182.3,39.5 Z M5.5,86 C5.2,85.8 5.8,85.3 6.2,85.5 L6.3,86.2 C6.2,86.2 5.9,86.2 5.5,86 Z" id="new_figures"/></g></g></g></g></svg>
