<?xml version="1.0" encoding="UTF-8"?>
<svg width="290px" height="26px" viewBox="0 0 290 26" version="1.1" xmlns="http://www.w3.org/2000/svg" xmlns:xlink="http://www.w3.org/1999/xlink">
    <g id="Page-1" stroke="none" stroke-width="1" fill="none" fill-rule="evenodd">
        <g id="alliance-horizontal-orange" fill-rule="nonzero">
            <g id="Page-1_1_" fill="#F05022">
                <g id="ahg-logo-horizontal-F05022">
                    <path d="M29,6.4 C28.9,6.5 28.7,6.6 28.6,6.7 L28.6,6.7 C28.7,6.5 28.9,6.3 29,6.1 C28.9,6 28.9,6 28.8,6 C28.8,6 28.7,6 28.7,6.1 L28.7,6.2 L28.6,6.3 C28.6,6.3 28.6,6.3 28.5,6.4 C28.5,6.4 28.5,6.5 28.4,6.5 C28.4,6.5 28.4,6.5 28.3,6.6 C28.3,6.6 28.3,6.7 28.2,6.7 C28.3,6.6 28.3,6.4 28.4,6.3 C28.4,6.2 28.5,6.1 28.5,5.9 L28.4,5.9 C28.2,6.1 28.1,6.4 28,6.6 C28,6.3 28.1,6.1 28.1,5.9 L28,5.9 C27.9,6.1 27.8,6.3 27.8,6.5 C27.8,6.7 27.7,6.9 27.5,7.1 C27.5,7 27.4,7 27.4,6.9 C27.3,6.8 27.3,6.8 27.2,6.7 L27.1,6.8 C27.1,6.9 27.2,7 27.2,7 C27.2,7.1 27.2,7.2 27.2,7.3 C27.2,7.4 27.2,7.5 27.1,7.6 C27,7.7 27,7.8 27,7.9 C27,8 26.9,8.1 26.9,8.2 C26.9,8.3 26.8,8.3 26.7,8.4 C26.6,8.5 26.5,8.6 26.5,8.7 C26.4,8.9 26.3,9.2 26.3,9.4 C26.3,9.4 26.3,9.4 26.2,9.4 L26.1,9.3 C26,9 25.9,9 25.8,9 C25.6,8.9 25.4,8.7 25.2,8.6 L25.2,8.6 C25.1,8.5 24.9,8.4 24.8,8.3 C24.6,8.2 24.5,8 24.2,8 L24.3,8 L24.3,7.9 C24.5,7.8 24.7,7.6 25,7.5 C25,7.5 25,7.5 25,7.4 C25,7.3 25.1,7.3 25.1,7.2 C25.1,7.1 25.2,7 25.2,6.9 C25.3,6.8 25.2,6.6 25.2,6.5 C25.2,6.5 25.3,6.4 25.2,6.4 C25.2,6.4 25.2,6.3 25.1,6.2 C25.1,6.1 25,6.2 25,6.1 C25,6.2 25.1,6.2 25,6.3 C25,6.3 24.9,6.3 24.9,6.4 C24.8,6.3 24.7,6.4 24.7,6.4 C24.7,6.4 24.7,6.4 24.7,6.3 C24.7,6.3 24.7,6.3 24.6,6.3 C24.5,6.4 24.3,6.4 24.2,6.4 C24.2,6.4 24.2,6.4 24.2,6.3 L24.2,6.3 C24.3,6.3 24.3,6.3 24.4,6.3 C24.5,6.3 24.6,6.3 24.6,6.3 C24.5,6.3 24.4,6.3 24.4,6.3 C24.3,6.3 24.3,6.3 24.2,6.3 C24.1,6.3 24.1,6.3 24,6.3 C23.9,6.3 23.9,6.3 23.8,6.3 C23.9,6.2 23.8,6.1 23.8,6 C24,6 23.9,6 23.9,6 C23.9,5.9 23.9,5.9 23.9,5.9 L23.9,5.8 C23.9,5.7 23.9,5.7 23.9,5.6 C23.9,5.5 23.9,5.4 23.9,5.3 L23.9,5.3 C23.9,5.2 23.8,5.1 23.8,4.9 C23.8,4.8 23.7,4.7 23.7,4.7 C23.6,4.6 23.6,4.6 23.5,4.5 C23.4,4.4 23.3,4.3 23.2,4.3 C23.1,4.3 23,4.2 22.9,4.2 C22.8,4.2 22.7,4.2 22.7,4.2 C22.6,4.2 22.5,4.3 22.4,4.3 C22.2,4.3 22.1,4.4 21.9,4.5 C21.7,4.6 21.6,4.8 21.5,4.9 C21.4,5.1 21.4,5.3 21.3,5.5 C21.3,5.5 21.3,5.6 21.3,5.7 C21.3,5.9 21.4,6 21.5,6.1 L21.5,6.2 C21.4,6.2 21.4,6.2 21.4,6.3 C21.4,6.5 21.5,6.7 21.5,6.9 C21.5,7 21.6,7.1 21.7,7.1 C21.7,7.2 21.8,7.3 21.8,7.4 C21.8,7.5 21.9,7.5 22,7.6 C22,7.7 21.9,7.8 21.9,7.9 C21.8,7.9 21.7,8 21.6,8 C21.5,8 21.3,8.1 21.2,8.1 C21,8.1 20.8,8.2 20.7,8.2 C20.5,8.2 20.3,8.3 20.2,8.4 C19.9,8.6 19.6,8.8 19.2,9.1 C19.1,9.2 18.9,9.3 18.7,9.3 C18.6,9.3 18.6,9.4 18.5,9.4 C18.4,9.4 18.4,9.5 18.3,9.5 C18.3,9.3 18.3,9.1 18.3,8.9 C18.3,8.7 18.2,8.5 18.2,8.3 L18.3,8.2 C18.4,8.1 18.4,8 18.4,7.9 C18.4,7.7 18.5,7.5 18.6,7.3 C18.6,7.2 18.6,7.2 18.6,7.1 C18.6,7 18.6,7 18.6,6.9 C18.6,6.8 18.6,6.8 18.6,6.7 C18.7,6.6 18.6,6.5 18.6,6.4 C18.5,6.2 18.4,6 18.2,6 C18.1,6 18,5.9 17.8,5.8 C17.6,5.7 17.3,5.6 17.1,5.5 C17,5.4 16.9,5.4 16.8,5.4 C16.7,5.4 16.7,5.5 16.6,5.5 L16.6,4.9 C16.9,4.7 17,4.5 17.2,4.2 C17.3,4.2 17.3,4.2 17.3,4.1 C17.3,4 17.4,4 17.4,3.9 C17.4,3.8 17.5,3.7 17.5,3.7 C17.5,3.6 17.5,3.4 17.6,3.3 C17.6,3.2 17.6,3.2 17.6,3.1 C17.6,3 17.5,3 17.5,3 C17.6,2.9 17.6,2.7 17.6,2.6 L17.6,2.5 L17.6,2.4 L17.6,2.3 L17.6,2.2 L17.6,2.1 L17.6,2 C17.6,1.9 17.6,1.9 17.5,1.8 C17.6,1.6 17.5,1.4 17.2,1.1 L17.3,1.1 C17.2,1 17.2,0.9 17.1,0.8 L17,0.7 C16.9,0.6 16.8,0.6 16.7,0.5 L16.6,0.5 C16.5,0.5 16.4,0.4 16.3,0.4 C16.2,0.4 16.1,0.4 16,0.4 C15.9,0.3 15.8,0.3 15.8,0.4 C15.7,0.4 15.7,0.3 15.6,0.3 L15.5,0.3 C15.5,0.3 15.4,0.3 15.3,0.3 C15.2,0.4 15.1,0.5 15,0.6 C14.9,0.6 14.9,0.7 14.8,0.7 L14.8,0.7 C14.7,0.8 14.6,0.9 14.5,1 L14.5,1.1 C14.5,1.2 14.3,1.1 14.3,1.2 C14.3,1.3 14.2,1.3 14.2,1.4 L14.2,1.4 L14.1,1.5 C14.1,1.6 14,1.7 14,1.8 C14,1.9 13.9,2 14,2.1 C14,2.1 14,2.2 14,2.3 C14,2.3 14,2.4 14,2.5 C14.1,2.6 14,2.8 14,2.9 L14,3 C14,3.1 13.9,3.1 13.9,3.2 C13.9,3.4 14,3.6 14,3.8 C14,3.9 14.1,3.9 14.1,4 C14.1,4.1 14.2,4.1 14.3,4.1 C14.3,4.2 14.3,4.2 14.4,4.3 L14.5,4.3 C14.5,4.4 14.6,4.4 14.6,4.4 C14.6,4.4 14.7,4.5 14.8,4.5 C14.8,4.6 14.8,4.7 14.8,4.8 C14.7,5.1 14.7,5.1 14.4,5.2 L14.4,5.2 L14.4,5.2 C14.1,5.1 13.8,5.1 13.5,5.2 C13.3,5.3 13.1,5.4 12.9,5.4 C12.7,5.4 12.5,5.5 12.3,5.6 C12.3,5.7 12.1,5.8 12.1,5.9 C12,6 11.9,6.2 11.8,6.4 C11.7,6.6 11.6,6.8 11.4,6.9 C11.4,6.9 11.3,7 11.3,7.1 C11.2,7.2 11.1,7.4 10.9,7.5 C10.7,7.6 10.6,7.8 10.4,7.9 C10.3,8 10.3,8.1 10.2,8.2 C9.9,8.5 9.6,8.8 9.3,9.1 C9.1,9.2 9,9.4 8.8,9.5 C8.8,9.5 8.7,9.6 8.6,9.6 C8.5,9.7 8.4,9.8 8.3,9.8 C8.2,9.9 8.1,10 8.1,10 C7.9,10 7.9,9.8 7.7,9.8 L7.6,9.7 C7.5,9.6 7.5,9.5 7.4,9.4 C7.3,9.4 7.3,9.3 7.3,9.2 C7.3,9 7.1,8.7 7,8.5 C6.9,8.4 6.8,8.3 6.7,8.2 C6.6,8.1 6.4,8 6.3,8 C6.2,7.9 6.1,7.9 5.9,7.8 C5.8,7.8 5.7,7.7 5.5,7.6 C5.5,7.6 5.4,7.6 5.4,7.5 C5.3,7.3 5.1,7.2 4.9,7.1 C4.9,7.1 4.8,7.1 4.8,7 C4.8,6.8 5,6.7 5,6.5 C5,6.5 5.1,6.5 5.1,6.4 C5,6.4 5.1,6.3 5.1,6.2 L5.2,6.2 C5.2,6.2 5.2,6.2 5.2,6.1 C5.3,6.2 5.3,6.1 5.4,6.2 L5.4,6.3 L5.5,6.3 L5.5,6.5 L5.4,6.5 L5.4,6.4 C5.4,6.4 5.3,6.4 5.3,6.3 L5.4,6.2 C5.4,6.2 5.4,6.3 5.5,6.3 C5.5,6.3 5.5,6.3 5.5,6.2 C5.5,6.2 5.6,6.2 5.6,6.1 C5.6,6.1 5.6,6.2 5.7,6.2 L5.8,6.2 L5.8,6.3 L5.7,6.3 L5.7,6.2 L5.6,6.1 C5.5,6.1 5.5,6.2 5.5,6.2 C5.5,6.2 5.5,6.1 5.4,6.1 C5.4,6.1 5.5,6.1 5.5,6.2 C5.5,6.1 5.6,6.1 5.6,6 C5.6,6 5.6,6 5.7,6 L5.7,6 C5.8,6.1 5.8,6.1 5.8,6.1 L5.8,6 C5.8,6 5.8,5.9 5.7,5.9 C5.8,5.9 5.8,5.9 5.8,5.9 L5.8,5.8 C5.7,5.7 5.6,5.7 5.5,5.6 C5.6,5.5 5.6,5.6 5.7,5.6 L5.7,5.5 L5.7,5.5 C5.7,5.5 5.8,5.5 5.8,5.4 L5.8,5.4 L5.9,5.4 L5.9,5.4 L5.8,5.3 L5.8,5.2 C5.9,5.2 5.9,5.3 5.9,5.2 C5.8,5.2 5.7,5.1 5.6,5.1 L5.6,5.1 C5.6,5 5.6,5 5.6,4.9 C5.6,4.9 5.7,4.9 5.7,4.8 L5.7,4.8 C5.7,4.8 5.7,4.7 5.6,4.7 C5.6,4.7 5.6,4.7 5.6,4.6 C5.6,4.6 5.5,4.6 5.5,4.5 L5.5,4.5 C5.5,4.4 5.5,4.3 5.6,4.3 L5.5,4.3 C5.5,4.3 5.5,4.3 5.5,4.4 C5.4,4.4 5.4,4.4 5.4,4.3 L5.4,4.2 L5.5,4.2 L5.5,4.1 C5.4,4.1 5.3,4.1 5.2,4.1 L5.2,4.2 C5.2,4.2 5.2,4.2 5.3,4.2 L5.2,4.2 L5.1,4.2 C5.1,4.1 5.2,4.1 5.1,4 L5,4 L4.9,3.9 L4.8,3.9 C4.8,3.9 4.8,3.8 4.9,3.8 C4.9,3.8 4.8,3.8 4.8,3.7 L4.8,3.5 C4.8,3.5 4.8,3.5 4.7,3.5 C4.7,3.5 4.7,3.5 4.6,3.6 C4.6,3.6 4.6,3.6 4.6,3.7 L5,3.7 C5,3.8 5,3.8 5,3.9 L5,3.9 C5,3.8 5,3.8 4.9,3.7 C4.9,3.7 4.9,3.7 4.8,3.7 L4.8,3.8 L4.7,3.8 C4.7,3.8 4.7,3.7 4.6,3.7 L4.4,3.7 C4.3,3.9 4.1,3.9 4,4.1 L3.9,4.1 C3.9,4.2 3.9,4.2 3.8,4.3 C3.6,4.3 3.6,4.1 3.5,4 L3.4,4 L3.5,4.1 C3.5,4.2 3.5,4.2 3.4,4.3 C3.3,4.2 3.3,4.2 3.3,4.1 C3.2,4.1 3.1,4 3,4 C3,4 2.9,3.9 2.8,3.9 C2.8,3.8 2.6,3.8 2.6,3.8 C2.5,3.8 2.4,3.7 2.3,3.7 C2.2,3.7 2.1,3.7 2,3.7 L1.9,3.8 C2,3.9 2.1,3.9 2.2,3.8 C2.3,3.9 2.3,3.9 2.4,4 C2.3,4 2.2,4 2.2,4 C2.1,3.9 2,4 1.9,4 C1.8,3.9 1.7,4 1.6,4 C1.6,4 1.6,4 1.5,4.1 L1.6,4.2 C1.6,4.2 1.6,4.2 1.5,4.2 C1.5,4.2 1.5,4.2 1.5,4.3 L1.6,4.3 C1.6,4.3 1.7,4.3 1.7,4.4 C1.8,4.3 1.7,4.3 1.6,4.3 C1.6,4.2 1.5,4.2 1.5,4.2 L1.2,4.2 L1.2,4.2 C1.3,4.2 1.3,4.2 1.4,4.2 C1.4,4.2 1.4,4.2 1.3,4.3 C1.3,4.4 1.4,4.4 1.4,4.5 C1.5,4.5 1.5,4.5 1.6,4.5 C1.6,4.5 1.4,4.6 1.3,4.6 L1.2,4.6 C1.2,4.7 1.1,4.7 1.1,4.7 L1.2,4.8 L1.3,4.8 L1.2,4.9 L1.2,4.9 L1.2,5 L1.3,5 C1.3,5 1.3,4.9 1.4,4.9 L1.5,4.9 C1.4,4.9 1.4,4.9 1.4,4.9 L1.4,5 L1.3,5.1 C1.4,5.1 1.4,5.1 1.5,5.1 C1.5,5.2 1.4,5.2 1.4,5.2 L1.4,5.3 L1.3,5.3 C1.3,5.3 1.3,5.3 1.3,5.4 L1.4,5.3 L1.4,5.5 C1.4,5.5 1.4,5.5 1.3,5.5 C1.3,5.5 1.3,5.5 1.3,5.6 L1.4,5.5 C1.4,5.5 1.4,5.5 1.5,5.6 C1.5,5.6 1.5,5.6 1.5,5.7 C1.5,5.7 1.5,5.7 1.6,5.7 C1.6,5.7 1.6,5.7 1.6,5.8 L1.7,5.8 C1.7,5.8 1.7,5.8 1.8,5.8 C1.8,5.8 1.7,5.8 1.7,5.9 C1.7,6.1 1.9,6.1 1.9,6.2 C1.9,6.2 1.9,6.2 1.8,6.2 C1.9,6.4 2,6.3 2.1,6.4 C2.1,6.4 2.1,6.4 2,6.4 C2,6.5 2.1,6.5 2.2,6.5 C2.2,6.5 2.2,6.5 2.3,6.5 C2.3,6.6 2.2,6.6 2.2,6.7 C2.3,6.7 2.4,6.6 2.5,6.6 L2.6,6.7 L2.6,6.8 L2.5,6.8 C2.5,6.8 2.5,6.8 2.5,6.9 L2.6,6.9 C2.7,7.1 2.9,7.2 3,7.4 C3,7.4 3,7.4 2.9,7.4 L2.8,7.5 C2.7,7.5 2.7,7.6 2.6,7.7 L2.6,7.8 L2.6,7.8 L2.6,7.9 C2.5,7.9 2.4,8 2.2,8 C2.1,8.1 2,8.1 1.9,8.2 L1.9,8.3 C1.7,8.5 1.6,8.8 1.4,9 L1.4,9 C1.4,9.2 1.4,9.4 1.4,9.5 C1.4,9.6 1.4,9.7 1.4,9.8 C1.3,9.9 1.4,10 1.4,10 C1.3,10.1 1.4,10.2 1.4,10.2 C1.4,10.3 1.4,10.4 1.4,10.4 C1.4,10.5 1.4,10.7 1.3,10.8 C1.3,10.9 1.2,11 1.2,11.1 L1.2,11.1 L1.1,11.2 C1.1,11.2 1,11.3 1,11.4 C0.9,11.5 0.8,11.6 0.8,11.6 L0.8,11.7 L0.8,11.8 C0.8,11.8 0.8,11.9 0.8,11.8 C0.8,11.8 0.8,11.8 0.8,11.9 C0.8,12 0.8,12 0.9,12.1 C0.9,12.1 0.9,12.1 0.9,12.2 L0.9,12.3 C0.9,12.3 0.9,12.4 0.8,12.4 C0.8,12.4 0.8,12.6 0.8,12.7 L0.8,12.7 L0.8,12.8 C0.8,12.8 0.7,12.8 0.7,12.9 C1,13.1 1,13.2 1,13.2 C1,13.2 1,13.2 1,13.3 L1,13.4 C0.9,13.5 0.8,13.6 0.9,13.7 C1,13.7 1,13.8 1.1,13.9 C1.2,13.9 1.3,13.9 1.4,13.9 C1.5,13.9 1.5,13.9 1.5,13.9 C1.6,13.8 1.7,13.9 1.7,13.8 C2,13.7 1.9,13.6 2,13.5 C2.1,13.5 2,13.3 2.1,13.3 C2.1,13.3 2.1,13.3 2.1,13.2 C2.1,13.2 2.2,13.2 2.2,13.1 C2.3,13 2.2,13 2.3,12.9 L2.3,12.9 C2.3,12.8 2.3,12.8 2.3,12.7 C2.5,12.5 2.6,12.3 2.7,12 C2.7,11.9 2.8,11.8 2.8,11.7 C2.8,11.8 2.8,11.9 2.9,12 C2.9,12.5 2.9,13 2.9,13.5 L2.9,13.6 L2.9,13.7 C3,13.8 3,14 2.9,14.2 C2.9,14.3 2.9,14.4 2.9,14.5 L2.9,14.6 C2.8,14.7 2.9,14.8 2.9,14.9 C2.9,15 2.9,15 2.9,15.1 C2.9,15.2 2.9,15.2 2.9,15.3 C2.9,15.4 2.9,15.5 2.9,15.5 C2.9,15.7 2.9,15.9 2.9,16.1 C2.9,16.2 2.9,16.4 2.9,16.5 C2.9,16.7 2.9,16.8 2.9,17 C3,17.1 2.9,17.2 2.9,17.3 C3,17.5 2.9,17.7 2.9,18 C2.9,18.2 2.8,18.4 2.8,18.6 L2.8,18.7 C2.7,18.9 2.7,19 2.7,19.2 C2.7,19.4 2.7,19.6 2.8,19.8 C2.8,20 2.8,20.2 2.8,20.3 C2.8,20.4 2.8,20.4 2.8,20.4 C2.8,20.5 2.8,20.5 2.8,20.6 C2.8,20.7 2.8,20.8 2.7,21 C2.6,21.2 2.6,21.4 2.8,21.6 C2.9,21.7 3,21.7 3,21.8 C3.1,21.9 3.3,22 3.4,22.1 C3.5,22.2 3.7,22.2 3.8,22.2 C3.9,22.2 4,22.2 4.1,22.1 L4.2,22 L4.2,21.7 C4.4,21.5 4.4,21.5 4.4,21.3 C4.5,21.1 4.6,20.8 4.6,20.7 C4.6,20.5 4.5,20.4 4.6,20.2 L4.6,20.2 C4.6,20.1 4.6,20 4.6,20 C4.6,19.9 4.7,19.8 4.7,19.6 C4.7,19.4 4.7,19.2 4.7,19 C4.7,18.9 4.7,18.8 4.7,18.7 C4.7,18.7 4.7,18.7 4.7,18.6 C4.7,18.5 4.6,18.3 4.6,18.2 C4.6,18.1 4.6,18.1 4.6,18 C4.6,17.7 4.6,17.5 4.6,17.2 C4.6,17.1 4.6,17 4.6,16.9 C4.6,16.8 4.6,16.7 4.6,16.6 C4.6,16.5 4.6,16.4 4.6,16.4 C4.6,16.3 4.6,16.2 4.6,16.2 C4.6,16.1 4.6,16 4.6,16 C4.6,15.9 4.7,15.7 4.7,15.6 C4.7,15.5 4.8,15.5 4.8,15.4 L4.8,15.4 C4.8,15.4 4.8,15.4 4.8,15.5 C4.8,15.7 4.8,16 4.8,16.2 C4.8,16.4 4.8,16.5 4.8,16.7 C4.8,16.9 4.9,17.1 4.9,17.4 C4.9,17.5 5,17.6 5,17.6 C5,17.7 5.1,17.8 5.2,17.8 C5.3,17.9 5.5,18 5.6,18 C5.7,18 5.7,18 5.8,18 C5.9,18.1 6,18.1 6.1,18.2 C6.2,18.2 6.2,18.2 6.3,18.2 C6.4,18.1 6.5,18 6.6,17.8 C6.6,17.7 6.6,17.6 6.7,17.5 C6.8,17.3 6.8,17.2 6.8,17 C6.8,16.9 6.8,16.8 6.8,16.7 C6.8,16.6 6.8,16.5 6.8,16.4 C6.8,16.3 6.8,16.2 6.7,16 C6.7,15.6 6.8,15.2 6.7,14.8 C6.8,14.6 6.9,14.5 6.8,14.3 C6.8,14.2 6.8,14.2 6.8,14.1 C6.8,14 6.9,14 6.9,13.9 C6.9,13.8 6.9,13.6 6.9,13.5 L6.9,13.4 C6.9,13.2 6.9,13 6.9,12.8 C6.9,12.6 6.9,12.4 6.9,12.2 L6.9,12.2 C6.8,12.1 6.9,12 6.9,11.9 C6.9,11.8 6.9,11.7 6.9,11.6 C6.9,11.5 6.9,11.5 6.9,11.4 C6.9,11.3 6.9,11.3 6.9,11.2 C6.9,11.1 6.9,10.9 7,10.8 C7.1,10.9 7.1,11 7.2,11 L7.2,11 C7.2,11 7.2,11 7.3,11 C7.3,11 7.3,11 7.4,11 C7.4,11 7.4,11 7.4,11.1 L7.4,11.1 L7.4,11.1 L7.4,11.1 L7.4,11.1 C7.4,11.1 7.4,11.1 7.5,11.1 C7.6,11.1 7.6,11.1 7.7,11 L7.7,11.1 L7.7,11.1 C7.8,11.2 7.9,11.2 8,11.3 C8.1,11.4 8.2,11.3 8.3,11.3 C8.4,11.3 8.5,11.2 8.5,11.1 C8.6,11.1 8.6,11.1 8.7,11.1 C8.9,11.2 8.9,11.2 9.1,11 C9.2,10.9 9.3,10.8 9.4,10.8 C9.5,10.8 9.6,10.7 9.6,10.6 C9.7,10.6 9.8,10.6 9.9,10.5 C10.1,10.5 10.3,10.4 10.4,10.3 C10.5,10.2 10.7,10.1 10.8,10.1 C10.8,10.1 10.8,10.1 10.9,10 C11,9.9 11.1,9.9 11.2,9.8 C11.4,9.7 11.5,9.6 11.6,9.5 C11.7,9.4 11.8,9.3 11.8,9.3 C12,9.2 12.2,9.1 12.4,9 L12.5,9 C12.6,9 12.7,9.1 12.8,9.2 C12.8,9.3 12.9,9.4 12.9,9.6 C12.9,9.7 12.9,9.8 12.9,9.9 C12.9,10.1 12.9,10.3 12.9,10.5 L12.9,10.6 C12.9,10.7 12.9,10.7 12.9,10.8 C12.9,10.9 12.9,11 12.9,11.1 L12.9,11.2 C12.8,11.3 12.9,11.4 12.9,11.4 C12.9,11.5 12.9,11.6 12.8,11.7 C12.7,11.8 12.7,12 12.7,12.1 C12.7,12.3 12.7,12.6 12.8,12.8 C12.8,12.9 12.8,12.9 12.8,13 C12.8,13.1 12.8,13.3 12.8,13.4 L12.8,13.5 C12.9,13.6 12.8,13.6 12.8,13.7 L12.8,13.8 C12.9,14 12.9,14.1 13,14.3 C13,14.3 13.1,14.4 13.1,14.5 C13.1,14.7 13.1,14.8 13.2,15 C13.2,15.2 13.3,15.3 13.3,15.5 C13.4,15.7 13.4,15.9 13.4,16.1 C13.4,16.2 13.4,16.3 13.4,16.4 C13.4,16.5 13.4,16.6 13.5,16.7 C13.5,16.8 13.6,16.9 13.6,17 C13.7,17.3 13.7,17.5 13.8,17.7 C13.8,17.8 13.9,18 13.9,18.1 C13.8,18.1 13.8,18.2 13.7,18.2 C13.6,18.1 13.5,18.2 13.4,18.3 L13.4,18.4 C13.3,18.5 13.3,18.6 13.3,18.7 C13.3,18.8 13.3,18.9 13.3,19 C13.3,19.1 13.3,19.2 13.3,19.3 C13.3,19.4 13.3,19.5 13.3,19.6 C13.3,19.7 13.3,19.9 13.3,20 C13.3,20.1 13.3,20.3 13.2,20.4 C13.2,20.6 13.2,20.8 13.2,20.9 C13.3,21 13.3,21.2 13.4,21.3 L13.5,21.4 L13.6,21.4 C13.8,21.5 14,21.4 14.1,21.3 C14.2,21.2 14.2,21 14.3,20.9 C14.3,20.8 14.3,20.6 14.4,20.5 C14.4,20.5 14.4,20.5 14.5,20.4 C14.5,20.5 14.5,20.7 14.5,20.8 C14.6,21 14.6,21.2 14.6,21.4 C14.6,21.5 14.6,21.5 14.7,21.6 C14.8,21.9 14.8,22.2 14.9,22.5 L14.9,22.6 C15,22.7 14.9,22.8 14.9,22.8 C14.9,22.9 14.9,23 14.9,23 C14.9,23.1 14.9,23.2 14.9,23.3 C14.9,23.4 14.9,23.6 15,23.7 C15,23.9 15.1,24 15.1,24.2 C15.2,24.3 15.2,24.4 15.3,24.5 C15.4,24.6 15.4,24.8 15.4,25 C15.4,25.1 15.4,25.2 15.5,25.3 C15.7,25.4 15.8,25.5 15.9,25.6 C16.2,25.8 16.4,25.9 16.8,25.9 C17,25.9 17.1,25.9 17.3,25.9 C17.5,25.9 17.6,25.9 17.8,25.9 C17.9,25.9 18.1,25.9 18.2,25.7 C18.2,25.6 18.2,25.4 18.2,25.3 C18.2,25.2 18.2,25.2 18.1,25.2 L18,25.1 L17.9,25 C17.8,25 17.8,24.9 17.7,24.8 L17.7,24.8 L17.8,24.8 L17.8,24.8 L17.9,24.7 C17.9,24.6 17.9,24.6 17.9,24.5 C17.8,24.3 17.8,24.2 17.7,24 C17.6,23.8 17.5,23.5 17.4,23.3 C17.3,23.1 17.2,22.9 17.1,22.8 C17,22.7 17,22.5 17,22.4 C17,22.3 17,22.2 17,22.1 C17,22 17,21.9 17,21.8 C17,21.6 17,21.4 16.9,21.3 C16.9,21.1 16.8,20.9 16.8,20.7 L16.8,20.6 C16.7,20.5 16.8,20.5 16.8,20.4 C16.8,20.3 16.8,20.3 16.8,20.2 L16.8,20.2 L16.9,20.2 C17,20.2 17.2,20.2 17.3,20.2 C17.7,20.1 17.9,19.9 18.1,19.7 C18.3,19.4 18.4,19.1 18.5,18.7 C18.5,18.6 18.6,18.5 18.5,18.4 C18.6,18.3 18.5,18.1 18.6,18 C18.6,17.8 18.6,17.7 18.6,17.5 C18.6,17.4 18.6,17.2 18.6,17.1 C18.6,17 18.6,16.8 18.6,16.7 C18.6,16.5 18.6,16.3 18.6,16.1 C18.6,15.9 18.6,15.6 18.6,15.4 C18.6,15.3 18.6,15.3 18.6,15.2 C18.7,15.1 18.7,15.1 18.8,15 C18.8,14.9 18.8,14.9 18.8,14.8 C18.8,14.7 18.8,14.6 18.7,14.5 C18.7,14.4 18.7,14.3 18.7,14.1 C18.7,14 18.7,13.9 18.7,13.8 L18.7,13.7 C18.6,13.5 18.6,13.3 18.5,13.1 C18.4,12.9 18.4,12.8 18.4,12.6 C18.4,12.4 18.4,12.3 18.4,12.1 C18.4,12 18.4,11.9 18.4,11.8 C18.4,11.6 18.4,11.5 18.5,11.3 L18.8,11.3 C18.8,11.3 18.9,11.3 18.9,11.2 C19,11.1 19.1,11 19.3,10.9 C19.5,10.8 19.7,10.8 19.9,10.8 C20,10.8 20.1,10.8 20.1,10.7 C20.2,10.7 20.4,10.8 20.5,10.8 C20.6,10.9 20.8,11.1 21,11.3 C21.1,11.4 21.1,11.4 21.1,11.5 C21.1,11.6 21.1,11.7 21.1,11.8 C21.1,12 21.1,12.2 21.1,12.4 C21.1,12.6 21,12.8 21.1,13 L21.1,13.1 C21.1,13.2 21,13.2 21,13.3 C21,13.4 21,13.5 21,13.5 C21.1,13.6 21,13.7 21.1,13.7 C21.1,13.8 21.1,13.9 21.1,14 C21.1,14.1 21.1,14.2 21.1,14.3 C21.1,14.4 21.1,14.5 21.1,14.7 C21.1,14.7 21.2,14.7 21.2,14.8 C21.2,14.9 21.2,15 21.2,15 C21.2,15.1 21.2,15.2 21.2,15.3 C21.2,15.5 21.2,15.6 21.2,15.8 C21.2,15.9 21.2,16 21.2,16.1 C21.2,16.2 21.2,16.3 21.2,16.4 C21.2,16.6 21.2,16.8 21.2,17 C21.2,17.1 21.3,17.3 21.3,17.4 C21.4,17.6 21.6,17.7 21.7,18 C21.7,18 21.7,18 21.8,18.1 L21.9,18.2 C21.9,18.3 21.9,18.4 21.9,18.5 C21.9,18.6 21.9,18.8 21.9,18.9 C21.9,19.1 22,19.3 22.2,19.4 C22.4,19.4 22.5,19.3 22.6,19.2 C22.6,19.2 22.6,19.2 22.6,19.1 C22.7,19 22.7,18.9 22.7,18.9 C22.7,18.8 22.7,18.8 22.7,18.7 L22.8,18.6 C22.9,18.5 23,18.4 23,18.3 C23,18 23,17.7 23,17.4 C23,17.3 23,17.2 22.9,17.2 C22.9,17.1 22.9,17 22.9,17 C22.9,17 22.9,16.9 22.9,16.8 C22.9,16.5 22.9,16.2 22.9,15.8 C22.9,15.6 22.9,15.5 23,15.3 C23.1,15.5 23.2,15.6 23.3,15.8 C23.4,15.9 23.4,16.1 23.5,16.2 C23.5,16.3 23.5,16.3 23.5,16.4 C23.5,16.5 23.5,16.6 23.5,16.6 C23.5,16.8 23.6,16.9 23.6,17.1 C23.7,17.2 23.6,17.2 23.6,17.3 C23.6,17.4 23.6,17.5 23.6,17.5 C23.6,17.7 23.6,17.9 23.6,18.2 C23.6,18.3 23.6,18.5 23.6,18.6 C23.6,18.9 23.6,19.1 23.6,19.4 C23.6,19.4 23.6,19.4 23.6,19.5 C23.7,19.6 23.7,19.7 23.7,19.9 C23.7,20.1 23.7,20.2 23.7,20.4 C23.7,20.5 23.7,20.5 23.7,20.6 L23.7,20.7 C23.8,20.8 23.7,20.8 23.7,20.9 C23.8,21.1 23.8,21.1 23.8,21.3 C23.9,21.3 23.9,21.4 24,21.4 L24,21.5 C24,21.6 24,21.6 24,21.7 C24.1,21.8 24.2,21.8 24.3,21.9 C24.4,22 24.5,22 24.6,22.1 C24.8,22.3 25.1,22.4 25.4,22.4 C25.5,22.4 25.7,22.4 25.8,22.4 L25.9,22.3 L25.9,22.1 C25.8,21.9 25.5,21.8 25.5,21.5 C25.5,21.5 25.6,21.5 25.6,21.4 C25.6,21.3 25.6,21.2 25.6,21.2 C25.7,21.1 25.6,21.1 25.6,21 C25.6,20.9 25.6,20.8 25.6,20.7 L25.6,20.6 L25.6,20.5 C25.6,20.4 25.6,20.3 25.6,20.2 C25.6,20 25.6,20 25.6,19.8 C25.6,19.7 25.6,19.6 25.7,19.5 L25.7,19.4 C25.7,19.4 25.7,19.3 25.7,19.2 C25.7,19.2 25.7,19.1 25.7,19 C25.7,18.9 25.7,18.7 25.6,18.6 L25.6,18.5 C25.6,18.3 25.6,18.1 25.6,18 C25.6,17.8 25.6,17.6 25.6,17.5 C25.6,17.3 25.6,17.2 25.6,17 C25.6,16.8 25.5,16.6 25.6,16.4 L25.6,16.4 C25.5,16.3 25.6,16.3 25.6,16.2 C25.6,16.1 25.6,16.1 25.6,16 C25.6,15.9 25.6,15.7 25.6,15.6 C25.5,15.5 25.6,15.5 25.6,15.4 C25.5,15.1 25.4,14.8 25.3,14.5 L25.4,14.4 L25.4,14.4 C25.3,14.3 25.3,14.2 25.3,14 C25.3,13.9 25.2,13.8 25.1,13.8 C24,13.2 23.9,13.1 24,13 C24,12.9 24,12.9 24,12.8 C24,12.7 24,12.6 24,12.5 C24,12.4 24,12.2 24,12.1 C24,12 24,11.9 24,11.8 C24,11.7 24,11.6 24,11.5 C24,11.4 24.1,11.2 24.1,11.1 C24.2,11 24.2,10.9 24.3,10.8 C24.4,10.6 24.4,10.5 24.5,10.4 C24.5,10.3 24.6,10.3 24.6,10.2 C24.7,10.2 24.7,10.3 24.8,10.3 C24.9,10.4 25,10.4 25,10.4 C25.2,10.4 25.3,10.5 25.5,10.5 C25.7,10.6 25.9,10.6 26.1,10.6 L26.2,10.6 C26.3,10.7 26.4,10.6 26.6,10.6 C26.8,10.6 27,10.4 27.1,10.2 C27.2,10.1 27.2,10 27.3,9.9 C27.4,9.8 27.4,9.7 27.5,9.5 C27.6,9.3 27.6,9.2 27.6,9 C27.6,8.9 27.7,8.7 27.7,8.6 C27.7,8.5 27.8,8.3 27.9,8.2 C28,8.1 28.1,8 28.1,7.8 C28.1,7.8 28.1,7.8 28.1,7.7 C28.2,7.6 28.3,7.5 28.3,7.4 C28.4,7.3 28.4,7.1 28.5,7 C28.5,6.9 28.6,6.9 28.6,6.8 C28.6,6.7 28.7,6.7 28.7,6.6 C28.8,6.5 28.8,6.5 28.9,6.4 C29,6.5 29,6.4 29,6.4 Z M1.7,13.5 C1.7,13.5 1.7,13.4 1.8,13.4 L1.7,13.5 C1.8,13.6 1.7,13.6 1.7,13.5 Z" id="new_figures"></path>
                </g>
            </g>
            <g id="Group" transform="translate(33.000000, 7.000000)">
                <path d="M6.7,7.8 L3,7.8 L2,10.3 L0.4,10.3 L4.3,1 L5.7,1 L9.5,10.2 L7.7,10.2 L6.7,7.8 Z M5.1,6.6 C5.7,6.6 5.8,6.6 6.3,6.6 C6.1,6.2 6.1,6.1 5.8,5.5 L5.5,4.8 C5.2,4 5.1,3.8 4.9,3 L4.9,3 C4.6,3.8 4.6,4 4.2,4.8 L3.9,5.4 C3.7,6 3.6,6 3.4,6.5 C3.9,6.5 4,6.5 4.6,6.5 L5.1,6.5 L5.1,6.6 Z" id="Shape" fill="#5A6167"></path>
                <path d="M12.2,8.5 C12.2,8.7 12.2,8.7 12.2,8.8 C12.3,8.8 12.4,8.8 12.5,8.8 L16.1,8.8 L16,10.3 L10.6,10.3 L10.6,1.2 L12.3,1.2 L12.3,8.5 L12.2,8.5 Z" id="Path" fill="#5A6167"></path>
                <path d="M19,8.5 C19,8.7 19,8.7 19,8.8 C19.1,8.8 19.2,8.8 19.3,8.8 L22.9,8.8 L22.7,10.2 L17.3,10.2 L17.3,1.2 L19,1.2 L19,8.5 Z" id="Path" fill="#5A6167"></path>
                <polygon id="Path" fill="#5A6167" points="25.7 10.3 24 10.3 24 1.2 25.7 1.2"></polygon>
                <path d="M33.1,7.8 L29.4,7.8 L28.4,10.3 L26.8,10.3 L30.7,1 L32.1,1 L35.9,10.2 L34.1,10.2 L33.1,7.8 Z M31.6,6.6 C32.2,6.6 32.3,6.6 32.8,6.6 C32.6,6.2 32.6,6.1 32.3,5.5 L32,4.9 C31.7,4.1 31.6,3.9 31.4,3.1 L31.4,3.1 C31.1,3.9 31.1,4.1 30.7,4.9 L30.4,5.5 C30.2,6.1 30.1,6.1 29.9,6.6 C30.4,6.6 30.5,6.6 31.1,6.6 L31.6,6.6 Z" id="Shape" fill="#5A6167"></path>
                <path d="M38,1 L42,5.5 C42.8,6.4 42.9,6.6 43.6,7.4 L43.7,7.4 C43.6,6.3 43.6,6.1 43.6,4.9 L43.6,1.2 L45.1,1.2 L45.1,10.1 L44.1,10.4 L40.1,5.8 C39.3,4.9 39.2,4.7 38.5,3.9 L38.4,3.9 C38.5,5 38.5,5.2 38.5,6.4 L38.5,10.2 L37,10.2 L37,1.3 L38,1 Z" id="Path" fill="#5A6167"></path>
                <path d="M53.5,3.2 C52.8,2.7 52.2,2.6 51.4,2.6 C49.7,2.6 48.5,3.9 48.5,5.7 C48.5,6.6 48.8,7.5 49.4,8.1 C49.9,8.6 50.7,9 51.4,9 C52.3,9 52.9,8.8 53.6,8.3 L54.3,9.6 C53.3,10.3 52.4,10.6 51.2,10.6 C50,10.6 48.8,10.1 48,9.3 C47.1,8.4 46.7,7.3 46.7,5.8 C46.7,4.5 47.3,3.2 48.2,2.3 C49,1.4 50.2,1 51.4,1 C52.5,1 53.4,1.2 54.3,1.8 L53.5,3.2 Z" id="Path" fill="#5A6167"></path>
                <path d="M60.8,2.6 L57.5,2.6 C57.3,2.6 57.3,2.6 57.2,2.6 C57.2,2.7 57.2,2.8 57.2,2.9 L57.2,4.6 C57.2,4.8 57.2,4.8 57.2,4.9 C57.3,4.9 57.4,4.9 57.5,4.9 L60.4,4.9 L60.4,6.2 L57.5,6.2 C57.3,6.2 57.3,6.2 57.2,6.2 C57.2,6.3 57.2,6.4 57.2,6.5 L57.2,8.6 C57.2,8.8 57.2,8.8 57.2,8.9 C57.3,8.9 57.4,8.9 57.5,8.9 L61.4,8.9 L61.2,10.3 L55.6,10.3 L55.6,1.2 L60.8,1.2 L60.8,2.6 L60.8,2.6 Z" id="Path" fill="#5A6167"></path>
                <path d="M70.6,2.6 L67.5,2.6 C67.3,2.6 67.3,2.6 67.2,2.6 C67.2,2.7 67.2,2.8 67.2,2.9 L67.2,4.9 C67.2,5.1 67.2,5.1 67.2,5.2 C67.3,5.2 67.4,5.2 67.5,5.2 L70.3,5.2 L70.3,6.6 L67.5,6.6 C67.3,6.6 67.3,6.6 67.2,6.6 C67.2,6.7 67.2,6.8 67.2,6.9 L67.2,10.4 L65.5,10.4 L65.5,1.2 L70.6,1.2 L70.6,2.6 Z" id="Path" fill="#5A6167"></path>
                <path d="M80.8,5.7 C80.8,8.5 78.9,10.4 76,10.4 C73.3,10.4 71.3,8.4 71.3,5.6 C71.3,2.9 73.2,1 75.9,0.9 C78.7,0.8 80.8,2.9 80.8,5.7 Z M73.8,3.5 C73.4,4 73.2,4.7 73.2,5.6 C73.2,6.5 73.6,7.5 74.2,8.1 C74.7,8.6 75.3,8.9 76.1,8.9 C77.8,9 79,7.8 79,5.8 C79,3.9 77.7,2.4 75.9,2.4 C75,2.4 74.3,2.8 73.8,3.5 Z" id="Shape" fill="#5A6167"></path>
                <path d="M82.4,1.2 C83.5,1.1 84,1.1 84.9,1.1 C87.3,1.1 88.6,2.1 88.6,3.9 C88.6,4.7 88.2,5.4 87.6,5.9 C87.4,6 87.2,6.1 86.9,6.3 C87.1,6.5 87.1,6.5 87.2,6.7 L89.6,10.3 L87.6,10.3 L85.4,6.8 L84.4,6.8 C84.2,6.8 84.2,6.8 84.1,6.8 C84.1,6.9 84.1,7 84.1,7.1 L84.1,10.3 L82.4,10.3 L82.4,1.2 Z M84.8,2.4 C84.6,2.4 84.4,2.4 84,2.4 C84,2.5 84,2.6 84,2.7 L84,5.2 C84,5.4 84,5.4 84,5.5 C84.1,5.5 84.2,5.5 84.3,5.5 L85.6,5.5 C86.2,5.5 86.8,4.7 86.8,4 C86.8,3 86.1,2.4 84.9,2.4 L84.8,2.4 L84.8,2.4 Z" id="Shape" fill="#5A6167"></path>
                <path d="M98.8,7.8 L95.1,7.8 L94.1,10.3 L92.5,10.3 L96.4,1.1 L97.8,1.1 L101.6,10.3 L99.8,10.3 L98.8,7.8 Z M97.2,6.6 C97.8,6.6 97.9,6.6 98.4,6.6 C98.2,6.2 98.2,6.1 97.9,5.5 L97.6,4.8 C97.3,4 97.2,3.8 97,3 L97,3 C96.7,3.8 96.7,4 96.3,4.8 L96,5.4 C95.8,6 95.7,6 95.5,6.5 C96,6.5 96.1,6.5 96.7,6.5 L97.2,6.5 L97.2,6.6 Z" id="Shape" fill="#5A6167"></path>
                <path d="M111.4,4.9 C111.6,4.9 111.6,4.9 111.7,4.9 C111.7,4.8 111.7,4.7 111.7,4.6 L111.7,1.2 L113.4,1.2 L113.4,10.3 L111.7,10.3 L111.7,6.6 C111.7,6.4 111.7,6.4 111.7,6.3 C111.6,6.3 111.5,6.3 111.4,6.3 L107.7,6.3 C107.5,6.3 107.5,6.3 107.4,6.3 C107.4,6.4 107.4,6.5 107.4,6.6 L107.4,10.3 L105.7,10.3 L105.7,1.2 L107.4,1.2 L107.4,4.6 C107.4,4.8 107.4,4.8 107.4,4.9 C107.5,4.9 107.6,4.9 107.7,4.9 L111.4,4.9 Z" id="Path" fill="#F05022"></path>
                <path d="M120.6,2.6 L117.3,2.6 C117.1,2.6 117.1,2.6 117,2.6 C117,2.7 117,2.8 117,2.9 L117,4.6 C117,4.8 117,4.8 117,4.9 C117.1,4.9 117.2,4.9 117.3,4.9 L120.2,4.9 L120.2,6.2 L117.3,6.2 C117.1,6.2 117.1,6.2 117,6.2 C117,6.3 117,6.4 117,6.5 L117,8.6 C117,8.8 117,8.8 117,8.9 C117.1,8.9 117.2,8.9 117.3,8.9 L121.2,8.9 L121,10.3 L115.4,10.3 L115.4,1.2 L120.6,1.2 L120.6,2.6 Z" id="Path" fill="#F05022"></path>
                <path d="M127.9,7.8 L124.2,7.8 L123.2,10.3 L121.6,10.3 L125.5,1.1 L126.9,1.1 L130.7,10.3 L128.9,10.3 L127.9,7.8 Z M126.3,6.6 C126.9,6.6 127,6.6 127.5,6.6 C127.3,6.2 127.3,6.1 127,5.5 L126.7,4.8 C126.4,4 126.3,3.8 126.1,3 L126.1,3 C125.8,3.8 125.8,4 125.4,4.8 L125.1,5.4 C124.9,6 124.8,6 124.6,6.5 C125.1,6.5 125.2,6.5 125.8,6.5 L126.3,6.5 L126.3,6.6 Z" id="Shape" fill="#F05022"></path>
                <path d="M133.4,8.5 C133.4,8.7 133.4,8.7 133.4,8.8 C133.5,8.8 133.6,8.8 133.7,8.8 L137.4,8.8 L137.2,10.2 L131.8,10.2 L131.8,1.2 L133.5,1.2 L133.5,8.5 L133.4,8.5 Z" id="Path" fill="#F05022"></path>
                <path d="M143.3,1.2 L143.3,2.6 L140.6,2.6 C140.4,2.6 140.4,2.6 140.3,2.6 C140.3,2.7 140.3,2.8 140.3,2.9 L140.3,10.3 L138.6,10.3 L138.6,2.9 C138.6,2.7 138.6,2.7 138.6,2.6 C138.5,2.6 138.4,2.6 138.3,2.6 L135.7,2.6 L135.7,1.2 L143.3,1.2 Z" id="Path" fill="#F05022"></path>
                <path d="M150.1,4.9 C150.3,4.9 150.3,4.9 150.4,4.9 C150.4,4.8 150.4,4.7 150.4,4.6 L150.4,1.2 L152.1,1.2 L152.1,10.3 L150.4,10.3 L150.4,6.6 C150.4,6.4 150.4,6.4 150.4,6.3 C150.3,6.3 150.2,6.3 150.1,6.3 L146.4,6.3 C146.2,6.3 146.2,6.3 146.1,6.3 C146.1,6.4 146.1,6.5 146.1,6.6 L146.1,10.3 L144.4,10.3 L144.4,1.2 L146.1,1.2 L146.1,4.6 C146.1,4.8 146.1,4.8 146.1,4.9 C146.2,4.9 146.3,4.9 146.4,4.9 L150.1,4.9 Z" id="Path" fill="#F05022"></path>
                <polygon id="Path" fill="#F05022" points="155.7 10.3 154 10.3 154 1.2 155.7 1.2"></polygon>
                <path d="M162.9,2.6 L159.6,2.6 C159.4,2.6 159.4,2.6 159.3,2.6 C159.3,2.7 159.3,2.8 159.3,2.9 L159.3,4.6 C159.3,4.8 159.3,4.8 159.3,4.9 C159.4,4.9 159.5,4.9 159.6,4.9 L162.5,4.9 L162.5,6.2 L159.6,6.2 C159.4,6.2 159.4,6.2 159.3,6.2 C159.3,6.3 159.3,6.4 159.3,6.5 L159.3,8.6 C159.3,8.8 159.3,8.8 159.3,8.9 C159.4,8.9 159.5,8.9 159.6,8.9 L163.5,8.9 L163.3,10.3 L157.7,10.3 L157.7,1.2 L162.9,1.2 L162.9,2.6 Z" id="Path" fill="#F05022"></path>
                <path d="M164.8,1.2 C165.9,1.1 166.4,1.1 167.3,1.1 C169.7,1.1 171,2.1 171,3.9 C171,4.7 170.6,5.4 170,5.9 C169.8,6 169.6,6.1 169.3,6.3 C169.5,6.5 169.5,6.5 169.6,6.7 L172,10.3 L170,10.3 L167.8,6.8 L166.8,6.8 C166.6,6.8 166.6,6.8 166.5,6.8 C166.5,6.9 166.5,7 166.5,7.1 L166.5,10.3 L164.8,10.3 L164.8,1.2 L164.8,1.2 Z M167.3,2.4 C167.1,2.4 166.9,2.4 166.5,2.4 C166.5,2.5 166.5,2.6 166.5,2.7 L166.5,5.2 C166.5,5.4 166.5,5.4 166.5,5.5 C166.6,5.5 166.7,5.5 166.8,5.5 L168.1,5.5 C168.7,5.5 169.3,4.7 169.3,4 C169.3,3 168.6,2.4 167.4,2.4 L167.3,2.4 L167.3,2.4 Z" id="Shape" fill="#F05022"></path>
                <path d="M182.7,3.4 C182,2.8 181.2,2.5 180.3,2.5 C179.4,2.5 178.5,2.9 178,3.6 C177.6,4.2 177.4,4.8 177.4,5.8 C177.4,6.7 177.9,7.8 178.5,8.3 C179,8.7 179.8,9 180.5,9 C181.3,9 181.7,8.9 182.2,8.6 C182.2,8.5 182.2,8.4 182.2,8.3 L182.2,7 C182.2,6.8 182.2,6.8 182.2,6.7 C182.1,6.7 182,6.7 181.9,6.7 L180.2,6.7 L180.3,5.4 L183.8,5.4 L183.8,9.4 C182.8,10.1 181.7,10.4 180.3,10.4 C177.4,10.4 175.5,8.5 175.5,5.6 C175.5,2.9 177.6,0.9 180.3,0.9 C181.8,0.9 182.8,1.3 183.8,2.1 L182.7,3.4 Z" id="Path" fill="#F05022"></path>
                <path d="M190.8,2.6 L187.5,2.6 C187.3,2.6 187.3,2.6 187.2,2.6 C187.2,2.7 187.2,2.8 187.2,2.9 L187.2,4.6 C187.2,4.8 187.2,4.8 187.2,4.9 C187.3,4.9 187.4,4.9 187.5,4.9 L190.4,4.9 L190.4,6.2 L187.5,6.2 C187.3,6.2 187.3,6.2 187.2,6.2 C187.2,6.3 187.2,6.4 187.2,6.5 L187.2,8.6 C187.2,8.8 187.2,8.8 187.2,8.9 C187.3,8.9 187.4,8.9 187.5,8.9 L191.4,8.9 L191.2,10.3 L185.6,10.3 L185.6,1.2 L190.8,1.2 L190.8,2.6 Z" id="Path" fill="#F05022"></path>
                <path d="M193.7,1 L197.7,5.5 C198.5,6.4 198.6,6.6 199.3,7.4 L199.4,7.4 C199.3,6.3 199.3,6.1 199.3,4.9 L199.3,1.2 L200.8,1.2 L200.8,10.1 L199.8,10.4 L195.8,5.8 C195,4.9 194.9,4.7 194.2,3.9 L194.1,3.9 C194.2,5 194.2,5.2 194.2,6.4 L194.2,10.2 L192.7,10.2 L192.7,1.3 L193.7,1 Z" id="Path" fill="#F05022"></path>
                <path d="M208,2.6 L204.7,2.6 C204.5,2.6 204.5,2.6 204.4,2.6 C204.4,2.7 204.4,2.8 204.4,2.9 L204.4,4.6 C204.4,4.8 204.4,4.8 204.4,4.9 C204.5,4.9 204.6,4.9 204.7,4.9 L207.6,4.9 L207.6,6.2 L204.7,6.2 C204.5,6.2 204.5,6.2 204.4,6.2 C204.4,6.3 204.4,6.4 204.4,6.5 L204.4,8.6 C204.4,8.8 204.4,8.8 204.4,8.9 C204.5,8.9 204.6,8.9 204.7,8.9 L208.6,8.9 L208.4,10.3 L202.8,10.3 L202.8,1.2 L208,1.2 L208,2.6 Z" id="Path" fill="#F05022"></path>
                <path d="M209.9,1.2 C211,1.1 211.5,1.1 212.4,1.1 C214.8,1.1 216.1,2.1 216.1,3.9 C216.1,4.7 215.7,5.4 215.1,5.9 C214.9,6 214.7,6.1 214.4,6.3 C214.6,6.5 214.6,6.5 214.7,6.7 L217.1,10.3 L215.1,10.3 L212.9,6.8 L211.9,6.8 C211.7,6.8 211.7,6.8 211.6,6.8 C211.6,6.9 211.6,7 211.6,7.1 L211.6,10.3 L209.9,10.3 L209.9,1.2 L209.9,1.2 Z M212.3,2.4 C212.1,2.4 211.9,2.4 211.5,2.4 C211.5,2.5 211.5,2.6 211.5,2.7 L211.5,5.2 C211.5,5.4 211.5,5.4 211.5,5.5 C211.6,5.5 211.7,5.5 211.8,5.5 L213.1,5.5 C213.7,5.5 214.3,4.7 214.3,4 C214.3,3 213.6,2.4 212.4,2.4 L212.3,2.4 L212.3,2.4 Z" id="Shape" fill="#F05022"></path>
                <path d="M223.5,7.8 L219.8,7.8 L218.8,10.3 L217.2,10.3 L221.1,1.1 L222.5,1.1 L226.3,10.3 L224.5,10.3 L223.5,7.8 Z M221.9,6.6 C222.5,6.6 222.6,6.6 223.1,6.6 C222.9,6.2 222.9,6.1 222.6,5.5 L222.3,4.8 C222,4 221.9,3.8 221.7,3 L221.7,3 C221.4,3.8 221.4,4 221,4.8 L220.7,5.4 C220.5,6 220.4,6 220.2,6.5 C220.7,6.5 220.8,6.5 221.4,6.5 L221.9,6.5 L221.9,6.6 Z" id="Shape" fill="#F05022"></path>
                <path d="M232.7,1.2 L232.7,2.6 L230,2.6 C229.8,2.6 229.8,2.6 229.7,2.6 C229.7,2.7 229.7,2.8 229.7,2.9 L229.7,10.3 L228,10.3 L228,2.9 C228,2.7 228,2.7 228,2.6 C227.9,2.6 227.8,2.6 227.7,2.6 L225.1,2.6 L225.1,1.2 L232.7,1.2 Z" id="Path" fill="#F05022"></path>
                <polygon id="Path" fill="#F05022" points="235.6 10.3 233.9 10.3 233.9 1.2 235.6 1.2"></polygon>
                <path d="M246.6,5.7 C246.6,8.5 244.7,10.4 241.8,10.4 C239.1,10.4 237.1,8.4 237.1,5.6 C237.1,2.9 239,1 241.7,0.9 C244.5,0.8 246.6,2.9 246.6,5.7 Z M239.6,3.5 C239.2,4 239,4.7 239,5.6 C239,6.5 239.4,7.5 240,8.1 C240.5,8.6 241.1,8.9 241.9,8.9 C243.6,9 244.8,7.8 244.8,5.8 C244.8,3.9 243.5,2.4 241.7,2.4 C240.8,2.4 240.1,2.8 239.6,3.5 Z" id="Shape" fill="#F05022"></path>
                <path d="M249.2,1 L253.2,5.5 C254,6.4 254.1,6.6 254.8,7.4 L254.9,7.4 C254.8,6.3 254.8,6.1 254.8,4.9 L254.8,1.2 L256.3,1.2 L256.3,10.1 L255.3,10.4 L251.3,5.8 C250.5,4.9 250.4,4.7 249.7,3.9 L249.6,3.9 C249.7,5 249.7,5.2 249.7,6.4 L249.7,10.2 L248.2,10.2 L248.2,1.3 L249.2,1 Z" id="Path" fill="#F05022"></path>
            </g>
        </g>
    </g>
</svg>
