<?xml version="1.0" encoding="UTF-8"?>
<svg xmlns="http://www.w3.org/2000/svg" xmlns:xlink="http://www.w3.org/1999/xlink" width="480px" height="480px" viewBox="0 0 480 480" version="1.1">
<g id="surface82341">
<path style=" stroke:none;fill-rule:nonzero;fill:rgb(98.431373%,30.980392%,7.843137%);fill-opacity:1;" d="M 340 270 L 140 270 L 140 450 L 240 420 L 340 450 Z M 340 270 "/>
<path style=" stroke:none;fill-rule:nonzero;fill:rgb(82.352941%,30.588235%,12.941176%);fill-opacity:1;" d="M 340 313.320312 L 335.03125 313.429688 C 316.75 313.808594 300.191406 323.378906 290.699219 339.039062 L 287.890625 343.691406 C 284.238281 349.71875 276.550781 351.789062 270.390625 348.398438 L 265.609375 345.761719 C 257.589844 341.351562 248.800781 339.140625 240.011719 339.140625 C 231.210938 339.140625 222.410156 341.351562 214.378906 345.769531 L 209.648438 348.378906 C 203.480469 351.769531 195.769531 349.710938 192.121094 343.679688 L 189.308594 339.03125 C 179.839844 323.378906 163.269531 313.808594 144.988281 313.429688 L 140 313.320312 L 140 353.328125 L 144.148438 353.421875 C 148.660156 353.511719 152.75 355.871094 155.089844 359.738281 L 157.910156 364.390625 C 172.699219 388.820312 203.871094 397.191406 228.960938 383.410156 L 233.710938 380.789062 C 237.671875 378.621094 242.390625 378.621094 246.308594 380.78125 L 251.101562 383.421875 C 259.25 387.898438 268.050781 390.039062 276.730469 390.039062 C 294.710938 390.039062 312.148438 380.871094 322.128906 364.371094 L 324.929688 359.730469 C 327.269531 355.859375 331.371094 353.5 335.890625 353.410156 L 340 353.320312 Z M 340 313.320312 "/>
<path style=" stroke:none;fill-rule:nonzero;fill:rgb(100%,69.803922%,23.529412%);fill-opacity:1;" d="M 403.25 215.960938 C 397.78125 206.03125 397.78125 193.980469 403.25 184.050781 L 405.871094 179.289062 C 414.421875 163.738281 409.199219 144.199219 394 135.011719 L 389.351562 132.191406 C 379.648438 126.308594 373.628906 115.890625 373.390625 104.558594 L 373.269531 99.121094 C 372.910156 81.371094 358.609375 67.070312 340.859375 66.710938 L 335.421875 66.589844 C 324.078125 66.359375 313.648438 60.328125 307.789062 50.628906 L 304.96875 45.980469 C 295.78125 30.789062 276.238281 25.558594 260.691406 34.109375 L 255.929688 36.730469 C 246 42.199219 233.949219 42.199219 224.019531 36.730469 L 219.269531 34.121094 C 203.71875 25.570312 184.191406 30.800781 175 45.988281 L 172.179688 50.640625 C 166.300781 60.339844 155.878906 66.359375 144.550781 66.601562 L 139.109375 66.71875 C 121.359375 67.078125 107.058594 81.378906 106.699219 99.128906 L 106.578125 104.570312 C 106.351562 115.910156 100.320312 126.339844 90.621094 132.199219 L 85.96875 135.019531 C 70.789062 144.210938 65.550781 163.75 74.101562 179.300781 L 76.71875 184.058594 C 82.191406 193.988281 82.191406 206.039062 76.71875 215.96875 L 74.109375 220.71875 C 65.558594 236.269531 70.78125 255.808594 85.980469 265 L 90.628906 267.820312 C 100.328125 273.699219 106.351562 284.121094 106.589844 295.449219 L 106.710938 300.890625 C 107.070312 318.640625 121.371094 332.941406 139.121094 333.300781 L 144.558594 333.421875 C 155.898438 333.648438 166.328125 339.679688 172.191406 349.378906 L 175.011719 354.03125 C 184.199219 369.210938 203.738281 374.449219 219.289062 365.898438 L 224.050781 363.28125 C 233.980469 357.808594 246.03125 357.808594 255.960938 363.28125 L 260.71875 365.898438 C 276.269531 374.449219 295.808594 369.230469 305 354.03125 L 307.820312 349.378906 C 313.699219 339.679688 324.121094 333.660156 335.449219 333.421875 L 340.890625 333.300781 C 358.640625 332.941406 372.941406 318.640625 373.300781 300.890625 L 373.421875 295.449219 C 373.648438 284.109375 379.679688 273.679688 389.378906 267.820312 L 394.03125 265 C 409.210938 255.808594 414.449219 236.269531 405.898438 220.71875 Z M 403.25 215.960938 "/>
<path style=" stroke:none;fill-rule:nonzero;fill:rgb(100%,70.196078%,0%);fill-opacity:1;" d="M 239.988281 89.230469 C 178.8125 89.230469 129.21875 138.824219 129.21875 200 C 129.21875 261.175781 178.8125 310.769531 239.988281 310.769531 C 301.167969 310.769531 350.761719 261.175781 350.761719 200 C 350.761719 138.824219 301.167969 89.230469 239.988281 89.230469 Z M 239.988281 89.230469 "/>
<path style=" stroke:none;fill-rule:nonzero;fill:rgb(100%,82.745098%,32.54902%);fill-opacity:1;" d="M 240 320.011719 C 173.828125 320.011719 120 266.179688 120 200.011719 C 120 133.839844 173.820312 80 240 80 C 306.179688 80 360 133.828125 360 200 C 360 266.171875 306.171875 320.011719 240 320.011719 Z M 240 100 C 184.859375 100 140 144.859375 140 200 C 140 255.140625 184.859375 300 240 300 C 295.140625 300 340 255.140625 340 200 C 340 144.859375 295.140625 100 240 100 Z M 240 100 "/>
</g>
</svg>
