<?xml version="1.0" encoding="UTF-8"?>
<svg xmlns="http://www.w3.org/2000/svg" xmlns:xlink="http://www.w3.org/1999/xlink" width="480px" height="480px" viewBox="0 0 480 480" version="1.1">
<g id="surface73411">
<path style=" stroke:none;fill-rule:nonzero;fill:rgb(16.470588%,73.333333%,83.529412%);fill-opacity:1;" d="M 310 70 L 440 86.859375 L 332.960938 190 Z M 170 409.980469 L 40 393.128906 L 147.039062 290 Z M 70 170 L 86.859375 40 L 190 147.039062 Z M 409.980469 310 L 393.121094 440 L 290 332.960938 Z M 409.980469 310 "/>
<path style=" stroke:none;fill-rule:nonzero;fill:rgb(16.470588%,73.333333%,83.529412%);fill-opacity:1;" d="M 240 400 C 229.769531 400 219.789062 398.941406 210.101562 397.109375 L 203.160156 435.839844 C 215.78125 437.941406 228.410156 438.96875 240 438.96875 C 296.828125 438.96875 347.359375 414.789062 384.199219 376.878906 L 356.140625 349.839844 C 326.980469 380.660156 285.789062 400 240 400 Z M 80 240 C 80 230.089844 81.03125 220.441406 82.75 211.019531 L 41.070312 218.96875 C 40 226.328125 40 232.671875 40 240.03125 C 40 288.46875 56.859375 334.769531 88.441406 370.539062 L 118.789062 344.261719 C 94.671875 316.238281 80 279.871094 80 240 Z M 240 80 C 250.230469 80 260.210938 81.058594 269.910156 82.890625 L 276.839844 44.21875 C 265.25 41.101562 252.621094 40.03125 240 40.03125 C 183.171875 40.03125 132.640625 64.25 95.800781 102.121094 L 123.859375 130.179688 C 153.019531 99.339844 194.210938 80 240 80 Z M 394.730469 112.640625 L 363.28125 138.019531 C 386.210938 165.710938 400 201.238281 400 240 C 400 249.929688 398.96875 259.601562 397.238281 269.03125 L 438.929688 261.078125 C 440 253.71875 440 247.390625 440 240.03125 C 440 193.730469 424.210938 148.460938 394.730469 112.640625 Z M 394.730469 112.640625 "/>
</g>
</svg>
