<?xml version="1.0" encoding="UTF-8"?>
<svg xmlns="http://www.w3.org/2000/svg" xmlns:xlink="http://www.w3.org/1999/xlink" width="480px" height="480px" viewBox="0 0 480 480" version="1.1">
<g id="surface51692">
<path style=" stroke:none;fill-rule:nonzero;fill:rgb(74.901961%,74.901961%,74.901961%);fill-opacity:1;" d="M 360 440 L 80 440 L 80 80 L 280 80 L 360 160 Z M 360 440 "/>
<path style=" stroke:none;fill-rule:nonzero;fill:rgb(87.058824%,87.058824%,87.058824%);fill-opacity:1;" d="M 400 400 L 120 400 L 120 40 L 320 40 L 400 120 Z M 400 400 "/>
<path style=" stroke:none;fill-rule:nonzero;fill:rgb(95.294118%,95.294118%,95.294118%);fill-opacity:1;" d="M 385 130 L 310 130 L 310 55 Z M 385 130 "/>
<path style=" stroke:none;fill-rule:nonzero;fill:rgb(98.431373%,30.980392%,7.843137%);fill-opacity:1;" d="M 245 283 C 245 236 281 239 281 211 C 281 204 279 190 261 190 C 241 190 240 206 240 210 L 213 210 C 213 203 216 168 261 168 C 307 168 308 204 308 211 C 308 246 270 251 270 284 L 245 284 Z M 243 318 C 243 316 243 303 258 303 C 272 303 273 316 273 318 C 273 322 271 332 258 332 C 245 332 243 322 243 318 Z M 243 318 "/>
</g>
</svg>
