<?xml version="1.0" encoding="UTF-8"?>
<svg xmlns="http://www.w3.org/2000/svg" xmlns:xlink="http://www.w3.org/1999/xlink" width="480px" height="480px" viewBox="0 0 480 480" version="1.1">
<g id="surface74124">
<path style=" stroke:none;fill-rule:nonzero;fill:rgb(16.470588%,73.333333%,83.529412%);fill-opacity:1;" d="M 340 130 C 340 135.53125 335.53125 140 330 140 L 50 140 C 44.46875 140 40 135.53125 40 130 L 40 60 C 40 54.46875 44.46875 50 50 50 L 330 50 C 335.53125 50 340 54.46875 340 60 Z M 340 130 "/>
<path style=" stroke:none;fill-rule:nonzero;fill:rgb(87.058824%,87.058824%,87.058824%);fill-opacity:1;" d="M 370.539062 315 C 370.539062 291.789062 358.320312 271.460938 340 259.960938 L 340 100 L 40 100 L 40 390 L 340 390 L 340 370.039062 C 358.320312 358.539062 370.539062 338.210938 370.539062 315 Z M 370.539062 315 "/>
<path style=" stroke:none;fill-rule:nonzero;fill:rgb(38.039216%,38.039216%,38.039216%);fill-opacity:1;" d="M 351.070312 374.652344 L 365.207031 360.503906 L 430.007812 425.261719 L 415.871094 439.40625 Z M 351.070312 374.652344 "/>
<path style=" stroke:none;fill-rule:nonzero;fill:rgb(38.039216%,38.039216%,38.039216%);fill-opacity:1;" d="M 305.539062 230 C 258.609375 230 220.539062 268.070312 220.539062 315 C 220.539062 361.929688 258.609375 400 305.539062 400 C 352.46875 400 390.539062 361.929688 390.539062 315 C 390.539062 268.070312 352.46875 230 305.539062 230 Z M 305.539062 380 C 269.648438 380 240.539062 350.890625 240.539062 315 C 240.539062 279.109375 269.648438 250 305.539062 250 C 341.429688 250 370.539062 279.109375 370.539062 315 C 370.539062 350.890625 341.429688 380 305.539062 380 Z M 305.539062 380 "/>
<path style=" stroke:none;fill-rule:nonzero;fill:rgb(21.568627%,27.843137%,30.980392%);fill-opacity:1;" d="M 374.449219 398.027344 L 388.585938 383.878906 L 430.007812 425.273438 L 415.871094 439.421875 Z M 374.449219 398.027344 "/>
<path style=" stroke:none;fill-rule:nonzero;fill:rgb(53.333333%,53.333333%,53.333333%);fill-opacity:1;" d="M 210.238281 270 L 130 270 L 130 290 L 203.128906 290 C 204.820312 283.03125 207.21875 276.351562 210.238281 270 Z M 130 150 L 290 150 L 290 170 L 130 170 Z M 243.539062 230 L 130 230 L 130 250 L 222.640625 250 C 228.640625 242.398438 235.679688 235.679688 243.539062 230 Z M 130 190 L 290 190 L 290 210 L 130 210 Z M 90 310 L 110 310 L 110 330 L 90 330 Z M 200 315 C 200 313.308594 200.179688 311.671875 200.25 310 L 130 310 L 130 330 L 201.191406 330 C 200.488281 325.089844 200 320.109375 200 315 Z M 90 270 L 110 270 L 110 290 L 90 290 Z M 90 150 L 110 150 L 110 170 L 90 170 Z M 90 230 L 110 230 L 110 250 L 90 250 Z M 90 190 L 110 190 L 110 210 L 90 210 Z M 90 190 "/>
</g>
</svg>
