<?xml version="1.0" encoding="UTF-8"?>
<svg width="512px" height="288px" viewBox="0 0 512 288" version="1.1" xmlns="http://www.w3.org/2000/svg" xmlns:xlink="http://www.w3.org/1999/xlink">
    <title>Default thumb grey</title>
    <g id="Default-thumb-grey" stroke="none" stroke-width="1" fill="none" fill-rule="evenodd">
        <rect fill="#FFFFFF" x="0" y="0" width="512" height="288"></rect>
        <rect id="Rectangle" fill="#F5F2F0" x="0" y="0" width="512" height="288"></rect>
        <path d="M178.532104,147.158061 C178.278197,146.994835 178.821377,146.550498 179.129693,146.713724 L179.17594,147.339423 C179.17594,147.339423 178.849488,147.35756 178.532104,147.158061 Z M338.82006,105.027611 C337.939546,105.716787 337.169663,106.324351 336.398874,106.922846 C336.352626,106.886574 336.307286,106.841233 336.271013,106.804961 C337.078982,105.644242 337.894206,104.483524 338.692199,103.359078 C338.439199,102.896604 338.058338,102.996354 337.703775,103.005422 C337.550524,103.15958 337.387298,103.295601 337.25037,103.467895 C337.151527,103.594849 337.115255,103.776211 337.006437,103.912233 C336.878577,104.075459 336.70719,104.220549 336.553032,104.374707 C336.425171,104.50166 336.280988,104.619546 336.172171,104.764635 C336.054286,104.918793 335.981741,105.118292 335.85388,105.281518 C335.745063,105.426608 335.619016,105.553561 335.473926,105.662379 C335.32793,105.771196 335.274428,106.025103 334.938908,105.988831 C335.319768,105.145496 335.70879,104.374707 336.036149,103.567645 C336.307286,102.91474 336.679985,102.270905 336.461444,101.491047 C336.307286,101.481979 336.162196,101.472911 335.963604,101.463843 C334.902635,102.660833 334.431093,104.247753 333.53335,105.771196 C333.297579,104.175208 333.86887,102.887536 334.040258,101.436638 C333.86887,101.373161 333.614963,101.28248 333.251332,101.146459 C332.816969,102.298109 332.363564,103.340942 332.15409,104.483524 C331.919226,105.716787 331.719728,107.004459 330.441124,107.784317 C330.205353,107.439729 329.987718,107.086072 329.724743,106.768688 C329.416427,106.415032 329.071839,106.106716 328.690978,105.725855 C328.446139,106.006967 328.246641,106.242738 327.983665,106.551054 C328.210368,107.031664 328.464275,107.584818 328.59939,107.874998 C328.545888,108.654856 328.482412,109.171738 328.473344,109.68862 C328.464275,110.359661 328.237573,110.967224 327.883009,111.511311 C327.557464,111.991921 327.294489,112.481599 327.140331,113.05289 C326.986173,113.633249 326.713223,114.195472 326.413975,114.712355 C326.151,115.156692 325.733867,115.510349 325.435526,115.93655 C324.991188,116.580386 324.546851,117.206086 324.31108,117.976875 C323.893947,119.382433 323.377064,120.760786 322.878318,122.220752 C322.733228,122.121003 322.615343,122.057526 322.514687,121.966845 C322.251712,121.712938 322.016847,121.440894 321.744804,121.205123 C321.300467,120.824263 320.720107,120.706377 320.194157,120.488742 C318.879281,119.926519 317.890856,118.910891 316.938705,117.877126 C316.875228,117.813649 316.902432,117.641355 316.829887,117.605083 C315.959348,117.04286 315.242967,116.27207 314.336156,115.755188 C313.265212,115.129488 312.322128,114.258949 310.980955,114.01411 C311.207657,113.905293 311.352747,113.832748 311.479701,113.769271 C311.487862,113.569773 311.506905,113.397478 311.506905,113.379342 C312.858054,112.545076 313.945321,111.502243 315.351785,111.239268 C315.414355,111.057905 315.433398,110.949088 315.4869,110.867475 C315.741714,110.495682 316.058191,110.16923 316.267664,109.770233 C316.530639,109.271487 316.693865,108.718332 316.938705,108.20145 C317.283293,107.457865 317.219816,106.723348 316.92873,105.988831 C317.110999,105.725855 317.30959,105.499153 317.029386,105.145496 C316.802683,104.855317 316.76641,104.465388 316.684797,104.111731 C316.584141,103.703666 316.284894,103.83062 316.050029,103.458827 C316.050029,104.039186 316.38555,104.093595 316.231392,104.592341 C316.094463,104.719295 315.823327,104.855317 315.722671,104.945998 C315.27924,104.347502 314.815859,105.218041 314.381497,104.900657 C314.327088,104.782772 314.272679,104.664886 314.218271,104.510728 C314.09041,104.637682 314.054138,104.637682 313.909048,104.710227 C313.102893,105.281518 312.232354,105.471948 311.297432,105.354063 C311.28927,105.236177 311.28927,105.136428 311.280202,105.045747 C311.361815,105.009474 311.425292,104.964134 311.479701,104.955066 C311.91497,104.955066 312.304899,104.755567 312.730194,104.710227 C313.093825,104.664886 313.64698,104.50166 314.036909,104.483524 C313.637005,104.31123 313.111054,104.274957 313.130097,104.35657 C312.621376,104.438183 312.613215,104.483524 312.177945,104.565137 C311.706404,104.655818 311.515973,104.692091 311.070729,104.846248 C310.609162,105.009474 310.192029,104.955066 309.720487,104.909725 C310.146688,104.374707 309.874645,103.821552 309.956258,103.422555 C309.738623,102.805923 309.239877,103.096103 308.957859,102.969149 C309.013174,102.669901 309.066676,102.415994 309.094787,102.153019 C309.121992,101.871908 309.030404,101.518251 309.167332,101.327821 C309.430307,100.974164 309.384967,100.575167 309.285218,100.294056 C309.076651,99.7046287 309.112923,99.1242695 309.094787,98.5257741 C309.085719,98.4260248 309.040379,98.3353437 309.013174,98.2355945 C308.813676,97.4829411 308.478156,96.7846965 308.260521,96.0501794 C308.106363,95.5514332 307.906865,95.1615044 307.552301,94.8169161 C307.244892,94.5086003 306.972849,94.1549439 306.619193,93.9010367 C305.95722,93.4204268 305.349657,92.7765908 304.650505,92.9488849 C303.852511,92.6949778 303.290288,92.4320025 302.701768,92.3594576 C302.275567,92.3050489 301.758684,92.1146186 301.377824,92.5408199 C300.697715,92.4501387 300.235241,92.9670212 299.663044,93.1393153 C298.666458,93.4294949 297.795919,93.8556962 296.94261,94.4813959 C296.009501,95.1705725 295.365665,96.0592475 294.784399,96.9932631 C294.150538,97.9998236 294.023584,99.2058825 293.642724,100.32126 C293.552043,100.61144 293.452293,100.910688 293.434157,101.209935 C293.38791,102.234632 293.751541,103.105171 294.521424,103.767143 C294.513262,103.948505 294.504194,104.093595 294.504194,104.202412 C294.195879,104.320298 293.905699,104.420047 293.669928,104.510728 C293.51577,105.898149 294.014516,107.040732 294.403538,108.210518 C294.585807,108.781809 294.974829,109.144534 295.537052,109.153602 C295.809096,109.733961 296.009501,110.26898 296.308749,110.758658 C296.598022,111.2302 296.988857,111.638265 297.333445,112.073534 C297.161151,112.581348 296.997925,113.089163 296.807495,113.669522 C296.217161,113.841816 295.582393,114.059451 294.930396,114.213609 C294.068018,114.431243 293.197479,114.757695 292.318779,114.721423 C291.203401,114.676082 290.177798,115.038807 289.153101,115.274578 C288.1012,115.519417 287.095546,116.108844 286.169692,116.707339 C284.238184,117.949671 282.397357,119.318956 280.484893,120.59756 C279.650626,121.159783 278.806385,121.731074 277.781688,121.948708 C277.338258,122.048458 276.939261,122.365842 276.530289,122.610681 C276.231041,122.801111 275.959904,123.027814 275.615316,123.281721 C275.678793,121.93964 275.696929,120.697309 275.805747,119.473114 C275.923632,118.185442 275.251685,117.006587 275.360502,115.700779 C275.579044,115.419668 275.842019,115.138556 276.040611,114.821172 C276.348926,114.331494 276.756992,113.841816 276.857648,113.306797 C277.093418,112.037262 277.482441,110.803998 277.755391,109.543531 C277.827936,109.171738 277.899574,108.799945 277.972119,108.437221 C278.044663,108.065428 278.036502,107.648295 278.208796,107.339979 C278.417363,106.968187 278.263205,106.523849 278.435499,106.23367 C278.870769,105.526357 278.598725,104.846248 278.38109,104.238685 C277.991162,103.123307 277.383598,102.153019 276.168471,101.672409 C275.45209,101.391298 274.78105,101.001369 274.064669,100.702121 C272.649137,100.085489 271.279852,99.3691085 269.883362,98.7252725 C269.231365,98.4260248 268.587529,98.0814366 268.016238,98.199322 C267.543789,98.4078886 267.244542,98.5348422 266.899953,98.6890001 L266.899953,96.6940154 C268.551257,95.7237273 269.539681,94.164012 270.300495,92.4501387 C270.618786,92.3050489 270.89083,92.1780954 271.153805,92.0602099 C271.397737,91.6430767 271.679755,91.262216 271.870186,90.8269466 C272.060616,90.3644729 272.186663,89.8747948 272.304548,89.3851167 C272.486817,88.6505996 272.494979,87.8435376 272.830499,87.2087698 C273.076245,86.7281598 272.740725,86.4923889 272.749793,86.1478006 C272.776997,85.5130327 272.186663,85.6762588 271.870186,85.4858284 C272.504954,84.7150388 272.432409,83.7356827 272.731656,82.9286207 C272.659112,82.7381903 272.559362,82.5931005 272.541226,82.4298745 C272.504954,82.2122398 272.504954,81.9946051 272.541226,81.7769704 C272.567524,81.6228125 272.704452,81.4777227 272.740725,81.3235648 C272.776997,81.1512707 272.749793,80.9608403 272.749793,80.779478 C272.749793,80.5618433 272.721681,80.3351405 272.757954,80.126574 C272.786065,79.972416 272.903044,79.8273262 272.958359,79.7366451 C272.822338,79.3648525 272.71352,79.0565367 272.586567,78.6938122 C272.958359,77.7960691 272.359864,76.1728769 270.927102,74.4590037 C271.108464,74.3592544 271.307963,74.2595052 271.489325,74.1688241 C271.153805,73.597533 270.871787,73.0897187 270.546241,72.6181769 C270.364879,72.3552016 270.129108,72.1012945 269.857065,71.9380684 C269.275799,71.5934802 268.651006,71.339573 268.079715,70.9859166 C267.879309,70.8680312 267.726058,70.7864181 267.499356,70.7864181 C266.801111,70.7682819 266.193547,70.4690342 265.648554,70.1607184 C265.07817,70.0428329 264.506878,70.3148763 264.025362,69.9974924 C263.590999,69.6982447 263.11855,69.6710403 262.647915,69.7073128 C262.285191,69.4624737 261.948764,69.2357709 261.605082,69 C261.350268,69.0997492 261.142609,69.2176347 260.915906,69.2539071 C260.624819,69.2901796 260.335547,69.2629753 260.026324,69.2629753 C259.374327,69.8433345 258.730491,70.450898 258.041314,71.0040528 C257.732998,71.2488919 257.334001,71.3758455 256.980345,71.5662758 C256.971277,71.5390715 256.961302,71.5209353 256.953141,71.4937309 C256.263964,72.0831582 255.574788,72.6725855 254.920977,73.2348085 C255.030701,73.4252389 255.094178,73.5431243 255.139518,73.6156692 C254.949088,74.2141646 254.178298,73.8786445 254.014166,74.4952761 C253.897187,74.9305455 253.616075,75.3114063 253.425645,75.7013351 C253.49819,75.8101524 253.56076,75.8917654 253.625144,75.9915147 C253.470986,76.2272856 253.261512,76.4358522 253.171738,76.6806912 C252.953196,77.2429142 252.726494,77.8232734 252.627651,78.4127007 C252.527902,79.0474686 252.010113,79.6550321 252.482561,80.3804811 C252.600447,80.5618433 252.636719,80.9880446 252.364676,81.2872923 C252.147041,81.5411995 252.437221,81.985537 252.101701,82.2394441 C252.508859,82.9830294 252.183314,83.7900914 252.292131,84.5518128 C252.328403,84.7331751 252.400948,84.9145373 252.455357,85.0958996 C252.192382,85.4676922 252.029156,85.8666891 252.065428,86.3472991 C252.183314,87.6168348 252.400948,88.8591662 252.925992,90.0289527 C252.68206,90.5639714 253.289623,90.7453336 253.434713,91.1261943 C253.543531,91.425442 254.069481,91.5796 254.423137,91.8063028 C254.522887,92.150891 254.631704,92.5408199 254.749589,92.9398168 C254.94002,92.9760893 255.139518,93.0123617 255.293676,93.0395661 C255.538515,93.3660181 255.710809,93.6743339 255.955648,93.9101048 C256.227692,94.1730801 256.563212,94.3725786 256.871528,94.6083495 C256.789915,95.2340493 256.916868,95.8506809 256.662054,96.4854488 C256.054491,98.0179598 256.018218,98.4895016 254.441274,98.9973159 C254.431299,99.006384 254.423137,99.006384 254.414069,99.0245203 C254.405001,99.0335884 254.405001,99.0335884 254.405001,99.0245203 C252.699289,98.4260248 251.013527,98.5892509 249.344994,98.9157029 C248.310323,99.486994 247.232124,99.9403996 246.062338,99.9313315 C244.711189,99.9222634 243.749969,100.674917 242.724366,101.355025 C242.497663,102.089542 241.827529,102.506675 241.374124,103.068898 C240.694015,103.939437 240.059247,104.855317 239.478888,105.789332 C238.79878,106.886574 238.091467,107.938475 237.193724,108.863422 C236.902637,109.153602 236.468275,109.3531 236.403891,109.83371 C235.634008,110.513819 235.080854,111.393426 234.155906,111.94658 C233.067733,112.590416 232.115581,113.442819 231.453609,114.567265 C231.145293,115.102284 230.817934,115.655438 230.374503,116.072572 C228.642494,117.741104 227.091847,119.609135 225.178475,121.096306 C224.14471,121.8943 223.192558,122.782975 222.195066,123.626309 C221.903979,123.871148 221.569366,124.061579 221.288255,124.324554 C220.789508,124.796096 220.363307,125.367387 219.810152,125.757316 C219.256091,126.147245 218.903341,126.691331 218.585957,127.026851 C217.551285,127.008715 217.171332,126.020291 216.282657,125.820792 C216.065022,125.775452 215.901796,125.421796 215.729502,125.204161 C215.3033,124.63287 215.031257,123.961829 214.304901,123.608173 C213.960313,123.444947 213.643836,122.928065 213.580359,122.529068 C213.344588,121.096306 212.645437,119.853975 212.001601,118.602575 C211.630715,117.886194 211.104764,117.224222 210.305864,116.807089 C209.471597,116.362751 208.647306,115.891209 207.831176,115.410599 C207.141999,115.002534 206.434686,114.576333 205.672965,114.340562 C204.920312,114.104791 204.276476,113.67859 203.541052,113.433751 C203.324324,113.352138 203.097621,113.170776 202.979736,112.971277 C202.354036,111.910308 201.447225,111.202995 200.313711,110.74959 C200.068872,110.64984 199.851237,110.477546 199.678036,110.368729 C199.851237,109.334964 200.866865,108.709264 200.721776,107.648295 C200.885002,107.485069 201.021023,107.367184 201.147977,107.24023 C200.81155,106.950051 200.929435,106.61453 200.984751,106.188329 C201.192411,106.297146 201.338407,106.369691 201.491658,106.451304 C201.556042,106.333419 201.619519,106.188329 201.691157,106.034171 C202.009448,106.496645 202.535398,106.079512 202.925327,106.387828 L202.925327,106.895642 L203.278076,106.895642 L203.278076,105.997899 C203.006033,105.916286 202.753033,105.834673 202.480083,105.75306 C202.462853,105.589834 202.44381,105.41754 202.426581,105.254313 C202.144562,105.12736 201.872519,105.000406 201.601383,104.873453 C201.828085,104.673954 202.054788,104.474456 202.281491,104.274957 C202.52633,104.519796 202.508194,105.000406 203.070417,104.945998 C203.025076,104.809976 202.979736,104.692091 202.925327,104.547001 C203.179234,104.401911 203.433141,104.256821 203.686142,104.111731 C203.814002,104.401911 203.940956,104.683022 204.049773,104.918793 L204.611996,104.918793 L204.611996,104.601409 C204.447863,104.528865 204.30368,104.474456 204.139547,104.401911 C204.240203,104.193344 204.312748,104.057323 204.394361,103.903165 C204.11325,103.739939 203.868411,103.594849 203.722414,103.513236 C203.423166,103.739939 203.196463,103.903165 202.916259,104.120799 C202.798373,103.848756 202.725828,103.676462 202.552627,103.286533 C202.834646,103.504168 202.897216,103.558576 203.025076,103.658326 C203.288051,103.313737 203.541052,102.960081 203.82307,102.615493 C203.868411,102.561084 204.004432,102.57922 204.149522,102.552016 L204.149522,102.860332 C204.49411,103.168648 204.684541,103.35001 204.811494,103.467895 C204.775222,103.322806 204.729881,103.05983 204.621064,102.824059 C204.520408,102.597357 204.358089,102.397858 204.15859,102.071406 C204.520408,102.162087 204.766154,102.216496 205.038197,102.289041 L205.038197,101.754022 C204.55668,101.409434 204.058841,101.046709 203.551027,100.693053 C203.912844,100.384737 204.184888,100.829075 204.520408,100.829075 C204.592953,100.674917 204.657336,100.529827 204.729881,100.384737 C204.811494,100.457282 204.892201,100.529827 204.937541,100.566099 C205.137946,100.46635 205.318402,100.366601 205.536036,100.257784 L205.536036,99.6955606 C205.827123,99.8043779 206.062894,99.8859909 206.289597,99.9766721 C206.316801,99.9313315 206.344005,99.8859909 206.380278,99.8497185 C206.1436,99.6139476 205.908736,99.3781766 205.700169,99.1696101 C205.718306,98.9610435 205.726467,98.8250218 205.74551,98.679932 C206.044758,98.761545 206.289597,99.0698608 206.588844,98.7343407 C206.034783,98.4713654 205.499764,98.2174583 204.992857,97.9726192 C204.864996,98.0723685 204.793358,98.1358452 204.702677,98.2083901 C204.629225,97.8547338 204.566655,97.5282817 204.503178,97.2018297 C204.684541,97.1202166 204.92938,97.0204674 205.164244,96.9025819 C205.210491,96.8844457 205.219559,96.8028327 205.228627,96.7937646 C205.07447,96.5761299 204.937541,96.3856995 204.802426,96.2043373 C204.920312,96.0773837 204.992857,95.9957707 205.082631,95.8960215 C204.864996,95.7509317 204.657336,95.6058419 204.438795,95.4607521 C204.566655,95.4063434 204.693609,95.3519347 204.729881,95.3337985 C204.693609,94.8169161 204.973814,94.408851 205.101674,93.9101048 L204.249271,93.9101048 C204.194863,94.0461265 204.131386,94.1912163 204.076977,94.3363061 C203.777729,94.1912163 203.569163,94.0914671 203.360596,94.000786 C203.442209,93.8194237 203.523822,93.6471296 203.596367,93.5020398 C203.832138,93.4113587 204.103275,93.3750862 204.249271,93.2209283 C204.385293,93.0849066 204.376225,92.8128632 204.421565,92.631501 C203.795866,92.6949778 203.260847,92.7493865 202.689556,92.8037951 L202.689556,92.4138663 C202.834646,92.3503895 202.961599,92.2959808 203.087646,92.2415722 C202.851875,92.1327548 202.662352,92.1690273 202.471921,92.2052997 C202.25338,92.2506403 202.036652,92.2869127 201.701132,92.3503895 C201.872519,91.906052 202.199878,91.6249405 201.891562,91.2078073 C201.619519,91.2894204 201.338407,91.3801015 201.011048,91.4707826 C200.830593,91.1896711 200.640163,90.9085596 200.4588,90.6365163 C200.232098,90.6002438 200.032599,90.5549032 199.78776,90.5095627 C199.896577,90.2556555 199.996327,90.047089 200.12328,89.7659775 C199.93285,89.6299558 199.751488,89.5120703 199.605491,89.403253 L199.605491,88.4964417 C199.488512,88.3876244 199.388763,88.2969433 199.298082,88.2153302 C199.180196,88.3241476 199.071379,88.4238968 198.970723,88.5145779 C199.043268,88.596191 199.115813,88.677804 199.252741,88.8319619 L198.136457,88.8319619 C198.100184,89.1856183 198.082955,89.4485935 198.054844,89.7206369 C198.01041,89.729705 197.965069,89.7387731 197.919729,89.7478412 C197.791868,89.4485935 197.656754,89.1493458 197.520732,88.8319619 C197.420076,88.8682343 197.330302,88.8954387 197.203348,88.9407792 L197.203348,89.484866 L196.694627,89.484866 C196.549537,89.2490951 196.42349,89.0495966 196.305605,88.8591662 L195.14398,88.8591662 C194.383165,89.7841137 193.131765,90.2647236 192.541431,91.4798507 L191.662731,91.4798507 C191.525803,91.8697795 191.407917,92.2143678 191.290032,92.5680242 C190.375059,92.3685257 189.957926,91.6702811 189.558022,91.0717857 L188.933229,91.0717857 C189.12366,91.2984885 189.277818,91.4707826 189.395703,91.6158724 C189.277818,91.9604607 189.187137,92.2506403 189.032072,92.6859097 C188.733731,92.3050489 188.479824,91.9785969 188.315691,91.7700303 C187.600217,91.8516433 187.228424,91.4073058 186.775019,91.2350117 C186.258136,91.0355132 185.776619,90.7816061 185.206235,90.8088104 C184.861647,90.2647236 184.208743,90.2737918 183.728133,90.210315 C183.156842,90.128702 182.694368,89.8657267 182.168418,89.7387731 C181.651535,89.6118196 181.088405,89.6299558 180.635,89.5936833 C180.417365,89.7569094 180.218773,89.892931 179.973934,90.0742933 C180.590566,90.5004946 181.133746,90.4642221 181.623424,90.2465874 C181.968012,90.5549032 182.295371,90.854151 182.712504,91.2350117 C182.295371,91.2350117 181.896374,91.3619653 181.678739,91.2168755 C181.170018,90.854151 180.57243,91.2350117 180.145322,90.9811045 C179.61121,90.6637206 179.103396,90.9176277 178.622786,90.7997423 C178.468628,90.9629683 178.35981,91.0808538 178.214721,91.2350117 C178.413312,91.4617145 178.56747,91.6340086 178.731603,91.8153709 C178.56747,91.8697795 178.441423,91.9241882 178.278197,91.9785969 C178.31447,92.1146186 178.340767,92.232504 178.37704,92.3503895 C178.659058,92.2597084 178.885761,92.1146186 179.103396,92.1327548 C179.302894,92.1599591 179.474281,92.3685257 179.700984,92.5226836 C179.212213,93.1846559 178.495832,92.9398168 178.042426,93.2118602 C177.769476,92.8672719 177.534612,92.5770923 177.388616,92.3957301 L175.893284,92.3957301 C175.902352,92.5317518 175.91142,92.6042967 175.919581,92.6768416 C176.24694,92.6224329 176.59969,92.5770923 177.081206,92.5045474 C176.91798,92.713114 176.854504,92.7856589 176.781052,92.8854081 C177.007755,93.2027921 177.243526,93.5383122 177.443931,93.8284918 C177.842021,93.8556962 178.16938,93.8829005 178.5049,93.9010367 C177.815724,94.245625 177.180956,94.5539408 176.481804,94.9075972 C176.336714,94.8531885 176.083714,94.7625074 175.837968,94.6718263 C175.548695,94.9801421 175.303856,95.2431174 175.049042,95.5060926 C175.213175,95.6693187 175.393631,95.8416128 175.620334,96.0592475 L176.327646,96.0592475 C176.119987,96.2859503 175.938624,96.4673126 175.765423,96.6486748 C175.702853,96.6033342 175.630309,96.5398575 175.502448,96.4401082 L175.502448,96.8844457 L176.300442,96.8844457 C176.419234,96.666811 176.53712,96.4582444 176.645937,96.2859503 L177.380454,96.2859503 C177.06307,96.4310401 176.927049,96.4945169 176.781052,96.5579937 L176.781052,97.2925108 C176.58246,97.4466687 176.327646,97.6461672 175.974897,97.9091424 C176.419234,97.9726192 176.708507,98.0179598 177.12564,98.0723685 C176.890776,98.3806843 176.736618,98.5801827 176.609665,98.7343407 C176.700346,98.9157029 176.753848,99.0335884 176.818231,99.1696101 C176.627801,99.2602912 176.481804,99.3328361 176.291374,99.4144491 C176.346689,99.5414027 176.401098,99.65022 176.491779,99.8406504 C176.74478,99.6230157 176.945185,99.4688578 177.190024,99.2602912 L177.190024,100.312192 C177.035866,100.366601 176.908912,100.411941 176.74478,100.475418 C176.79012,100.602372 176.826393,100.720257 176.890776,100.928824 C177.161913,100.720257 177.362318,100.566099 177.570885,100.402873 C177.696931,100.557031 177.805749,100.693053 177.897337,100.80187 C177.797587,100.974164 177.733204,101.073914 177.660659,101.182731 C177.815724,101.23714 177.942677,101.28248 178.087767,101.336889 C178.006154,101.42757 177.933609,101.509183 177.805749,101.645205 C178.051495,101.744954 178.259154,101.826567 178.477696,101.90818 C178.558402,101.935384 178.640015,101.971657 178.866718,102.05327 C178.594674,102.225564 178.413312,102.343449 178.305402,102.406926 C178.222882,103.39535 179.194077,103.703666 179.348235,104.447251 C179.221281,104.492592 179.093421,104.547001 178.967374,104.592341 C179.619371,105.091087 180.408297,104.891589 181.315108,105.018543 C181.01586,105.245245 180.844473,105.363131 180.690315,105.471948 C180.971427,105.852809 181.179993,106.260874 181.615263,106.251806 C181.768514,106.161125 181.860102,106.115784 181.995217,106.034171 C182.040557,106.596394 181.206291,106.786824 181.669671,107.349047 C182.250031,107.058868 182.848526,106.768688 183.328229,106.532917 C183.582136,106.750552 183.827882,106.877506 183.936699,107.077004 C184.080882,107.321843 184.136198,107.630159 184.217811,107.902202 C183.999269,107.983815 183.873223,108.029156 183.746269,108.074496 C183.846018,108.219586 183.936699,108.34654 183.999269,108.419085 C184.208743,108.310267 184.326628,108.246791 184.498016,108.147041 C184.955049,109.532649 186.315265,110.145653 186.952754,111.33539 C186.841216,111.430605 186.706101,111.506777 186.593656,111.599272 C186.409574,111.748896 186.240907,111.915749 186.048663,112.054491 C185.648759,112.342857 185.319587,112.695607 185.030314,113.09279 C184.907894,113.26055 184.974092,113.502669 185.101045,113.642317 C185.186285,113.735719 185.257923,113.827307 185.336816,113.91164 C185.369461,114.09663 185.404827,114.295222 185.441099,114.503788 C184.743761,114.730491 184.027381,114.902785 183.347272,115.192965 C182.639053,115.501281 182.050532,116.018163 181.550879,116.634795 L181.550879,117.070064 C180.245978,118.112897 179.765368,119.754225 178.731603,121.005625 C178.731603,121.07817 178.740671,121.150715 178.731603,121.214191 C178.603743,122.257024 178.785105,123.281721 178.994578,124.279213 C179.121532,124.913981 179.121532,125.530613 179.165966,126.156313 C178.748832,126.537173 179.148736,127.117533 178.922033,127.462121 C178.586513,127.951799 178.794173,128.432409 178.740671,128.913019 C178.695331,129.375493 178.71256,129.856103 178.731603,130.327644 C178.767875,131.107502 178.577445,131.823883 178.305402,132.540264 C178.096835,133.111555 177.969882,133.71005 177.805749,134.281341 C177.715068,134.372929 177.62892,134.459076 177.538239,134.548851 C177.291587,134.739281 177.04312,134.926991 176.81279,135.132837 C176.530772,135.384931 176.487245,135.7803 176.51717,136.17295 C176.032026,136.549276 175.601291,137.069786 175.165114,137.485106 C174.920275,137.719063 174.986473,138.003802 175.049949,138.299422 C175.083501,138.455394 175.107078,138.596856 175.159673,138.747387 C175.194132,138.844416 175.295695,139.193538 175.276652,138.910613 C175.286627,139.056609 175.351011,139.165427 175.441692,139.238878 C175.529652,139.593442 175.583154,139.95798 175.811671,140.284432 C175.886936,140.40141 175.972176,140.550128 176.040187,140.709726 C176.003008,140.874766 175.993033,141.038899 176.045628,141.220261 C176.070112,141.304594 175.80895,141.549433 175.691065,141.761627 C175.549602,142.015534 175.428996,142.937762 175.65842,143.324063 C175.65842,143.329504 175.657513,143.334945 175.656606,143.340386 C175.630309,143.519934 175.611265,143.723967 175.55867,143.921652 C175.412674,144.040444 175.250355,144.133846 175.09801,144.28619 C174.789694,144.593599 174.756142,144.972646 174.816899,145.364388 C174.807831,145.473206 174.807831,145.584744 174.814178,145.698095 C174.820526,145.951095 174.815992,146.1914 174.814178,146.428985 C174.207522,147.119068 173.499302,147.586076 174.503142,148.455708 C174.818712,148.729565 175.086222,149.277279 175.510609,149.393351 C176.104571,149.557484 176.809163,149.115867 177.480203,149.251888 C177.79124,149.315365 178.10681,149.254609 178.346208,149.036067 C178.731603,148.683318 179.366371,148.933597 179.763554,148.611679 C180.206078,148.251675 180.089099,147.440079 180.535251,147.194333 C180.979588,146.950401 180.776462,146.2712 181.257979,146.04631 C181.448409,145.95835 181.506445,145.800565 181.484682,145.646407 C181.703223,145.514012 181.982521,145.481367 182.172045,145.281869 C182.488522,144.947255 182.386959,144.558233 182.473106,144.146541 C182.493963,144.043164 182.475827,143.956111 182.443181,143.877218 C182.45497,143.481848 182.386052,143.071063 182.277235,142.642141 C183.45609,141.59024 184.23504,140.311636 184.408241,138.66124 C184.461743,138.153425 184.724718,137.663747 184.951421,136.992707 C185.079282,137.672815 185.242508,138.18063 185.250669,138.679376 C185.269712,141.581172 185.260644,144.482968 185.260644,147.384764 C185.260644,147.59333 185.269712,147.838169 185.169056,148.001395 C185.015805,148.282507 185.052077,148.463869 185.188099,148.763117 C185.56896,149.61552 185.659641,150.576739 185.395759,151.447278 C185.197167,152.118319 185.27878,152.644269 185.541755,153.224628 C185.605232,153.378786 185.740347,153.605489 185.677777,153.69617 C185.323214,154.258393 185.541755,154.875025 185.477372,155.464452 C185.432938,155.872517 185.532687,156.271514 185.296916,156.697715 C185.124622,157.006031 185.132784,157.54105 185.286941,157.858434 C185.532687,158.348112 185.477372,158.828722 185.46921,159.309332 C185.432938,160.406573 185.595257,161.503815 185.27878,162.601057 C185.033941,163.435323 185.559892,164.269589 185.460142,165.112924 C185.359486,166.046939 185.750322,166.926546 185.695913,167.851494 C186.058638,168.323035 185.750322,168.921531 185.930777,169.384911 C186.456728,170.689813 186.031433,171.968417 185.831935,173.219816 C185.667802,174.299828 185.250669,175.332686 185.260644,176.457132 C185.260644,176.656631 185.206235,176.847061 185.124622,177.04656 C184.770966,177.989643 184.534288,178.950863 184.589604,179.993696 C184.643105,181.181619 184.743761,182.342337 184.997669,183.522099 C185.214397,184.518684 185.023966,185.615926 185.052077,186.667827 C185.070214,186.976143 184.833536,187.202846 184.852579,187.438616 C184.879783,187.829452 184.580535,188.092427 184.606833,188.445177 C184.671217,189.19783 184.335696,189.832598 184.063653,190.503638 C183.465158,191.927332 183.564907,193.08805 184.734693,194.19436 C185.141852,194.584289 185.650573,194.874469 186.013297,195.282534 C186.675269,196.035187 187.500468,196.579274 188.315691,197.105224 C189.060183,197.577673 189.966994,197.857878 190.792192,197.622107 C191.454165,197.423515 192.179614,197.585834 192.7237,197.141497 C193.004812,196.914794 193.276855,196.688091 193.548899,196.470456 L193.548899,194.929784 C194.827503,193.9867 194.827503,193.9867 194.854707,192.534896 C195.597385,191.519267 195.861267,189.796326 195.924744,188.952991 C196.006357,187.955499 195.543883,186.995186 195.698041,185.987718 C195.715271,185.906105 195.652701,185.797288 195.606453,185.707514 C195.370682,185.235065 195.435066,184.718183 195.543883,184.255709 C195.707109,183.548396 195.888472,182.850152 195.915676,182.133771 C195.961017,180.93678 195.941974,179.740696 195.915676,178.542798 C195.89754,178.025916 195.787816,177.50994 195.698041,177.001219 C195.678998,176.874265 195.52484,176.774516 195.498543,176.647563 C195.298138,175.894909 195.181159,175.134095 194.854707,174.416807 C194.682413,174.054083 194.609868,173.609745 194.628004,173.202587 C194.709617,171.678237 194.383165,170.12759 194.836571,168.613215 C194.682413,168.069128 195.045137,167.597586 195.063273,167.071636 C195.090478,166.554754 195.116775,166.010667 195.289976,165.539125 C195.480407,165.058515 195.33441,164.514428 195.52484,164.115431 C195.770586,163.616685 195.642726,163.145143 195.707109,162.664533 C195.779654,162.183923 195.89754,161.712381 195.915676,161.231772 C195.933812,160.42471 196.223992,159.681124 196.37815,158.910335 C196.467924,158.465997 196.739967,158.057932 196.940373,157.613595 C197.021986,157.631731 197.11176,157.658935 197.229645,157.68614 C197.229645,157.813093 197.23962,157.92191 197.229645,158.02166 C197.139871,159.409081 197.30219,160.787434 197.058258,162.183923 C196.895032,163.127007 196.812512,164.178908 197.229645,165.140128 C197.184305,166.464072 197.646779,167.715472 197.847184,169.003144 C197.928797,169.539069 198.273385,169.91993 198.336862,170.445881 C198.409407,171.025333 198.935357,171.369921 199.306243,171.787054 C200.005395,172.57598 200.885002,172.884296 201.908792,172.857092 C202.272423,172.848024 202.634241,172.857092 202.843714,172.857092 C203.469414,173.274225 203.985389,173.609745 204.484135,173.936197 C204.92938,173.945265 205.337445,173.990606 205.726467,173.736699 C206.579776,173.156339 207.086684,172.349277 207.214544,171.369921 C207.287089,170.807698 207.414043,170.291723 207.595405,169.773933 C207.903721,168.858961 208.239241,167.942175 208.121355,166.944682 C208.06604,166.436868 208.139492,165.919986 208.103219,165.421239 C208.06604,164.904357 207.912789,164.387475 207.903721,163.87966 C207.894653,163.127007 207.621702,162.483171 207.240842,161.803063 C207.086684,159.381877 207.649813,156.924418 207.441247,154.621118 C207.876516,153.632693 208.456875,152.843768 207.876516,151.900684 C208.11138,151.43821 208.11138,151.43821 208.121355,150.830647 C208.348058,150.386309 208.556625,149.99638 208.746148,149.633656 C208.855872,148.772185 208.564786,147.901646 208.936579,147.167129 C208.874009,146.913222 208.765191,146.722792 208.774259,146.532361 C208.855872,145.326302 208.701715,144.129311 208.936579,142.914184 C209.15512,141.789738 208.981919,140.601816 208.981919,139.441097 C208.981919,139.404825 209.000962,139.359484 208.981919,139.33228 C208.564786,138.70658 208.972851,137.953927 208.728919,137.3645 C208.446901,136.684391 208.592897,136.031487 208.564786,135.378583 C208.547557,135.00679 208.728919,134.644066 208.755216,134.272273 C208.791489,133.837004 208.791489,133.392666 208.755216,132.966465 C208.701715,132.168471 208.864034,131.40675 209.073507,130.63596 C209.592203,131.068509 209.94586,131.630732 210.421029,132.03789 C210.42647,132.03517 210.43191,132.034263 210.437351,132.03245 C210.509896,132.124037 210.61962,132.189328 210.770151,132.194769 C210.868993,132.198396 210.969649,132.20293 211.068492,132.208371 C211.110205,132.326256 211.160987,132.440515 211.18275,132.570189 C211.192725,132.627318 211.219023,132.679006 211.253481,132.72344 C211.284313,132.834071 211.355044,132.928379 211.45298,132.990949 C211.470209,133.021781 211.485625,133.054426 211.506482,133.080723 C211.522804,133.067121 211.540941,133.057146 211.556356,133.044451 C211.658826,133.076189 211.779432,133.073469 211.905479,133.010899 C212.231024,132.852207 212.561103,132.72344 212.891182,132.593766 C212.926548,132.878504 212.908412,133.171404 213.146903,133.408989 C213.182269,133.445261 213.238491,133.472466 213.297434,133.497856 C213.771696,134.038316 214.488984,134.284969 214.948737,134.589657 C215.765774,134.970518 216.291725,134.67127 216.834905,134.544317 C217.470579,134.399227 217.833304,133.818868 218.177892,133.51962 C218.66757,133.592165 219.012158,133.619369 219.328635,133.700982 C220.526533,134.018366 220.65258,134.00023 221.623775,133.338258 C222.303883,132.875784 222.95588,132.36797 223.672261,131.968973 C224.190051,131.678793 224.588141,131.234456 225.10593,130.953344 C225.622812,130.672233 226.230376,130.699437 226.792599,130.554347 C227.862636,130.264168 228.931767,129.992124 229.975506,129.574991 C230.846045,129.230403 231.580562,128.577499 232.549943,128.450545 C232.69594,128.423341 232.804757,128.205706 232.958915,128.105957 C233.548343,127.70696 234.155906,127.326099 234.754402,126.93617 C235.651238,126.346743 236.568024,125.78452 237.338814,125.022799 C237.792219,124.569393 238.254693,124.106919 238.626486,123.735127 C239.95043,123.345198 241.065808,122.792043 242.044257,122.130071 C242.27096,122.22982 242.426025,122.302365 242.589251,122.365842 C243.214044,122.610681 243.966697,122.746702 244.221511,123.463083 C244.475418,124.179464 244.883483,124.859573 244.520759,125.721043 C244.284988,126.274198 244.27592,126.945238 244.248715,127.56187 C244.212443,128.650044 244.239647,129.738217 244.239647,130.826391 C244.239647,131.034957 244.203375,131.307001 244.311285,131.443022 C244.602372,131.814815 244.547963,132.286357 244.420103,132.567468 C244.17617,133.138759 244.27592,133.682846 244.239647,134.236001 C244.229672,134.381091 244.294056,134.580589 244.221511,134.662202 C243.804378,135.10654 244.120855,135.63249 244.022012,136.104032 C243.922263,136.575574 243.822514,137.047116 243.713697,137.573066 C243.260291,138.235038 243.051724,139.087441 242.970111,139.903571 C242.843158,141.218447 242.833183,142.569596 243.359133,143.857268 C243.496062,144.201856 243.595811,144.600853 243.568607,144.95451 C243.513291,145.761572 243.812539,146.595838 243.378176,147.375696 C243.305632,147.520786 243.286589,147.810965 243.387245,147.901646 C243.722765,148.246235 243.549564,148.645231 243.585836,149.026092 C243.604879,149.243727 243.513291,149.488566 243.595811,149.669928 C243.98574,150.567671 244.075514,151.565164 244.57426,152.426634 C244.738393,152.707746 244.873508,153.061402 244.873508,153.378786 C244.892551,154.394415 245.128322,155.373771 245.336889,156.353127 C245.545455,157.350619 245.754022,158.348112 246.062338,159.3184 C246.415994,160.460982 246.542948,161.648905 246.83222,162.800555 C246.996353,163.435323 246.841289,164.187976 247.114239,164.750199 C247.359078,165.248945 247.031719,165.838373 247.504168,166.228301 C247.439784,166.835865 247.812483,167.334611 247.929462,167.896834 C248.237778,169.393073 248.773703,170.816766 249.199905,172.267664 C249.443837,173.074726 249.698651,173.882695 249.94349,174.697918 C249.571697,174.960894 249.236177,175.196665 248.917886,175.423367 C248.119892,174.943664 247.521397,175.613798 246.969149,175.73259 C246.824059,175.959293 246.769651,176.08534 246.678969,176.176021 C246.2437,176.647563 246.089542,177.255126 245.998861,177.844554 C245.917248,178.416751 246.007022,179.005272 245.97075,179.586538 C245.934477,180.111582 246.043295,180.628464 245.871907,181.173458 C245.698706,181.698501 245.799362,182.296997 245.76309,182.868288 C245.698706,183.67535 245.772158,184.537727 245.500115,185.262269 C245.209028,186.052102 245.581728,186.89453 245.110186,187.602749 C245.136483,188.662812 244.956028,189.751892 245.336889,190.776589 C245.645205,191.591812 245.799362,192.498623 246.532973,193.106187 C246.751514,193.296617 246.941945,193.514252 247.150511,193.723725 C247.322805,193.750023 247.504168,193.750023 247.658326,193.804431 C248.573298,194.121815 249.889081,193.759998 250.324351,192.970165 C250.714279,192.235648 251.077004,191.464858 251.321843,190.666864 C251.539478,189.942322 251.584818,189.170626 251.72084,188.33636 C251.775249,188.245678 251.874998,188.064316 252.074496,187.711567 C252.074496,188.590267 251.920338,189.288511 252.110769,189.869777 C252.463518,191.003291 252.455357,192.181239 252.726494,193.314753 C252.82715,193.740955 252.899695,194.185292 253.034809,194.602425 C253.597032,196.234686 253.888119,197.913193 254.033209,199.62616 C254.042277,199.771249 253.977893,199.96168 254.042277,200.052361 C254.358754,200.505766 254.277141,201.014488 254.232707,201.494191 C254.196435,202.002005 254.431299,202.447249 254.45941,202.926952 C254.495682,203.580763 254.431299,204.232761 254.477546,204.885665 C254.531955,205.638318 254.749589,206.372835 254.840271,207.11642 C254.966317,208.078547 255.583856,208.89377 255.556651,209.873127 C256.018218,210.43535 255.945673,211.252387 256.490667,211.778337 C257.324933,212.576331 257.188005,213.519415 256.898732,214.426226 C257.05289,214.960338 257.188005,215.440948 257.315865,215.894353 C258.212702,216.402168 259.111352,216.828369 259.908439,217.381524 C261.422813,218.434332 263.101321,218.941239 264.905875,218.977511 C265.812687,219.004716 266.728566,219.050056 267.652607,218.814285 C268.559418,218.579421 269.547842,218.687332 270.490926,218.543149 C271.316124,218.424357 272.222935,218.369948 272.71352,217.59009 C272.649137,216.792096 272.631907,216.057579 272.514022,215.333037 C272.458706,215.014746 272.222935,214.706431 272.005301,214.462498 C271.806709,214.235795 271.498393,214.107935 271.262622,213.908437 C270.990579,213.673573 270.790174,213.300873 270.482765,213.164851 C269.911473,212.92908 269.620387,212.493811 269.34925,212.00504 C269.331114,211.958792 269.331114,211.904384 269.321139,211.813703 L270.065631,211.813703 C270.03752,211.759294 270.001248,211.713953 269.964975,211.66952 C270.256062,211.450978 270.546241,211.242412 270.835514,211.025684 C270.681356,210.580439 270.800148,210.191417 270.627854,209.746173 C270.274198,208.812157 269.919635,207.869074 269.547842,206.92599 C268.976551,205.493228 268.424303,204.051398 267.73422,202.673952 C267.19104,201.59394 266.737634,200.460426 266.021253,199.46384 C265.531575,198.783732 265.323009,197.921354 265.158876,197.105224 C265.032829,196.480431 265.158876,195.808484 265.122603,195.156487 C265.086331,194.52988 264.914943,193.904181 264.932173,193.287549 C264.960284,192.190307 264.651968,191.156543 264.406222,190.122778 C264.153222,189.0074 263.798659,187.928295 263.82677,186.776644 C263.82677,186.522737 263.926519,186.178149 263.798659,186.033059 C263.454977,185.634969 263.68168,185.198793 263.608228,184.790728 C263.527522,184.355458 263.454977,183.911121 263.400569,183.475851 C263.390594,183.421443 263.463139,183.357966 263.527522,183.258217 C263.807727,183.348898 264.106975,183.522099 264.388993,183.503056 C265.232327,183.466783 266.065687,183.522099 266.918996,183.33983 C269.004662,182.922696 270.582514,181.771046 271.797641,180.175058 C273.112517,178.461185 273.683808,176.376426 274.045626,174.263556 C274.146282,173.718562 274.400189,173.192612 274.272329,172.612253 C274.744777,171.895872 274.44553,171.053444 274.663164,170.27268 C274.907097,169.384911 274.680394,168.39558 274.889867,167.43436 C275.061254,166.672639 274.98871,165.838373 274.907097,165.049447 C274.834552,164.251453 275.170072,163.516936 275.133799,162.746146 C275.080298,161.57636 275.360502,160.388437 274.92614,159.245855 C275.089366,157.813093 274.644121,156.407536 274.699437,154.983842 C274.708505,154.648322 274.63596,154.32187 274.590619,153.959145 C274.962412,153.659898 275.396775,153.306241 275.769474,153.016062 C275.769474,152.553588 275.869223,152.154591 275.751338,151.837207 C275.524635,151.211507 275.470226,150.576739 275.32423,149.941972 C275.170072,149.234659 275.152842,148.55455 275.142867,147.847238 C275.142867,147.303151 275.152842,146.759064 275.142867,146.214977 C275.133799,146.042683 275.133799,145.861321 275.080298,145.698095 C274.699437,144.582717 274.30044,143.485476 273.92774,142.370098 C273.620331,141.417946 273.185062,140.429522 273.438062,139.441097 C273.683808,138.470809 273.555948,137.527726 273.611263,136.584642 C273.647536,136.004283 273.656604,135.414855 273.611263,134.843564 C273.538718,133.918617 273.801694,133.048078 273.919579,132.159403 L275.470226,132.159403 C275.70509,131.996177 275.968066,131.878292 276.150335,131.678793 C276.802332,130.989617 277.528688,130.391121 278.362954,129.910511 C279.514605,129.257607 280.702527,129.157858 281.926722,129.502446 C282.388289,129.375493 282.833534,129.248539 283.096509,129.175994 C283.975209,129.275743 284.601816,129.638468 285.335426,129.837966 C286.188735,130.690369 287.095546,131.579044 287.983315,132.494923 C288.318835,132.839512 288.600853,133.238508 288.853853,133.555892 C288.853853,134.236001 288.881965,134.81636 288.845692,135.396719 C288.77224,136.59371 288.918237,137.790701 288.682466,139.014896 C288.472993,140.066797 288.256265,141.173107 288.419491,142.288485 C288.464831,142.55146 288.545538,142.814435 288.618989,143.104615 C288.419491,143.485476 288.201856,143.902609 287.983315,144.319742 C287.983315,144.718739 287.820995,145.244689 288.019587,145.489528 C288.383218,145.924798 287.929813,146.523293 288.419491,146.858813 C288.419491,147.366628 288.43672,147.874442 288.410423,148.382256 C288.383218,149.007956 288.43672,149.624588 288.238129,150.259355 C288.05586,150.894123 288.201856,151.62864 288.201856,152.345021 C288.400448,152.471975 288.609921,152.58986 288.853853,152.744018 C288.853853,153.197424 288.827556,153.705238 288.863828,154.203984 C288.900101,154.720867 289.017986,155.228681 289.072395,155.745564 C289.163076,156.77026 288.936373,157.794957 289.262825,158.819654 C289.43512,159.36374 289.317234,159.98944 289.471392,160.578867 C289.62555,161.14109 289.62555,161.748654 289.68812,162.338081 C289.825048,163.489732 289.743435,164.668586 289.897593,165.838373 C290.02364,166.71798 290.278454,167.506905 290.686519,168.241422 C291.321287,169.402141 292.472937,170.245475 292.780346,171.623828 C292.816619,171.777986 292.998888,171.895872 293.134909,172.022825 C293.397885,172.259503 293.669928,172.494367 293.869426,172.666661 C293.833154,173.437451 293.824086,174.054083 293.678996,174.68885 C293.51577,175.441504 293.533906,176.293906 293.669928,177.064696 C293.887563,178.279823 294.195879,179.513993 295.610504,180.039944 C296.744018,180.0209 297.460399,179.612835 297.98635,178.624411 C298.049826,178.506526 298.067963,178.361436 298.148669,178.261687 C298.484189,177.844554 298.65739,177.373012 298.648322,176.837993 C298.638347,176.402724 298.648322,175.976522 298.648322,175.631934 C298.901322,175.441504 299.083591,175.279184 299.282183,175.160392 C300.062947,174.697918 300.398467,174.01781 300.389399,173.130042 C300.379424,171.425237 300.379424,169.719525 300.398467,168.01472 C300.398467,167.506905 300.362195,167.035363 299.962291,166.663571 C299.908789,166.192029 300.090152,165.666079 299.735588,165.239877 C299.518861,164.976902 299.518861,164.668586 299.518861,164.351202 C299.518861,162.465035 299.545158,160.578867 299.508886,158.6927 C299.491656,157.73148 299.626771,156.806533 299.827176,155.872517 C300.334991,156.77026 300.724919,157.704276 301.358781,158.520406 C301.893799,159.209582 302.175817,160.071053 302.338137,160.932524 C302.41975,161.376861 302.375316,161.812131 302.538542,162.265536 C302.682725,162.673601 302.701768,163.154211 302.747109,163.580413 C302.828722,164.487224 303.336536,165.303354 303.227719,166.228301 C303.635784,166.57289 303.263991,167.089772 303.454421,167.43436 C303.698354,167.879605 303.672056,168.323035 303.644852,168.767373 C303.581375,170.045977 303.762737,171.316419 303.471651,172.603185 C303.282127,173.437451 303.490694,174.344262 303.427217,175.20664 C303.309332,176.711039 303.672056,178.190049 303.65392,179.68538 C303.65392,179.794198 303.662081,179.912083 303.717397,179.984628 C304.151759,180.647507 304.089189,181.390185 304.089189,182.124703 C304.089189,183.104966 304.107325,184.074347 304.079214,185.053703 C304.071053,185.461768 304.216143,185.897944 303.888784,186.286966 C303.789941,186.404852 303.79901,186.785712 303.907827,186.903598 C304.252415,187.248186 303.980372,187.665319 304.125462,188.018976 C304.650505,188.962966 304.742093,189.306648 304.742093,190.412957 C305.067639,190.694976 305.413134,190.984248 305.757722,191.274428 C305.666134,191.519267 305.549155,191.82849 305.475704,192.036149 C305.557317,192.426078 305.6217,192.75253 305.676109,193.006437 C306.329013,193.415409 306.945645,193.777227 307.526004,194.19436 C308.115431,194.611493 308.694883,195.064899 309.248945,195.545509 C310.518481,196.642751 312.041924,197.07802 313.665116,197.22311 C314.499382,197.286587 315.333649,197.233085 316.167008,197.233085 L316.712002,196.688091 L316.712002,195.38319 C316.004689,194.167156 314.65354,193.459843 314.109453,192.117762 C314.327088,191.982648 314.553791,191.836651 314.789562,191.691561 C314.661701,191.238156 314.924677,190.776589 314.571927,190.412957 C314.888404,190.014867 314.707949,189.542419 314.753289,189.108056 C314.815859,188.553994 314.625429,187.982703 314.952788,187.438616 C315.061605,187.239118 314.934652,186.885462 314.898379,186.614325 C314.871175,186.41392 314.734246,186.205353 314.762358,186.023991 C314.871175,185.398291 314.599131,184.845136 314.490314,184.274752 C314.308952,183.24008 314.236407,182.977105 314.535655,182.052158 C314.734246,181.426458 314.744221,180.773554 314.952788,180.157829 C315.025333,179.931126 315.052537,179.621904 314.843971,179.340792 C314.671676,179.09686 314.689813,178.769501 314.898379,178.453024 C315.070673,178.190049 315.161354,177.817349 315.179491,177.490897 C315.206695,176.656631 315.27924,175.804228 314.852132,175.016209 C314.780494,174.879281 314.762358,174.68885 314.753289,174.516556 C314.689813,173.455587 314.770519,172.403686 314.571927,171.333649 C314.390565,170.31802 314.562859,169.239822 314.526587,168.187014 C314.490314,167.162317 314.353386,166.146688 314.327088,165.121992 C314.299884,164.02475 313.945321,162.945645 314.100385,161.839335 C314.109453,161.76679 314.109453,161.667041 314.073181,161.630768 C313.701388,161.268044 313.964364,160.814638 313.882751,160.406573 C313.810206,159.998508 313.710456,159.599511 313.673277,159.191446 C313.583503,158.311839 313.520026,157.432232 313.446574,156.561694 C313.06662,156.189901 313.320528,155.682087 313.157302,155.264954 C312.548831,153.605489 312.069128,151.900684 311.216726,150.159606 C311.425292,149.960108 311.651995,149.733405 311.924038,149.461362 C311.91497,149.434157 311.91497,149.270931 311.842425,149.171182 C311.369977,148.55455 311.216726,147.810965 311.080704,147.094584 C310.952843,146.414476 310.726141,145.96107 310.101348,145.634618 C309.530057,145.33537 309.094787,144.4739 309.348694,144.047698 C309.556354,143.694042 309.51192,143.36759 309.520082,143.03207 C309.539125,142.40637 309.430307,141.78067 309.348694,141.154971 C309.239877,140.302568 309.230809,139.404825 309.51192,138.525218 C309.702351,137.908586 309.457512,137.228478 309.702351,136.539301 C309.919985,135.949874 309.819329,135.242561 309.929054,134.571521 C310.0551,133.728187 310.373391,133.011806 310.799592,132.313561 C311.171385,131.705997 311.487862,131.089366 311.72454,130.409257 C312.023788,129.520582 312.404648,128.659112 312.803645,127.815777 C313.02128,127.353303 313.320528,126.945238 313.64698,126.428356 C313.981593,126.673195 314.372429,126.899898 314.680745,127.208214 C315.08881,127.607211 315.596624,127.951799 316.094463,127.988071 C317.110999,128.060616 317.999674,128.432409 318.924621,128.804201 C319.967454,129.221335 321.045653,129.602195 322.207278,129.547787 C322.352368,129.538719 322.542798,129.48431 322.632572,129.556855 C323.358928,130.128146 324.048105,129.52965 324.70917,129.438969 C325.725705,129.302948 327.176603,128.024344 327.820439,127.144737 C328.273845,126.537173 328.627501,125.893337 328.999294,125.240433 C329.380155,124.560325 329.706607,123.86208 329.969582,123.136631 C330.304195,122.220752 330.504601,121.259532 330.849189,120.343653 C331.129394,119.590999 331.437709,118.847414 331.619979,118.04942 C331.792273,117.269562 332.055248,116.498773 332.590267,115.836801 C333.143421,115.156692 333.578691,114.385903 333.895168,113.560704 C333.93144,113.460955 333.923279,113.34307 333.977688,113.261457 C334.431093,112.653893 334.910797,112.055398 335.356041,111.438766 C335.827583,110.803998 335.736902,109.924391 336.299125,109.325896 C336.190307,108.82715 336.70719,108.645788 336.852279,108.246791 C336.987394,107.874998 337.314753,107.557614 337.594958,107.258366 C338.012091,106.804961 338.465497,106.378759 338.937945,105.907218 C338.901673,105.680515 338.8654,105.41754 338.82006,105.027611 L338.82006,105.027611 Z" id="Fill-43" fill="#CFCBC8"></path>
    </g>
</svg>
