<?xml version="1.0" encoding="UTF-8"?>
<svg xmlns="http://www.w3.org/2000/svg" xmlns:xlink="http://www.w3.org/1999/xlink" width="48px" height="48px" viewBox="0 0 48 48" version="1.1">
<g id="surface180164">
<path style=" stroke:none;fill-rule:nonzero;fill:rgb(20%,29.019608%,36.862745%);fill-opacity:1;" d="M 45 8 L 3 8 L 3 40 L 45 40 Z M 22 34 L 26 34 L 26 38 L 22 38 Z M 30 34 L 34 34 L 34 38 L 30 38 Z M 38 34 L 42 34 L 42 38 L 38 38 Z M 14 34 L 18 34 L 18 38 L 14 38 Z M 6 34 L 10 34 L 10 38 L 6 38 Z M 22 10 L 26 10 L 26 14 L 22 14 Z M 30 10 L 34 10 L 34 14 L 30 14 Z M 38 10 L 42 10 L 42 14 L 38 14 Z M 14 10 L 18 10 L 18 14 L 14 14 Z M 6 10 L 10 10 L 10 14 L 6 14 Z M 6 10 "/>
<path style=" stroke:none;fill-rule:nonzero;fill:rgb(99.607843%,43.921569%,20.392157%);fill-opacity:1;" d="M 21 18 L 21 30 L 31 24.519531 Z M 21 18 "/>
</g>
</svg>
