<?xml version="1.0" encoding="UTF-8"?>
<svg xmlns="http://www.w3.org/2000/svg" xmlns:xlink="http://www.w3.org/1999/xlink" width="48px" height="48px" viewBox="0 0 48 48" version="1.1">
<g id="surface178902">
<path style=" stroke:none;fill-rule:nonzero;fill:rgb(27.058824%,35.294118%,39.215686%);fill-opacity:1;" d="M 42 19 L 6 19 L 6 9 C 6 7.34375 7.34375 6 9 6 L 39 6 C 40.65625 6 42 7.34375 42 9 Z M 42 19 "/>
<path style=" stroke:none;fill-rule:nonzero;fill:rgb(87.058824%,87.058824%,87.058824%);fill-opacity:1;" d="M 6 16 L 42 16 L 42 39 C 42 40.65625 40.65625 42 39 42 L 9 42 C 7.34375 42 6 40.65625 6 39 Z M 6 16 "/>
<path style=" stroke:none;fill-rule:nonzero;fill:rgb(54.509804%,76.470588%,29.019608%);fill-opacity:1;" d="M 11 9 C 9.894531 9 9 9.894531 9 11 C 9 12.105469 9.894531 13 11 13 C 12.105469 13 13 12.105469 13 11 C 13 9.894531 12.105469 9 11 9 Z M 11 9 "/>
<path style=" stroke:none;fill-rule:nonzero;fill:rgb(99.607843%,43.921569%,20.392157%);fill-opacity:1;" d="M 17 9 C 15.894531 9 15 9.894531 15 11 C 15 12.105469 15.894531 13 17 13 C 18.105469 13 19 12.105469 19 11 C 19 9.894531 18.105469 9 17 9 Z M 17 9 "/>
<path style=" stroke:none;fill-rule:nonzero;fill:rgb(98.039216%,98.039216%,98.039216%);fill-opacity:1;" d="M 39 12 C 39 12.554688 38.554688 13 38 13 L 23 13 C 22.445312 13 22 12.554688 22 12 L 22 10 C 22 9.445312 22.445312 9 23 9 L 38 9 C 38.554688 9 39 9.445312 39 10 Z M 39 12 "/>
<path style=" stroke:none;fill-rule:nonzero;fill:rgb(74.509804%,73.72549%,73.72549%);fill-opacity:1;" d="M 9 19 L 26 19 L 26 30 L 9 30 Z M 9 33 L 26 33 L 26 39 L 9 39 Z M 29 19 L 39 19 L 39 39 L 29 39 Z M 29 19 "/>
</g>
</svg>
