<?xml version="1.0" encoding="UTF-8"?>
<svg xmlns="http://www.w3.org/2000/svg" xmlns:xlink="http://www.w3.org/1999/xlink" width="48px" height="48px" viewBox="0 0 48 48" version="1.1">
<g id="surface180224">
<path style=" stroke:none;fill-rule:nonzero;fill:rgb(0%,58.823529%,53.333333%);fill-opacity:1;" d="M 4 10 L 44 10 L 44 35 L 4 35 Z M 4 10 "/>
<path style=" stroke:none;fill-rule:nonzero;fill:rgb(0%,47.45098%,41.960784%);fill-opacity:1;" d="M 41 14 L 41 35 L 7 35 L 7 14 M 44 12 L 4 12 L 4 35 L 44 35 Z M 44 12 "/>
<path style=" stroke:none;fill-rule:nonzero;fill:rgb(86.666667%,48.627451%,7.058824%);fill-opacity:1;" d="M 42 12 L 42 35 L 6 35 L 6 12 L 42 12 M 44 10 L 4 10 L 4 35 L 44 35 Z M 44 10 "/>
<path style=" stroke:none;fill-rule:nonzero;fill:rgb(46.666667%,23.921569%,1.568627%);fill-opacity:1;" d="M 46 38 L 46 36 C 46 34.898438 45.101562 34 44 34 L 4 34 C 2.898438 34 2 34.898438 2 36 L 2 38 Z M 46 38 "/>
<path style=" stroke:none;fill-rule:nonzero;fill:rgb(100%,100%,100%);fill-opacity:1;" d="M 28.199219 29.398438 L 19 22.199219 L 12.601562 26.800781 L 11.398438 25.199219 L 19 19.800781 L 27.800781 26.601562 L 36.199219 16.398438 L 37.800781 17.601562 Z M 19 34 L 12 34 L 12 32 L 19 32 L 20 33 Z M 19 34 "/>
</g>
</svg>
