<?xml version="1.0" encoding="UTF-8"?>
<svg xmlns="http://www.w3.org/2000/svg" xmlns:xlink="http://www.w3.org/1999/xlink" width="480px" height="480px" viewBox="0 0 480 480" version="1.1">
<g id="surface73071">
<path style=" stroke:none;fill-rule:nonzero;fill:rgb(90.980392%,58.039216%,9.803922%);fill-opacity:1;" d="M 30 220 L 450 220 L 450 420 L 30 420 Z M 30 220 "/>
<path style=" stroke:none;fill-rule:nonzero;fill:rgb(99.607843%,43.921569%,20.392157%);fill-opacity:1;" d="M 310 30 L 310 70 L 288 70 C 264 70 276 60 240 60 L 240 20 C 276 20 264 30 288 30 Z M 310 30 "/>
<path style=" stroke:none;fill-rule:nonzero;fill:rgb(50.196078%,35.294118%,14.901961%);fill-opacity:1;" d="M 60 260 L 90 260 L 90 310 L 60 310 Z M 110 260 L 140 260 L 140 310 L 110 310 Z M 110 340 L 140 340 L 140 390 L 110 390 Z M 60 340 L 90 340 L 90 390 L 60 390 Z M 340 260 L 370 260 L 370 310 L 340 310 Z M 390 260 L 420 260 L 420 310 L 390 310 Z M 390 340 L 420 340 L 420 390 L 390 390 Z M 340 340 L 370 340 L 370 390 L 340 390 Z M 340 340 "/>
<path style=" stroke:none;fill-rule:nonzero;fill:rgb(0%,61.960784%,78.823529%);fill-opacity:1;" d="M 30 170 L 450 170 L 450 230 L 30 230 Z M 30 170 "/>
<path style=" stroke:none;fill-rule:nonzero;fill:rgb(100%,71.764706%,30.196078%);fill-opacity:1;" d="M 240 95 L 170 165 L 170 420 L 310 420 L 310 165 Z M 240 95 "/>
<path style=" stroke:none;fill-rule:nonzero;fill:rgb(98.039216%,98.039216%,98.039216%);fill-opacity:1;" d="M 240 190 C 212.386719 190 190 212.386719 190 240 C 190 267.613281 212.386719 290 240 290 C 267.613281 290 290 267.613281 290 240 C 290 212.386719 267.613281 190 240 190 Z M 240 190 "/>
<path style=" stroke:none;fill-rule:nonzero;fill:rgb(47.45098%,33.333333%,28.235294%);fill-opacity:1;" d="M 260 250 L 240 250 C 234 250 230 246 230 240 L 230 220 C 230 214 234 210 240 210 C 246 210 250 214 250 220 L 250 230 L 260 230 C 266 230 270 234 270 240 C 270 246 266 250 260 250 Z M 260 250 "/>
<path style=" stroke:none;fill-rule:nonzero;fill:rgb(16.470588%,73.333333%,83.529412%);fill-opacity:1;" d="M 240 80 L 150 170 L 150 199 L 240 109 L 330 199 L 330 170 Z M 240 80 "/>
<path style=" stroke:none;fill-rule:nonzero;fill:rgb(50.196078%,35.294118%,14.901961%);fill-opacity:1;" d="M 240 320 C 223 320 210 333 210 350 C 210 367 210 420 210 420 L 270 420 C 270 420 270 367 270 350 C 270 333 257 320 240 320 Z M 240 320 "/>
</g>
</svg>
