<?xml version="1.0" encoding="UTF-8"?>
<svg width="39px" height="52px" viewBox="0 0 39 52" version="1.1" xmlns="http://www.w3.org/2000/svg" xmlns:xlink="http://www.w3.org/1999/xlink">
    <title>star copy 2</title>
    <g id="Page-1" stroke="none" stroke-width="1" fill="none" fill-rule="evenodd">
        <g id="Assessment-Landing-page" transform="translate(-261.000000, -206.000000)" fill-rule="nonzero">
            <g id="star-copy-2" transform="translate(261.000000, 206.000000)">
                <path d="M19.3158954,-2.84217094e-15 L19.3158954,51.2 C19.831295,51.2 20.286429,50.9467815 20.5671533,50.5589183 L34.9799018,30.6185272 C37.2769996,27.4407276 38.6317907,23.5367533 38.6317907,19.3158954 C38.6317907,8.64806117 29.9837296,-2.84217094e-15 19.3158954,-2.84217094e-15 L19.3158954,-2.84217094e-15 Z" id="Path" fill="#089CC5"></path>
                <path d="M19.3158954,0 C8.64806117,0 0,8.64806117 0,19.3158954 C0,23.5367533 1.35479115,27.4407276 3.65188893,30.6186302 L18.0646374,50.5590213 C18.3453618,50.9467815 18.8005988,51.200103 19.3158954,51.200103 C19.7487775,51.200103 20.1311807,50.9468845 20.3669891,50.5590213 L32.4736773,30.6186302 C34.4032064,27.4407276 35.5412475,23.5367533 35.5412475,19.3158954 C35.5412475,8.64806117 28.2769256,0 19.3158954,0 Z" id="Path" fill="#17AAD2"></path>
                <path d="M19.3158954,7.72635815 L19.3158954,30.9054326 C25.7166165,30.9054326 30.9054326,25.7166165 30.9054326,19.3158954 C30.9054326,12.9151742 25.7166165,7.72635815 19.3158954,7.72635815 Z" id="Path" fill="#FFFFFF"></path>
                <path d="M19.3158954,7.72635815 C12.9151742,7.72635815 7.72635815,12.9151742 7.72635815,19.3158954 C7.72635815,25.7166165 12.9151742,30.9054326 19.3158954,30.9054326 C24.0097095,30.9054326 27.8148893,25.7166165 27.8148893,19.3158954 C27.8148893,12.9151742 24.0097095,7.72635815 19.3158954,7.72635815 Z" id="Path" fill="#FFFFFF"></path>
                <polygon id="Path" fill="#FFC113" points="23.5787847 16.1141956 21.8330398 15.8512934 19.3158954 10.8169014 16.7987509 15.8512934 11.2328885 16.6895517 15.2429714 20.639266 14.3203412 26.191736 19.3158954 23.5983581 20.8828008 24.4117891"></polygon>
                <polygon id="Path" fill="#FFA013" points="23.3888193 20.639266 27.3989022 16.6895517 23.5787847 16.1141956 20.0771992 19.5631388 20.8828008 24.4117891 24.3114495 26.191736"></polygon>
            </g>
        </g>
    </g>
</svg>