<?xml version="1.0" encoding="UTF-8"?>
<svg width="50px" height="50px" viewBox="0 0 50 50" version="1.1" xmlns="http://www.w3.org/2000/svg" xmlns:xlink="http://www.w3.org/1999/xlink">
    <title>target</title>
    <g id="Page-1" stroke="none" stroke-width="1" fill="none" fill-rule="evenodd">
        <g id="Integrated-Assessment-Core-Completed" transform="translate(-269.000000, -312.000000)" fill-rule="nonzero">
            <g id="target" transform="translate(269.000000, 312.000000)">
                <circle id="Oval" fill="#54C0EB" cx="25" cy="25" r="25"></circle>
                <path d="M25,43.75 C14.6875,43.75 6.25,35.3125 6.25,25 C6.25,14.6875 14.6875,6.25 25,6.25 C35.3125,6.25 43.75,14.6875 43.75,25 C43.75,35.3125 35.3125,43.75 25,43.75 Z" id="Path" fill="#F2F2F2"></path>
                <path d="M25,37.5 C18.125,37.5 12.5,31.875 12.5,25 C12.5,18.125 18.125,12.5 25,12.5 C31.875,12.5 37.5,18.125 37.5,25 C37.5,31.875 31.875,37.5 25,37.5 Z" id="Path" fill="#FF7058"></path>
                <path d="M25,31.25 C21.5625,31.25 18.75,28.4375 18.75,25 C18.75,21.5625 21.5625,18.75 25,18.75 C28.4375,18.75 31.25,21.5625 31.25,25 C31.25,28.4375 28.4375,31.25 25,31.25 Z" id="Path" fill="#CDD6E0"></path>
                <path d="M25,31.25 C21.5625,31.25 18.75,28.4375 18.75,25 C18.75,21.5625 21.5625,18.75 25,18.75 C28.4375,18.75 31.25,21.5625 31.25,25 C31.25,28.4375 28.4375,31.25 25,31.25 Z" id="Path" fill="#FFD15C"></path>
                <path d="M49.7916992,28.125 C49.375,31.25 48.4375,34.1666992 46.9791992,36.875 L45.625,36.3541992 L43.8541992,32.6041992 L25.1041992,25.8333984 C24.2708984,25.5208984 23.8541992,24.5833984 24.1666992,23.7500977 C24.4791992,22.9167969 25.4166992,22.5000977 26.25,22.8125977 L45,29.5833984 L48.75,27.8125977 L49.7916992,28.125 Z" id="Path" fill="#334A5E" opacity="0.2"></path>
                <path d="M42.0833008,10.1041992 L26.7708008,25.4166992 C26.1458008,26.0416992 25.1041016,26.0416992 24.4791016,25.4166992 L24.4791016,25.4166992 C23.8541016,24.7916992 23.8541016,23.75 24.4791016,23.125 L39.8958008,7.91669922 C40.5208008,7.29169922 41.5625,7.29169922 42.1875,7.91669922 L42.1875,7.91669922 C42.7083008,8.54169922 42.7083008,9.47919922 42.0833008,10.1041992 Z" id="Path" fill="#40596B"></path>
                <polygon id="Path" fill="#FF7058" points="43.5416992 6.45830078 38.6458008 11.3541992 38.6458008 4.89580078 43.5416992 0"></polygon>
                <polygon id="Path" fill="#F1543F" points="45.1041992 11.3541992 50 6.45830078 43.5416992 6.45830078 38.6458008 11.3541992"></polygon>
            </g>
        </g>
    </g>
</svg>