<?xml version="1.0" encoding="UTF-8"?>
<svg width="20px" height="19px" viewBox="0 0 20 19" version="1.1" xmlns="http://www.w3.org/2000/svg" xmlns:xlink="http://www.w3.org/1999/xlink">
    <title>assessment_black_24dp</title>
    <g id="Page-1" stroke="none" stroke-width="1" fill="none" fill-rule="evenodd">
        <g id="Integrated-Assessment-Blank-state" transform="translate(-872.000000, -294.000000)">
            <g id="Group-3" transform="translate(843.000000, 202.000000)">
                <g id="assessment_black_24dp" transform="translate(29.000000, 92.000000)">
                    <polygon id="Path" points="0 0 20 0 20 19 0 19"></polygon>
                    <path d="M15.8333333,2.375 L4.16666667,2.375 C3.25,2.375 2.5,3.0875 2.5,3.95833333 L2.5,15.0416667 C2.5,15.9125 3.25,16.625 4.16666667,16.625 L15.8333333,16.625 C16.75,16.625 17.5,15.9125 17.5,15.0416667 L17.5,3.95833333 C17.5,3.0875 16.75,2.375 15.8333333,2.375 Z M15.8333333,15.0416667 L4.16666667,15.0416667 L4.16666667,3.95833333 L15.8333333,3.95833333 L15.8333333,15.0416667 Z M5.83333333,7.91666667 L7.5,7.91666667 L7.5,13.4583333 L5.83333333,13.4583333 L5.83333333,7.91666667 Z M9.16666667,5.54166667 L10.8333333,5.54166667 L10.8333333,13.4583333 L9.16666667,13.4583333 L9.16666667,5.54166667 Z M12.5,10.2916667 L14.1666667,10.2916667 L14.1666667,13.4583333 L12.5,13.4583333 L12.5,10.2916667 Z" id="Shape" fill="#E13F00" fill-rule="nonzero"></path>
                </g>
            </g>
        </g>
    </g>
</svg>